<svg width="32" height="33" viewBox="0 0 32 33" fill="none" xmlns="http://www.w3.org/2000/svg">
<g clip-path="url(#clip0_1305_4286)">
<path d="M16 32.5C24.8366 32.5 32 25.3366 32 16.5C32 7.66344 24.8366 0.5 16 0.5C7.16344 0.5 0 7.66344 0 16.5C0 25.3366 7.16344 32.5 16 32.5Z" fill="url(#paint0_linear_1305_4286)"/>
<path d="M20.9823 9.53304C20.5794 9.46662 20.1667 9.50443 19.782 9.64299C19.3973 9.78156 19.0531 10.0164 18.781 10.3259C18.2617 10.9184 18.1001 11.6898 18.2248 12.4627C18.3378 13.1598 18.4876 13.8673 18.5213 14.5388C18.5685 15.5502 18.4173 16.5611 18.0765 17.5124C17.7682 18.3732 17.3289 19.0407 16.3875 19.1884C16.3177 19.1996 16.0635 19.2076 15.9914 19.2116C15.9192 19.2156 15.6909 19.2004 15.6203 19.1892C14.6789 19.0415 14.2357 18.374 13.9282 17.5076C13.5874 16.5563 13.4362 15.5454 13.4834 14.534C13.5171 13.8649 13.667 13.1566 13.7799 12.4579C13.9047 11.685 13.7431 10.9136 13.2237 10.3212C12.9507 10.0119 12.6056 9.77753 12.2202 9.63979C11.8348 9.50205 11.4216 9.46534 11.0185 9.53304C9.81122 9.73347 9.00713 10.8242 9.00007 11.9684C8.9967 12.4093 9.11435 12.8424 9.33975 13.2189C9.71552 13.8497 10.3321 14.3096 10.8703 14.7871C11.2264 15.1065 11.8422 16.0128 12.1443 16.995C12.3271 17.5898 12.4761 18.1927 12.6236 18.8012C12.8307 19.6492 13.1155 21.5224 13.3029 22.3728C13.6772 24.0752 14.8225 24.4609 15.9702 24.5H16.011C17.1587 24.4609 18.3229 24.0744 18.6971 22.372C18.8837 21.5216 19.1677 19.6476 19.3764 18.8004C19.5247 18.1951 19.6729 17.589 19.8557 16.9942C20.1577 16.012 20.7736 15.1025 21.1297 14.7863C21.6679 14.3072 22.2837 13.8489 22.6602 13.2181C22.8857 12.8416 23.0033 12.4085 22.9999 11.9676C22.9937 10.821 22.1927 9.72947 20.9823 9.53304Z" fill="white"/>
</g>
<defs>
<linearGradient id="paint0_linear_1305_4286" x1="4.92308" y1="6.03846" x2="28.3077" y2="27.5769" gradientUnits="userSpaceOnUse">
<stop stop-color="#0DA670"/>
<stop offset="1" stop-color="#2B4DAC"/>
</linearGradient>
<clipPath id="clip0_1305_4286">
<rect width="32" height="32" fill="white" transform="translate(0 0.5)"/>
</clipPath>
</defs>
</svg>
