<svg width="32" height="33" viewBox="0 0 32 33" fill="none" xmlns="http://www.w3.org/2000/svg">
<g clip-path="url(#clip0_1305_4303)">
<path d="M16 32.5C24.8366 32.5 32 25.3366 32 16.5C32 7.66344 24.8366 0.5 16 0.5C7.16344 0.5 0 7.66344 0 16.5C0 25.3366 7.16344 32.5 16 32.5Z" fill="#627EEA"/>
<path d="M16.138 6.5L16.0039 6.95574V20.1802L16.138 20.314L22.2766 16.6855L16.138 6.5Z" fill="#C0CCF7"/>
<path d="M16.1386 6.5L10 16.6855L16.1386 20.3141V13.8953V6.5Z" fill="white"/>
<path d="M16.1381 21.4763L16.0625 21.5684V26.2793L16.1381 26.5L22.2803 17.8496L16.1381 21.4763Z" fill="#C0CCF7"/>
<path d="M16.1386 26.4999V21.4762L10 17.8495L16.1386 26.4999Z" fill="white"/>
<path d="M16.1372 20.314L22.2757 16.6856L16.1372 13.8954V20.314Z" fill="#8198EE"/>
<path d="M10 16.6856L16.1385 20.314V13.8954L10 16.6856Z" fill="#C0CCF7"/>
</g>
<defs>
<clipPath id="clip0_1305_4303">
<rect width="32" height="32" fill="white" transform="translate(0 0.5)"/>
</clipPath>
</defs>
</svg>
