<svg width="32" height="33" viewBox="0 0 32 33" fill="none" xmlns="http://www.w3.org/2000/svg">
<path d="M31.5214 20.3692C29.3836 28.9452 20.6947 34.1585 12.131 32.0206C3.55473 29.8829 -1.65852 21.1944 0.479358 12.6307C2.61711 4.05473 11.2934 -1.15852 19.8696 0.979359C28.4334 3.10461 33.6592 11.7931 31.5214 20.3692Z" fill="#F7931A"/>
<path d="M23.6187 14.5063C23.9312 12.3813 22.3187 11.2313 20.0937 10.4688L20.8187 7.58127L19.0687 7.14377L18.3687 9.95627C17.9062 9.84377 17.4312 9.73127 16.9562 9.63127L17.6562 6.80627L15.9062 6.36877L15.1937 9.24377C14.8062 9.15627 14.4312 9.06877 14.0687 8.98127V8.96877L11.6437 8.36877L11.1812 10.2438C11.1812 10.2438 12.4812 10.5438 12.4562 10.5563C13.1687 10.7313 13.2937 11.2063 13.2687 11.5813L12.4437 14.8688C12.4937 14.8813 12.5562 14.8938 12.6312 14.9313C12.5687 14.9188 12.5062 14.9063 12.4437 14.8813L11.2937 19.4813C11.2062 19.6938 10.9812 20.0188 10.4937 19.8938C10.5062 19.9188 9.21875 19.5813 9.21875 19.5813L8.34375 21.5938L10.6312 22.1688C11.0562 22.2813 11.4687 22.3813 11.8812 22.4938L11.1562 25.4063L12.9062 25.8438L13.6312 22.9563C14.1062 23.0813 14.5812 23.2063 15.0312 23.3188L14.3187 26.1938L16.0687 26.6313L16.7937 23.7188C19.7937 24.2813 22.0437 24.0563 22.9812 21.3438C23.7437 19.1688 22.9437 17.9063 21.3687 17.0813C22.5312 16.8188 23.3937 16.0563 23.6187 14.5063ZM19.6062 20.1313C19.0687 22.3063 15.3937 21.1313 14.2062 20.8313L15.1687 16.9688C16.3562 17.2688 20.1812 17.8563 19.6062 20.1313ZM20.1562 14.4688C19.6562 16.4563 16.6062 15.4438 15.6187 15.1938L16.4937 11.6938C17.4812 11.9438 20.6687 12.4063 20.1562 14.4688Z" fill="white"/>
</svg>
