<svg width="40" height="40" viewBox="0 0 40 40" fill="none" xmlns="http://www.w3.org/2000/svg">
<rect width="40" height="40" rx="20" fill="#1770D0"/>
<g clip-path="url(#clip0_1401_4444)">
<path d="M24.3225 25.5292L19.93 26.0121L15.582 25.5292C17.6387 25.5292 18.3601 24.0568 18.5007 22.1088C18.5195 21.8509 18.5277 21.5849 18.5277 21.313V21.129C18.9836 21.227 19.4737 21.2797 20.0005 21.2797C20.5086 21.2797 20.9828 21.2309 21.4251 21.1396V21.313C21.4251 21.5882 21.4328 21.8577 21.4512 22.1185C21.5844 24.0616 22.2692 25.5292 24.3225 25.5292Z" fill="#FAD207"/>
<path d="M25.9636 26.552V28.1851L19.9515 28.668L13.9395 28.1851V26.552C13.9395 25.987 14.3972 25.5292 14.9622 25.5292H24.9408C25.402 25.5292 25.7917 25.8344 25.9192 26.2535C25.9481 26.3482 25.9636 26.4481 25.9636 26.552Z" fill="#FAD207"/>
<path d="M25.9192 26.2535H15.1467C14.8801 26.2535 14.6638 26.4699 14.6638 26.7364V28.1851H13.9395V26.5519C13.9395 25.987 14.3972 25.5292 14.9622 25.5292H24.9408C25.402 25.5292 25.7917 25.8344 25.9192 26.2535ZM21.4504 22.1185C20.9859 22.2025 20.4991 22.2455 19.9998 22.2455C19.4831 22.2455 18.9795 22.1996 18.4999 22.1088C18.5188 21.8509 18.527 21.5849 18.527 21.313V21.129L19.9998 21.0716L21.4244 21.1396V21.313C21.4244 21.5882 21.4321 21.8577 21.4504 22.1185Z" fill="#FAA515"/>
<path d="M32.0001 12.9014C32.0001 16.4826 29.0863 19.3964 25.5051 19.3964H24.5635C24.986 18.9594 25.3487 18.4673 25.6601 17.9453C28.1273 17.8704 30.1545 16.0166 30.4997 13.6258H27.2117C27.3136 13.0999 27.3855 12.6083 27.4362 12.1771H31.2758C31.6756 12.1771 32.0001 12.5016 32.0001 12.9014Z" fill="#FAD207"/>
<path d="M26.8611 17.7627C26.7433 17.9969 26.6192 18.2229 26.4893 18.4402C26.2889 18.7763 26.0735 19.0931 25.8451 19.3872C25.7326 19.3935 25.6191 19.3964 25.5051 19.3964H24.5635L24.6705 18.7027L25.6601 17.9453C25.6601 17.9453 26.4772 17.8699 26.8611 17.7627ZM28.4083 12.1771C28.354 12.6623 28.2826 13.1455 28.1944 13.6258H27.2117L26.8548 12.9014L27.4362 12.1771H28.4083Z" fill="#FAA515"/>
<path d="M32 12.9014C32 16.3686 29.2687 19.21 25.845 19.3872C26.0734 19.0931 26.2888 18.7763 26.4892 18.4402C26.6191 18.2229 26.7432 17.9969 26.861 17.7627C28.7612 17.232 30.2123 15.6148 30.4996 13.6258H28.1943C28.2825 13.1455 28.3539 12.6623 28.4082 12.1771H31.2757C31.6755 12.1771 32 12.5016 32 12.9014ZM15.4366 19.3964H14.495C10.9138 19.3964 8 16.4826 8 12.9014C8 12.5016 8.32451 12.1771 8.72435 12.1771H12.5639C12.6146 12.6083 12.6865 13.0999 12.7884 13.6258H9.50036C9.84563 16.0166 11.8728 17.8704 14.34 17.9453C14.6514 18.4673 15.0141 18.9594 15.4366 19.3964Z" fill="#FAD207"/>
<path d="M12.7884 13.6258H11.8057C11.7176 13.1455 11.6462 12.6623 11.5918 12.1771H12.5639L13.1479 12.9185L12.7884 13.6258ZM15.4366 19.3964H14.495C14.381 19.3964 14.2675 19.3935 14.155 19.3872C13.9266 19.0931 13.7112 18.7763 13.5108 18.4402C13.3809 18.2229 13.2568 17.9969 13.139 17.7627C13.5229 17.8699 14.34 17.9453 14.34 17.9453L15.2413 18.5829L15.4366 19.3964Z" fill="#FAA515"/>
<path d="M27.8475 28.1851H12.1533C11.6199 28.1851 11.1875 28.6175 11.1875 29.1509V31.0342C11.1875 31.5676 11.6199 32 12.1533 32H27.8475C28.3809 32 28.8133 31.5676 28.8133 31.0342V29.1509C28.8133 28.6175 28.3809 28.1851 27.8475 28.1851Z" fill="#50758D"/>
<path d="M13.1191 32H12.1533C11.6197 32 11.1875 31.5678 11.1875 31.0342V29.1509C11.1875 28.6173 11.6197 28.1851 12.1533 28.1851V31.0342C12.1533 31.5678 12.5855 32 13.1191 32Z" fill="#2B597F"/>
<path d="M27.5571 10.4628C27.5571 10.4628 27.5571 10.8298 27.5097 11.4286C27.4924 11.6488 27.4682 11.9009 27.4359 12.1771C27.3852 12.6083 27.3132 13.0999 27.2113 13.6258C26.9467 14.9832 26.4812 16.5695 25.6598 17.9453C25.3483 18.4673 24.9856 18.9594 24.5631 19.3964C23.7547 20.2328 22.7281 20.8702 21.4243 21.1396C20.9819 21.2309 20.5077 21.2797 19.9997 21.2797C19.4729 21.2797 18.9827 21.227 18.5269 21.129C17.2462 20.8547 16.2351 20.2226 15.4363 19.3964C15.0138 18.9594 14.6512 18.4673 14.3397 17.9453C13.5183 16.5695 13.0528 14.9832 12.7881 13.6258C12.6862 13.0999 12.6143 12.6083 12.5636 12.1771C12.5312 11.9009 12.5071 11.6488 12.4897 11.4286C12.4424 10.8298 12.4424 10.4628 12.4424 10.4628H27.5571Z" fill="#FAD207"/>
<path d="M20.2438 12.5954L20.8371 14.4213H22.757C23.005 14.4213 23.108 14.7385 22.9075 14.8843L21.3542 16.0128L21.9475 17.8388C22.0241 18.0746 21.7542 18.2707 21.5537 18.125L20.0004 16.9964L18.4471 18.125C18.2465 18.2707 17.9766 18.0746 18.0533 17.8388L18.6466 16.0128L17.0933 14.8843C16.8927 14.7385 16.9958 14.4213 17.2437 14.4213H19.1637L19.7569 12.5954C19.8336 12.3596 20.1672 12.3596 20.2438 12.5954Z" fill="#FC4755"/>
<path d="M24.4179 30.4789H15.5809C15.3809 30.4789 15.2188 30.3168 15.2188 30.1167C15.2188 29.9166 15.3809 29.7545 15.5809 29.7545H24.4179C24.618 29.7545 24.7801 29.9166 24.7801 30.1167C24.7801 30.3168 24.618 30.4789 24.4179 30.4789Z" fill="#2B597F"/>
<path d="M27.5571 10.4628L19.6884 9.97987L13.4082 10.4628H12.4424C12.4424 10.4628 12.4424 10.8298 12.4897 11.4286C12.5071 11.6488 12.5312 11.9008 12.5636 12.1771C12.6143 12.6083 12.6862 13.0999 12.7881 13.6257C13.0528 14.9832 13.5183 16.5695 14.3397 17.9453C14.6512 18.4673 15.0138 18.9593 15.4363 19.3964C16.2351 20.2226 17.2462 20.8547 18.5269 21.129C18.9827 21.227 19.4729 21.2797 19.9997 21.2797C20.1639 21.2797 20.3242 21.2748 20.4812 21.2647C20.1349 21.2425 19.8056 21.1961 19.4927 21.129C18.212 20.8547 17.2009 20.2226 16.4021 19.3964C15.9796 18.9593 15.6169 18.4673 15.3055 17.9453C14.4841 16.5695 14.0186 14.9832 13.7539 13.6257C13.652 13.0999 13.5801 12.6083 13.5294 12.1771L13.5284 12.1688C13.4824 11.7744 13.7916 11.4286 14.1887 11.4286H27.5097C27.5571 10.8298 27.5571 10.4628 27.5571 10.4628Z" fill="#FAA515"/>
<path d="M12.4189 8H27.5819C28.2619 8 28.8133 8.55132 28.8133 9.23139C28.8133 9.91145 28.2619 10.4628 27.5819 10.4628H12.4189C11.7388 10.4628 11.1875 9.91145 11.1875 9.23139C11.1875 8.55132 11.7388 8 12.4189 8Z" fill="#FAD207"/>
<path d="M13.3847 10.4628H12.4189C11.739 10.4628 11.1875 9.91131 11.1875 9.23139C11.1875 8.89143 11.3256 8.58334 11.5482 8.36072C11.7708 8.13811 12.0789 8 12.4189 8H13.3847C13.0447 8 12.7366 8.13811 12.514 8.36072C12.2914 8.58334 12.1533 8.89143 12.1533 9.23139C12.1533 9.91131 12.7048 10.4628 13.3847 10.4628Z" fill="#FAA515"/>
</g>
<defs>
<clipPath id="clip0_1401_4444">
<rect width="24" height="24" fill="white" transform="translate(8 8)"/>
</clipPath>
</defs>
</svg>
