<svg width="40" height="40" viewBox="0 0 40 40" fill="none" xmlns="http://www.w3.org/2000/svg">
<rect width="40" height="40" rx="20" fill="url(#paint0_linear_1477_9488)"/>
<path d="M21.8009 20.0418C21.8009 20.306 22.0151 20.5203 22.2793 20.5203C22.5436 20.5203 22.7578 20.306 22.7578 20.0418C22.7578 19.7776 22.5436 19.5633 22.2793 19.5633C22.0151 19.5633 21.8009 19.7776 21.8009 20.0418Z" fill="#E2E46F"/>
<path d="M20.2872 17.4834C20.2872 17.7477 20.5015 17.9619 20.7657 17.9619C21.0299 17.9619 21.2441 17.7477 21.2441 17.4834C21.2441 17.2192 21.0299 17.005 20.7657 17.005C20.5015 17.005 20.2872 17.2192 20.2872 17.4834Z" fill="#E2E46F"/>
<path d="M18.7765 14.926C18.7765 15.1903 18.9907 15.4045 19.2549 15.4045C19.5192 15.4045 19.7334 15.1903 19.7334 14.926C19.7334 14.6618 19.5192 14.4476 19.2549 14.4476C18.9907 14.4476 18.7765 14.6618 18.7765 14.926Z" fill="#E2E46F"/>
<path d="M17.2628 12.3687C17.2628 12.6329 17.4771 12.8471 17.7413 12.8471C18.0055 12.8471 18.2197 12.6329 18.2197 12.3687C18.2197 12.1044 18.0055 11.8902 17.7413 11.8902C17.4771 11.8902 17.2628 12.1044 17.2628 12.3687Z" fill="#E2E46F"/>
<path d="M15.7579 9.81233C15.7579 10.0766 15.9722 10.2908 16.2364 10.2908C16.5006 10.2908 16.7148 10.0766 16.7148 9.81233C16.7148 9.54807 16.5006 9.33386 16.2364 9.33386C15.9722 9.33386 15.7579 9.54807 15.7579 9.81233Z" fill="#E2E46F"/>
<path d="M18.34 20.041C18.34 20.5695 18.7685 20.9979 19.297 20.9979C19.8255 20.9979 20.2539 20.5695 20.2539 20.041C20.2539 19.5125 19.8255 19.0841 19.297 19.0841C18.7685 19.0841 18.34 19.5125 18.34 20.041Z" fill="#E2E46F"/>
<path d="M16.8293 17.4846C16.8293 18.0131 17.2577 18.4416 17.7862 18.4416C18.3147 18.4416 18.7432 18.0131 18.7432 17.4846C18.7432 16.9561 18.3147 16.5277 17.7862 16.5277C17.2577 16.5277 16.8293 16.9561 16.8293 17.4846Z" fill="#E2E46F"/>
<path d="M15.3156 14.9272C15.3156 15.4558 15.7441 15.8842 16.2726 15.8842C16.8011 15.8842 17.2295 15.4558 17.2295 14.9272C17.2295 14.3988 16.8011 13.9703 16.2726 13.9703C15.7441 13.9703 15.3156 14.3988 15.3156 14.9272Z" fill="#E2E46F"/>
<path d="M13.8098 12.3689C13.8098 12.8973 14.2382 13.3258 14.7667 13.3258C15.2952 13.3258 15.7236 12.8973 15.7236 12.3689C15.7236 11.8404 15.2952 11.4119 14.7667 11.4119C14.2382 11.4119 13.8098 11.8404 13.8098 12.3689Z" fill="#E2E46F"/>
<path d="M12.7765 9.81233C12.7765 10.0766 12.9907 10.2908 13.2549 10.2908C13.5192 10.2908 13.7334 10.0766 13.7334 9.81233C13.7334 9.54807 13.5192 9.33386 13.2549 9.33386C12.9907 9.33386 12.7765 9.54807 12.7765 9.81233Z" fill="#E2E46F"/>
<path d="M15.3615 20.041C15.3615 20.5695 15.79 20.9979 16.3185 20.9979C16.8469 20.9979 17.2754 20.5695 17.2754 20.041C17.2754 19.5125 16.8469 19.0841 16.3185 19.0841C15.79 19.0841 15.3615 19.5125 15.3615 20.041Z" fill="#E2E46F"/>
<path d="M13.8479 17.4846C13.8479 18.0131 14.2763 18.4416 14.8048 18.4416C15.3332 18.4416 15.7617 18.0131 15.7617 17.4846C15.7617 16.9561 15.3332 16.5277 14.8048 16.5277C14.2763 16.5277 13.8479 16.9561 13.8479 17.4846Z" fill="#E2E46F"/>
<path d="M12.343 14.9272C12.343 15.4558 12.7714 15.8842 13.2999 15.8842C13.8284 15.8842 14.2568 15.4558 14.2568 14.9272C14.2568 14.3988 13.8284 13.9703 13.2999 13.9703C12.7714 13.9703 12.343 14.3988 12.343 14.9272Z" fill="#E2E46F"/>
<path d="M10.8293 12.3689C10.8293 12.8973 11.2577 13.3258 11.7862 13.3258C12.3147 13.3258 12.7432 12.8973 12.7432 12.3689C12.7432 11.8404 12.3147 11.4119 11.7862 11.4119C11.2577 11.4119 10.8293 11.8404 10.8293 12.3689Z" fill="#E2E46F"/>
<path d="M9.79503 9.81233C9.79503 10.0766 10.0092 10.2908 10.2735 10.2908C10.5377 10.2908 10.752 10.0766 10.752 9.81233C10.752 9.54807 10.5377 9.33386 10.2735 9.33386C10.0092 9.33386 9.79503 9.54807 9.79503 9.81233Z" fill="#E2E46F"/>
<path d="M21.8009 20.003C21.8009 20.2673 22.0151 20.4815 22.2793 20.4815C22.5436 20.4815 22.7578 20.2673 22.7578 20.003C22.7578 19.7387 22.5436 19.5245 22.2793 19.5245C22.0151 19.5245 21.8009 19.7387 21.8009 20.003Z" fill="#E2E46F"/>
<path d="M20.2872 22.5604C20.2872 22.8246 20.5015 23.0388 20.7657 23.0388C21.0299 23.0388 21.2441 22.8246 21.2441 22.5604C21.2441 22.2962 21.0299 22.0819 20.7657 22.0819C20.5015 22.0819 20.2872 22.2962 20.2872 22.5604Z" fill="#E2E46F"/>
<path d="M18.7765 25.1177C18.7765 25.382 18.9907 25.5962 19.2549 25.5962C19.5192 25.5962 19.7334 25.382 19.7334 25.1177C19.7334 24.8535 19.5192 24.6393 19.2549 24.6393C18.9907 24.6393 18.7765 24.8535 18.7765 25.1177Z" fill="#E2E46F"/>
<path d="M17.2628 27.6741C17.2628 27.9384 17.4771 28.1526 17.7413 28.1526C18.0055 28.1526 18.2197 27.9384 18.2197 27.6741C18.2197 27.4099 18.0055 27.1956 17.7413 27.1956C17.4771 27.1956 17.2628 27.4099 17.2628 27.6741Z" fill="#E2E46F"/>
<path d="M15.7569 30.2375C15.7569 30.5017 15.9712 30.7159 16.2354 30.7159C16.4997 30.7159 16.7139 30.5017 16.7139 30.2375C16.7139 29.9732 16.4997 29.759 16.2354 29.759C15.9712 29.759 15.7569 29.9732 15.7569 30.2375Z" fill="#E2E46F"/>
<path d="M18.34 20.0022C18.34 20.5307 18.7685 20.9592 19.297 20.9592C19.8255 20.9592 20.2539 20.5307 20.2539 20.0022C20.2539 19.4737 19.8255 19.0453 19.297 19.0453C18.7685 19.0453 18.34 19.4737 18.34 20.0022Z" fill="#E2E46F"/>
<path d="M16.8293 22.5596C16.8293 23.0881 17.2577 23.5165 17.7862 23.5165C18.3147 23.5165 18.7432 23.0881 18.7432 22.5596C18.7432 22.0311 18.3147 21.6027 17.7862 21.6027C17.2577 21.6027 16.8293 22.0311 16.8293 22.5596Z" fill="#E2E46F"/>
<path d="M15.3156 25.1169C15.3156 25.6454 15.7441 26.0739 16.2726 26.0739C16.8011 26.0739 17.2295 25.6454 17.2295 25.1169C17.2295 24.5884 16.8011 24.16 16.2726 24.16C15.7441 24.16 15.3156 24.5884 15.3156 25.1169Z" fill="#E2E46F"/>
<path d="M13.8098 27.6743C13.8098 28.2028 14.2382 28.6312 14.7667 28.6312C15.2952 28.6312 15.7236 28.2028 15.7236 27.6743C15.7236 27.1458 15.2952 26.7174 14.7667 26.7174C14.2382 26.7174 13.8098 27.1458 13.8098 27.6743Z" fill="#E2E46F"/>
<path d="M12.7765 30.2375C12.7765 30.5017 12.9907 30.7159 13.2549 30.7159C13.5192 30.7159 13.7334 30.5017 13.7334 30.2375C13.7334 29.9732 13.5192 29.759 13.2549 29.759C12.9907 29.759 12.7765 29.9732 12.7765 30.2375Z" fill="#E2E46F"/>
<path d="M15.3615 20.0022C15.3615 20.5307 15.79 20.9592 16.3185 20.9592C16.8469 20.9592 17.2754 20.5307 17.2754 20.0022C17.2754 19.4737 16.8469 19.0453 16.3185 19.0453C15.79 19.0453 15.3615 19.4737 15.3615 20.0022Z" fill="#E2E46F"/>
<path d="M13.8479 22.5596C13.8479 23.0881 14.2763 23.5165 14.8048 23.5165C15.3332 23.5165 15.7617 23.0881 15.7617 22.5596C15.7617 22.0311 15.3332 21.6027 14.8048 21.6027C14.2763 21.6027 13.8479 22.0311 13.8479 22.5596Z" fill="#E2E46F"/>
<path d="M12.343 25.1169C12.343 25.6454 12.7714 26.0739 13.2999 26.0739C13.8284 26.0739 14.2568 25.6454 14.2568 25.1169C14.2568 24.5884 13.8284 24.16 13.2999 24.16C12.7714 24.16 12.343 24.5884 12.343 25.1169Z" fill="#E2E46F"/>
<path d="M10.8293 27.6743C10.8293 28.2028 11.2577 28.6312 11.7862 28.6312C12.3147 28.6312 12.7432 28.2028 12.7432 27.6743C12.7432 27.1458 12.3147 26.7174 11.7862 26.7174C11.2577 26.7174 10.8293 27.1458 10.8293 27.6743Z" fill="#E2E46F"/>
<path d="M9.79503 30.2375C9.79503 30.5017 10.0092 30.7159 10.2735 30.7159C10.5377 30.7159 10.752 30.5017 10.752 30.2375C10.752 29.9732 10.5377 29.759 10.2735 29.759C10.0092 29.759 9.79503 29.9732 9.79503 30.2375Z" fill="#E2E46F"/>
<path fill-rule="evenodd" clip-rule="evenodd" d="M20.7461 26.5232L23.0324 30.7147H30.1596L24.3168 20.0028L20.7461 26.5232Z" fill="#E2E46F"/>
<path fill-rule="evenodd" clip-rule="evenodd" d="M24.3168 20.0458L20.7461 13.5254L23.0324 9.33385H30.1596L24.3168 20.0458Z" fill="#E2E46F"/>
<defs>
<linearGradient id="paint0_linear_1477_9488" x1="4.12" y1="4.36" x2="34.24" y2="34.36" gradientUnits="userSpaceOnUse">
<stop stop-color="#5C835E"/>
<stop offset="1" stop-color="#336436"/>
</linearGradient>
</defs>
</svg>
