<svg width="254" height="118" viewBox="0 0 254 118" fill="none" xmlns="http://www.w3.org/2000/svg">
<g clip-path="url(#clip0_1401_4616)">
<rect x="-0.990633" y="-0.571941" width="118.091" height="146.163" rx="8.89732" transform="matrix(0.965926 -0.258819 0.258822 0.965925 -0.385724 40.2699)" fill="#18181B"/>
<path d="M9.25365 47.859L11.352 49.8303L11.3963 49.8184L12.2279 47.062L13.038 46.845L12.0125 50.1648L14.5605 52.527L13.7504 52.7441L11.664 50.8172L11.6196 50.8291L10.7762 53.5411L9.96603 53.7581L11.0359 50.4264L8.44351 48.0761L9.25365 47.859ZM15.7954 53.909L14.2253 48.0493L14.8579 47.8798L15.0393 48.5568L15.117 48.536C15.1452 48.4491 15.1865 48.3369 15.2409 48.1995C15.2966 48.0596 15.3928 47.9229 15.5294 47.7891C15.6674 47.653 15.8751 47.5478 16.1526 47.4735C16.5114 47.3773 16.8517 47.3823 17.1735 47.4883C17.4954 47.5944 17.7771 47.7915 18.0189 48.0796C18.2606 48.3677 18.4415 48.7355 18.5614 49.1831C18.6823 49.6345 18.7104 50.0462 18.6456 50.4184C18.5803 50.7888 18.436 51.1011 18.2126 51.3552C17.9888 51.6074 17.6993 51.7812 17.3442 51.8763C17.0705 51.9497 16.8391 51.9631 16.6502 51.9166C16.4608 51.8682 16.3061 51.7976 16.1861 51.7049C16.0656 51.6103 15.9709 51.5306 15.902 51.4658L15.8465 51.4807L16.4502 53.7335L15.7954 53.909ZM15.4399 50.0076C15.5262 50.3295 15.6494 50.6008 15.8097 50.8215C15.9694 51.0404 16.1585 51.1949 16.3769 51.285C16.5949 51.3733 16.8352 51.3823 17.0978 51.3119C17.3716 51.2386 17.5807 51.1052 17.7251 50.9119C17.8709 50.7162 17.9571 50.483 17.9837 50.2122C18.0116 49.9391 17.9849 49.6508 17.9036 49.3475C17.8234 49.0479 17.7048 48.7902 17.5478 48.5745C17.3923 48.3565 17.2032 48.202 16.9806 48.111C16.7593 48.0176 16.5099 48.0081 16.2325 48.0825C15.9661 48.1538 15.7604 48.2813 15.6153 48.4649C15.4698 48.6466 15.3829 48.8701 15.3549 49.1354C15.3263 49.3987 15.3547 49.6895 15.4399 50.0076ZM21.409 50.7991C21.1389 50.8714 20.8802 50.8862 20.6329 50.8435C20.385 50.7989 20.1703 50.6968 19.9888 50.5373C19.8068 50.3759 19.6786 50.1565 19.6043 49.8791C19.5389 49.6349 19.5339 49.4241 19.5895 49.2467C19.6445 49.0674 19.7408 48.9127 19.8785 48.7827C20.0161 48.6526 20.1763 48.5403 20.3591 48.4457C20.5433 48.3488 20.7309 48.2609 20.9218 48.1819C21.1719 48.0793 21.3751 47.998 21.5316 47.9383C21.6894 47.8762 21.7996 47.8139 21.8622 47.7516C21.9266 47.6887 21.9447 47.6046 21.9164 47.4991L21.9105 47.4769C21.8371 47.2032 21.7052 47.0105 21.5148 46.899C21.3262 46.787 21.0811 46.7714 20.7796 46.8522C20.467 46.9359 20.2403 47.07 20.0994 47.2545C19.9585 47.4389 19.8728 47.6185 19.8423 47.7932L19.1614 47.7378C19.2029 47.4491 19.2969 47.2078 19.4432 47.014C19.5909 46.8178 19.7671 46.6616 19.9718 46.5453C20.1779 46.4266 20.3882 46.3385 20.6028 46.281C20.7397 46.2443 20.9013 46.2189 21.0878 46.2046C21.2757 46.188 21.4662 46.2073 21.6594 46.2626C21.8545 46.3173 22.0345 46.4307 22.1996 46.6025C22.3646 46.7744 22.4924 47.0296 22.5831 47.3681L23.3354 50.1758L22.6807 50.3513L22.526 49.7742L22.4927 49.7831C22.4731 49.8875 22.4257 50.0062 22.3503 50.1394C22.275 50.2726 22.1612 50.3992 22.009 50.5193C21.8569 50.6394 21.6568 50.7326 21.409 50.7991ZM21.3513 50.1841C21.6102 50.1147 21.8148 50.0054 21.9651 49.8561C22.1173 49.7063 22.2171 49.5388 22.2646 49.3536C22.314 49.1679 22.3149 48.9862 22.2673 48.8087L22.1067 48.2094C22.0879 48.2501 22.0351 48.297 21.9482 48.35C21.8626 48.4007 21.7615 48.4525 21.6449 48.5056C21.5296 48.5563 21.4167 48.6044 21.3059 48.65C21.1966 48.6931 21.108 48.7288 21.0402 48.7568C20.876 48.8246 20.7266 48.9033 20.592 48.9929C20.4587 49.0802 20.3599 49.1849 20.2956 49.3073C20.2326 49.4272 20.2234 49.5704 20.268 49.7369C20.3289 49.9644 20.4592 50.1139 20.6587 50.1853C20.8596 50.2544 21.0905 50.254 21.3513 50.1841ZM24.4984 47.1165L25.1853 49.6801L24.5305 49.8556L23.3886 45.594L24.0212 45.4245L24.1996 46.0904L24.2551 46.0755C24.297 45.8324 24.4021 45.6179 24.5704 45.432C24.7381 45.2443 24.983 45.1074 25.3048 45.0211C25.5933 44.9438 25.8617 44.9353 26.1098 44.9957C26.3574 45.0543 26.5733 45.1867 26.7575 45.3931C26.9411 45.5977 27.0816 45.8812 27.1787 46.2437L27.9043 48.9516L27.2495 49.127L26.5358 46.4636C26.4461 46.1288 26.2893 45.8913 26.0654 45.7511C25.841 45.609 25.5771 45.5786 25.2737 45.6599C25.0647 45.7159 24.8901 45.8112 24.7497 45.946C24.6112 46.0802 24.5181 46.2469 24.4704 46.4461C24.4226 46.6452 24.432 46.8687 24.4984 47.1165ZM30.7337 48.2886C30.3786 48.3838 30.041 48.3781 29.7211 48.2715C29.4006 48.1631 29.1195 47.9648 28.8778 47.6767C28.6355 47.3868 28.454 47.0162 28.333 46.5648C28.2131 46.1172 28.1858 45.7082 28.2511 45.3379C28.3164 44.9675 28.4619 44.6559 28.6875 44.4032C28.9132 44.1504 29.2054 43.9759 29.5643 43.8798C29.8417 43.8055 30.0733 43.793 30.259 43.8423C30.446 43.8894 30.5977 43.9597 30.714 44.0535C30.8317 44.1448 30.9245 44.2211 30.9924 44.2822L31.0479 44.2673L30.4859 42.1698L31.1406 41.9944L32.6632 47.6765L32.0306 47.846L31.8551 47.1912L31.7774 47.212C31.7502 47.3026 31.708 47.4189 31.6509 47.5611C31.5934 47.7014 31.4947 47.8399 31.3548 47.9765C31.2145 48.1112 31.0075 48.2153 30.7337 48.2886ZM30.6649 47.6766C30.9276 47.6063 31.1312 47.4783 31.2758 47.2929C31.4199 47.1056 31.5064 46.8773 31.5353 46.6078C31.5637 46.3365 31.5348 46.04 31.4485 45.7182C31.3633 45.4 31.2425 45.134 31.086 44.9202C30.9291 44.7045 30.7422 44.5544 30.5253 44.4698C30.3078 44.3833 30.0659 44.3758 29.7996 44.4472C29.5221 44.5215 29.31 44.6547 29.1632 44.8467C29.0177 45.0363 28.9312 45.2647 28.9037 45.5317C28.8775 45.7965 28.9045 46.0787 28.9848 46.3783C29.0661 46.6816 29.1862 46.9448 29.3451 47.1679C29.5053 47.3886 29.6966 47.5475 29.9189 47.6446C30.1425 47.7393 30.3912 47.75 30.6649 47.6766ZM32.8525 41.5357L34.9508 43.507L34.9952 43.4951L35.8267 40.7388L36.6368 40.5217L35.6113 43.8415L38.1593 46.2038L37.3492 46.4208L35.2628 44.4939L35.2184 44.5058L34.375 47.2178L33.5649 47.4349L34.6347 44.1032L32.0423 41.7528L32.8525 41.5357Z" fill="#E4E4E7"/>
<g opacity="0.6">
<path d="M25.4116 63.8089C26.2788 67.0451 24.3583 70.3715 21.1221 71.2387C17.8859 72.1058 14.5595 70.1853 13.6924 66.9491C12.8252 63.7129 14.7457 60.3865 17.9819 59.5194C21.2181 58.6522 24.5445 60.5727 25.4116 63.8089Z" stroke="#3F3F46" stroke-width="0.808847"/>
<path d="M37.9116 60.4594C38.7788 63.6956 36.8583 67.022 33.6221 67.8892C30.3859 68.7563 27.0595 66.8358 26.1924 63.5996C25.3252 60.3634 27.2457 57.037 30.4819 56.1698C33.7181 55.3027 37.0445 57.2232 37.9116 60.4594Z" stroke="#3F3F46" stroke-width="0.808847"/>
<path d="M50.4136 57.1099C51.2807 60.3461 49.3603 63.6725 46.1241 64.5396C42.8879 65.4068 39.5615 63.4863 38.6943 60.2501C37.8272 57.0139 39.7477 53.6875 42.9839 52.8203C46.22 51.9532 49.5465 53.8737 50.4136 57.1099Z" stroke="#3F3F46" stroke-width="0.808847"/>
<path d="M62.9136 53.7604C63.7807 56.9966 61.8603 60.323 58.6241 61.1901C55.3879 62.0573 52.0615 60.1368 51.1943 56.9006C50.3272 53.6644 52.2477 50.338 55.4839 49.4708C58.72 48.6037 62.0465 50.5242 62.9136 53.7604Z" stroke="#3F3F46" stroke-width="0.808847"/>
<path d="M75.4136 50.4109C76.2807 53.6471 74.3603 56.9735 71.1241 57.8406C67.8879 58.7078 64.5615 56.7873 63.6943 53.5511C62.8272 50.3149 64.7477 46.9884 67.9839 46.1213C71.22 45.2542 74.5465 47.1747 75.4136 50.4109Z" stroke="#3F3F46" stroke-width="0.808847"/>
<path d="M87.9136 47.0614C88.7807 50.2976 86.8603 53.624 83.6241 54.4911C80.3879 55.3582 77.0615 53.4377 76.1943 50.2015C75.3272 46.9653 77.2477 43.6389 80.4839 42.7718C83.72 41.9047 87.0465 43.8252 87.9136 47.0614Z" stroke="#3F3F46" stroke-width="0.808847"/>
<path d="M100.416 43.7119C101.283 46.9481 99.3622 50.2745 96.126 51.1416C92.8898 52.0087 89.5634 50.0882 88.6963 46.852C87.8291 43.6158 89.7496 40.2894 92.9858 39.4223C96.222 38.5551 99.5484 40.4756 100.416 43.7119Z" stroke="#3F3F46" stroke-width="0.808847"/>
<path d="M112.916 40.3623C113.783 43.5985 111.862 46.9249 108.626 47.7921C105.39 48.6592 102.063 46.7387 101.196 43.5025C100.329 40.2663 102.25 36.9399 105.486 36.0728C108.722 35.2056 112.048 37.1261 112.916 40.3623Z" stroke="#3F3F46" stroke-width="0.808847"/>
<path d="M28.7613 76.3095C29.6284 79.5457 27.7079 82.8721 24.4717 83.7393C21.2355 84.6064 17.9091 82.6859 17.042 79.4497C16.1748 76.2135 18.0953 72.8871 21.3315 72.02C24.5677 71.1528 27.8941 73.0733 28.7613 76.3095Z" stroke="#3F3F46" stroke-width="0.808847"/>
<path d="M41.2613 72.96C42.1284 76.1962 40.2079 79.5226 36.9717 80.3898C33.7355 81.2569 30.4091 79.3364 29.542 76.1002C28.6748 72.864 30.5953 69.5376 33.8315 68.6704C37.0677 67.8033 40.3941 69.7238 41.2613 72.96Z" stroke="#3F3F46" stroke-width="0.808847"/>
<path d="M53.7632 69.6105C54.6304 72.8467 52.7099 76.1731 49.4737 77.0402C46.2375 77.9074 42.9111 75.9869 42.0439 72.7507C41.1768 69.5145 43.0973 66.1881 46.3335 65.3209C49.5697 64.4538 52.8961 66.3743 53.7632 69.6105Z" stroke="#3F3F46" stroke-width="0.808847"/>
<path d="M66.2632 66.261C67.1304 69.4972 65.2099 72.8236 61.9737 73.6907C58.7375 74.5579 55.4111 72.6374 54.5439 69.4012C53.6768 66.165 55.5973 62.8385 58.8335 61.9714C62.0697 61.1043 65.3961 63.0248 66.2632 66.261Z" stroke="#3F3F46" stroke-width="0.808847"/>
<path d="M78.7632 62.9115C79.6304 66.1477 77.7099 69.4741 74.4737 70.3412C71.2375 71.2084 67.9111 69.2879 67.0439 66.0517C66.1768 62.8155 68.0973 59.4891 71.3335 58.6219C74.5697 57.7548 77.8961 59.6753 78.7632 62.9115Z" stroke="#3F3F46" stroke-width="0.808847"/>
<path d="M91.2632 59.562C92.1304 62.7982 90.2099 66.1246 86.9737 66.9917C83.7375 67.8589 80.4111 65.9383 79.5439 62.7021C78.6768 59.4659 80.5973 56.1395 83.8335 55.2724C87.0697 54.4053 90.3961 56.3258 91.2632 59.562Z" stroke="#3F3F46" stroke-width="0.808847"/>
<path d="M103.765 56.2125C104.632 59.4487 102.712 62.7751 99.4756 63.6422C96.2394 64.5093 92.913 62.5888 92.0459 59.3526C91.1787 56.1164 93.0992 52.79 96.3354 51.9229C99.5716 51.0558 102.898 52.9763 103.765 56.2125Z" stroke="#3F3F46" stroke-width="0.808847"/>
<path d="M116.265 52.8629C117.132 56.0991 115.212 59.4255 111.976 60.2926C108.739 61.1598 105.413 59.2393 104.546 56.0031C103.679 52.7668 105.599 49.4404 108.835 48.5733C112.072 47.7062 115.398 49.6267 116.265 52.8629Z" stroke="#3F3F46" stroke-width="0.808847"/>
<path d="M32.1109 88.8101C32.978 92.0463 31.0575 95.3727 27.8213 96.2399C24.5852 97.107 21.2587 95.1865 20.3916 91.9503C19.5244 88.7141 21.4449 85.3877 24.6811 84.5205C27.9173 83.6534 31.2437 85.5739 32.1109 88.8101Z" stroke="#3F3F46" stroke-width="0.808847"/>
<path d="M44.6109 85.4606C45.478 88.6968 43.5575 92.0232 40.3213 92.8903C37.0852 93.7575 33.7587 91.837 32.8916 88.6008C32.0244 85.3646 33.9449 82.0382 37.1811 81.171C40.4173 80.3039 43.7437 82.2244 44.6109 85.4606Z" stroke="#3F3F46" stroke-width="0.808847"/>
<path d="M57.1128 82.1111C57.98 85.3473 56.0595 88.6737 52.8233 89.5408C49.5871 90.408 46.2607 88.4875 45.3935 85.2512C44.5264 82.015 46.4469 78.6886 49.6831 77.8215C52.9193 76.9544 56.2457 78.8749 57.1128 82.1111Z" stroke="#3F3F46" stroke-width="0.808847"/>
<path d="M69.6128 78.7616C70.48 81.9978 68.5595 85.3242 65.3233 86.1913C62.0871 87.0584 58.7607 85.1379 57.8935 81.9017C57.0264 78.6655 58.9469 75.3391 62.1831 74.472C65.4193 73.6049 68.7457 75.5254 69.6128 78.7616Z" stroke="#3F3F46" stroke-width="0.808847"/>
<path d="M82.1128 75.4121C82.98 78.6483 81.0595 81.9747 77.8233 82.8418C74.5871 83.709 71.2607 81.7884 70.3935 78.5522C69.5264 75.316 71.4469 71.9896 74.6831 71.1225C77.9193 70.2554 81.2457 72.1759 82.1128 75.4121Z" stroke="#3F3F46" stroke-width="0.808847"/>
<path d="M94.6128 72.0626C95.48 75.2988 93.5595 78.6252 90.3233 79.4923C87.0871 80.3594 83.7607 78.4389 82.8935 75.2027C82.0264 71.9665 83.9469 68.6401 87.1831 67.773C90.4193 66.9059 93.7457 68.8264 94.6128 72.0626Z" stroke="#3F3F46" stroke-width="0.808847"/>
<path d="M107.115 68.713C107.982 71.9492 106.061 75.2756 102.825 76.1428C99.5891 77.0099 96.2626 75.0894 95.3955 71.8532C94.5284 68.617 96.4488 65.2906 99.685 64.4235C102.921 63.5563 106.248 65.4768 107.115 68.713Z" stroke="#3F3F46" stroke-width="0.808847"/>
<path d="M119.615 65.3635C120.482 68.5997 118.561 71.9261 115.325 72.7933C112.089 73.6604 108.763 71.7399 107.896 68.5037C107.028 65.2675 108.949 61.9411 112.185 61.0739C115.421 60.2068 118.748 62.1273 119.615 65.3635Z" stroke="#3F3F46" stroke-width="0.808847"/>
<path d="M35.4605 101.311C36.3276 104.547 34.4071 107.873 31.1709 108.74C27.9348 109.608 24.6084 107.687 23.7412 104.451C22.8741 101.215 24.7945 97.8883 28.0307 97.0212C31.2669 96.154 34.5933 98.0745 35.4605 101.311Z" stroke="#3F3F46" stroke-width="0.808847"/>
<path d="M47.9605 97.9612C48.8276 101.197 46.9071 104.524 43.6709 105.391C40.4348 106.258 37.1084 104.338 36.2412 101.101C35.3741 97.8652 37.2945 94.5388 40.5307 93.6716C43.7669 92.8045 47.0933 94.725 47.9605 97.9612Z" stroke="#3F3F46" stroke-width="0.808847"/>
<path d="M60.4624 94.6117C61.3296 97.8479 59.4091 101.174 56.1729 102.041C52.9367 102.909 49.6103 100.988 48.7432 97.7519C47.876 94.5157 49.7965 91.1893 53.0327 90.3221C56.2689 89.455 59.5953 91.3755 60.4624 94.6117Z" stroke="#3F3F46" stroke-width="0.808847"/>
<path d="M72.9624 91.2622C73.8296 94.4984 71.9091 97.8248 68.6729 98.6919C65.4367 99.559 62.1103 97.6385 61.2432 94.4023C60.376 91.1661 62.2965 87.8397 65.5327 86.9726C68.7689 86.1055 72.0953 88.026 72.9624 91.2622Z" stroke="#3F3F46" stroke-width="0.808847"/>
<path d="M85.4624 87.9127C86.3296 91.1489 84.4091 94.4753 81.1729 95.3424C77.9367 96.2096 74.6103 94.2891 73.7432 91.0529C72.876 87.8167 74.7965 84.4902 78.0327 83.6231C81.2689 82.756 84.5953 84.6765 85.4624 87.9127Z" stroke="#3F3F46" stroke-width="0.808847"/>
<path d="M97.9624 84.5632C98.8296 87.7994 96.9091 91.1258 93.6729 91.9929C90.4367 92.86 87.1103 90.9395 86.2432 87.7033C85.376 84.4671 87.2965 81.1407 90.5327 80.2736C93.7689 79.4065 97.0953 81.327 97.9624 84.5632Z" stroke="#3F3F46" stroke-width="0.808847"/>
<path d="M110.464 81.2137C111.332 84.4499 109.411 87.7763 106.175 88.6434C102.939 89.5105 99.6123 87.59 98.7451 84.3538C97.878 81.1176 99.7985 77.7912 103.035 76.9241C106.271 76.0569 109.597 77.9774 110.464 81.2137Z" stroke="#3F3F46" stroke-width="0.808847"/>
<path d="M122.964 77.8641C123.832 81.1003 121.911 84.4267 118.675 85.2939C115.439 86.161 112.112 84.2405 111.245 81.0043C110.378 77.7681 112.298 74.4417 115.535 73.5746C118.771 72.7074 122.097 74.6279 122.964 77.8641Z" stroke="#3F3F46" stroke-width="0.808847"/>
<path d="M38.8101 113.811C39.6772 117.048 37.7567 120.374 34.5206 121.241C31.2844 122.108 27.958 120.188 27.0908 116.952C26.2237 113.715 28.1442 110.389 31.3803 109.522C34.6165 108.655 37.9429 110.575 38.8101 113.811Z" stroke="#3F3F46" stroke-width="0.808847"/>
<path d="M51.3101 110.462C52.1772 113.698 50.2567 117.024 47.0206 117.892C43.7844 118.759 40.458 116.838 39.5908 113.602C38.7237 110.366 40.6442 107.039 43.8803 106.172C47.1165 105.305 50.4429 107.226 51.3101 110.462Z" stroke="#3F3F46" stroke-width="0.808847"/>
<path d="M63.812 107.112C64.6792 110.349 62.7587 113.675 59.5225 114.542C56.2863 115.409 52.9599 113.489 52.0928 110.252C51.2256 107.016 53.1461 103.69 56.3823 102.823C59.6185 101.956 62.9449 103.876 63.812 107.112Z" stroke="#3F3F46" stroke-width="0.808847"/>
<path d="M76.312 103.763C77.1792 106.999 75.2587 110.325 72.0225 111.193C68.7863 112.06 65.4599 110.139 64.5928 106.903C63.7256 103.667 65.6461 100.34 68.8823 99.4732C72.1185 98.6061 75.4449 100.527 76.312 103.763Z" stroke="#3F3F46" stroke-width="0.808847"/>
<path d="M88.812 100.413C89.6792 103.649 87.7587 106.976 84.5225 107.843C81.2863 108.71 77.9599 106.79 77.0928 103.553C76.2256 100.317 78.1461 96.9909 81.3823 96.1237C84.6185 95.2566 87.9449 97.1771 88.812 100.413Z" stroke="#3F3F46" stroke-width="0.808847"/>
<path d="M101.312 97.0638C102.179 100.3 100.259 103.626 97.0225 104.494C93.7863 105.361 90.4599 103.44 89.5928 100.204C88.7256 96.9677 90.6461 93.6413 93.8823 92.7742C97.1185 91.9071 100.445 93.8276 101.312 97.0638Z" stroke="#3F3F46" stroke-width="0.808847"/>
<path d="M113.814 93.7143C114.681 96.9505 112.761 100.277 109.524 101.144C106.288 102.011 102.962 100.091 102.095 96.8544C101.228 93.6182 103.148 90.2918 106.384 89.4247C109.62 88.5576 112.947 90.4781 113.814 93.7143Z" stroke="#3F3F46" stroke-width="0.808847"/>
<path d="M126.314 90.3647C127.181 93.6009 125.261 96.9274 122.024 97.7945C118.788 98.6616 115.462 96.7411 114.595 93.5049C113.728 90.2687 115.648 86.9423 118.884 86.0752C122.12 85.208 125.447 87.1285 126.314 90.3647Z" stroke="#3F3F46" stroke-width="0.808847"/>
<path d="M54.6597 122.962C55.5268 126.199 53.6063 129.525 50.3702 130.392C47.134 131.259 43.8076 129.339 42.9404 126.103C42.0733 122.866 43.9938 119.54 47.23 118.673C50.4661 117.806 53.7925 119.726 54.6597 122.962Z" stroke="#3F3F46" stroke-width="0.808847"/>
<path d="M67.1616 119.613C68.0288 122.849 66.1083 126.176 62.8721 127.043C59.6359 127.91 56.3095 125.989 55.4424 122.753C54.5752 119.517 56.4957 116.19 59.7319 115.323C62.9681 114.456 66.2945 116.377 67.1616 119.613Z" stroke="#3F3F46" stroke-width="0.808847"/>
<path d="M79.6616 116.263C80.5288 119.5 78.6083 122.826 75.3721 123.693C72.1359 124.56 68.8095 122.64 67.9424 119.404C67.0752 116.167 68.9957 112.841 72.2319 111.974C75.4681 111.107 78.7945 113.027 79.6616 116.263Z" stroke="#3F3F46" stroke-width="0.808847"/>
<path d="M92.1616 112.914C93.0288 116.15 91.1083 119.477 87.8721 120.344C84.6359 121.211 81.3095 119.29 80.4424 116.054C79.5752 112.818 81.4957 109.491 84.7319 108.624C87.9681 107.757 91.2945 109.678 92.1616 112.914Z" stroke="#3F3F46" stroke-width="0.808847"/>
<path d="M104.662 109.564C105.529 112.801 103.608 116.127 100.372 116.994C97.1359 117.861 93.8095 115.941 92.9424 112.705C92.0752 109.468 93.9957 106.142 97.2319 105.275C100.468 104.408 103.794 106.328 104.662 109.564Z" stroke="#3F3F46" stroke-width="0.808847"/>
<path d="M117.164 106.215C118.031 109.451 116.11 112.777 112.874 113.645C109.638 114.512 106.311 112.591 105.444 109.355C104.577 106.119 106.498 102.792 109.734 101.925C112.97 101.058 116.296 102.979 117.164 106.215Z" stroke="#3F3F46" stroke-width="0.808847"/>
<path d="M129.664 102.865C130.531 106.102 128.61 109.428 125.374 110.295C122.138 111.162 118.811 109.242 117.944 106.006C117.077 102.769 118.998 99.4429 122.234 98.5758C125.47 97.7086 128.796 99.6292 129.664 102.865Z" stroke="#3F3F46" stroke-width="0.808847"/>
<path d="M108.011 122.065C108.878 125.301 106.958 128.628 103.722 129.495C100.486 130.362 97.1591 128.441 96.292 125.205C95.4248 121.969 97.3453 118.643 100.582 117.775C103.818 116.908 107.144 118.829 108.011 122.065Z" stroke="#3F3F46" stroke-width="0.808847"/>
<path d="M120.513 118.715C121.38 121.952 119.46 125.278 116.224 126.145C112.987 127.012 109.661 125.092 108.794 121.856C107.927 118.619 109.847 115.293 113.083 114.426C116.32 113.559 119.646 115.479 120.513 118.715Z" stroke="#3F3F46" stroke-width="0.808847"/>
<path d="M133.013 115.366C133.88 118.602 131.96 121.929 128.724 122.796C125.487 123.663 122.161 121.742 121.294 118.506C120.427 115.27 122.347 111.944 125.583 111.076C128.82 110.209 132.146 112.13 133.013 115.366Z" stroke="#3F3F46" stroke-width="0.808847"/>
</g>
<g clip-path="url(#clip1_1401_4616)">
<path d="M64.6465 107.882C72.0089 105.91 76.378 98.342 74.4052 90.9797C72.4325 83.6173 64.8649 79.2482 57.5025 81.2209C50.1402 83.1936 45.7711 90.7612 47.7439 98.1236C49.7166 105.486 57.2842 109.855 64.6465 107.882Z" fill="#FED44C"/>
<path d="M89.2559 101.288C96.6182 99.3154 100.987 91.7479 99.0146 84.3855C97.0418 77.0232 89.4742 72.654 82.1119 74.6267C74.7496 76.5995 70.3805 84.167 72.3532 91.5294C74.326 98.8917 81.8936 103.261 89.2559 101.288Z" fill="#FED44C"/>
<path d="M75.8519 100.483C84.9132 98.0554 90.2906 88.7415 87.8626 79.6801C85.4346 70.6188 76.1206 65.2413 67.0593 67.6693C57.998 70.0973 52.6206 79.4112 55.0486 88.4726C57.4767 97.534 66.7906 102.911 75.8519 100.483Z" fill="#F2BC36"/>
<path d="M45.1926 79.3318C44.5055 79.9966 43.9691 80.8012 43.6198 81.6911C43.2704 82.5811 43.1163 83.5357 43.1678 84.4904L43.1878 85.2214C43.2607 85.4934 43.2225 85.7832 43.0817 86.027C42.941 86.2708 42.7091 86.4487 42.4371 86.5216C42.1652 86.5945 41.8754 86.5563 41.6315 86.4156C41.3877 86.2748 41.2098 86.0429 41.1369 85.7709L40.8093 85.1224C40.3765 84.2698 39.7657 83.5202 39.0182 82.9241C38.2706 82.328 37.4038 81.8994 36.4764 81.6673C36.2107 81.5955 35.9686 81.4551 35.7743 81.2603C35.5799 81.0655 35.4401 80.823 35.3689 80.5572C35.2977 80.2914 35.2975 80.0116 35.3684 79.7457C35.4393 79.4798 35.5788 79.2372 35.773 79.0422C36.4601 78.3774 36.9965 77.5728 37.3458 76.6828C37.6951 75.7929 37.8493 74.8382 37.7978 73.8835L37.7573 73.158C37.6844 72.8861 37.7225 72.5963 37.8633 72.3525C38.0041 72.1086 38.236 71.9307 38.5079 71.8578C38.7799 71.785 39.0697 71.8231 39.3135 71.9639C39.5573 72.1047 39.7353 72.3365 39.8081 72.6085L40.1358 73.2571C40.5686 74.1096 41.1794 74.8593 41.9269 75.4553C42.6744 76.0514 43.5412 76.48 44.4687 76.7122C44.7349 76.7819 44.9781 76.9204 45.174 77.1136C45.3699 77.3069 45.5116 77.5483 45.5849 77.8135C45.6582 78.0788 45.6605 78.3587 45.5917 78.6251C45.5228 78.8916 45.3852 79.1352 45.1926 79.3318ZM101.116 66.5454C100.429 67.2102 99.8922 68.0147 99.5428 68.9047C99.1935 69.7947 99.0394 70.7493 99.0908 71.704L99.1314 72.4295C99.2043 72.7015 99.1661 72.9912 99.0253 73.2351C98.8845 73.4789 98.6527 73.6568 98.3807 73.7297C98.1087 73.8026 97.819 73.7644 97.5751 73.6237C97.3313 73.4829 97.1534 73.251 97.0805 72.979L96.7529 72.3305C96.3201 71.4779 95.7093 70.7283 94.9618 70.1322C94.2142 69.5361 93.3474 69.1075 92.42 68.8754C92.1543 68.8035 91.9122 68.6632 91.7179 68.4684C91.5235 68.2736 91.3837 68.0311 91.3125 67.7653C91.2413 67.4995 91.2411 67.2197 91.312 66.9538C91.3829 66.6879 91.5224 66.4453 91.7166 66.2503C92.4037 65.5855 92.9401 64.7809 93.2894 63.8909C93.6387 63.0009 93.7929 62.0463 93.7414 61.0916L93.6803 60.3716C93.6075 60.0997 93.6456 59.8099 93.7864 59.566C93.9272 59.3222 94.159 59.1443 94.431 59.0714C94.703 58.9985 94.9927 59.0367 95.2366 59.1775C95.4804 59.3182 95.6583 59.5501 95.7312 59.8221L96.0589 60.4707C96.4916 61.3232 97.1024 62.0728 97.85 62.6689C98.5975 63.265 99.4643 63.6936 100.392 63.9257C100.658 63.9955 100.901 64.1339 101.097 64.3272C101.293 64.5205 101.435 64.7619 101.508 65.0271C101.581 65.2924 101.584 65.5722 101.515 65.8387C101.446 66.1051 101.308 66.3488 101.116 66.5454Z" fill="#FED44C"/>
<path d="M74.7532 96.3818C81.5492 94.5608 85.5822 87.5753 83.7612 80.7793C81.9402 73.9833 74.9547 69.9502 68.1587 71.7712C61.3628 73.5922 57.3297 80.5777 59.1507 87.3737C60.9717 94.1697 67.9572 98.2028 74.7532 96.3818Z" fill="#FED44C"/>
<path d="M73.2691 84.6895L67.6292 86.2007C67.3573 86.2736 67.0675 86.2355 66.8236 86.0947C66.5798 85.9539 66.4019 85.722 66.329 85.4501L64.4056 78.272C64.3328 78 64.3709 77.7103 64.5117 77.4664C64.6525 77.2226 64.8843 77.0447 65.1563 76.9718L70.7962 75.4606C72.02 75.1327 73.324 75.3043 74.4213 75.9378C75.5185 76.5713 76.3192 77.6148 76.6471 78.8386C76.975 80.0625 76.8034 81.3664 76.1699 82.4637C75.5364 83.561 74.4929 84.3616 73.2691 84.6895ZM68.1051 83.8751L72.7196 82.6387C73.3995 82.4565 73.9792 82.0117 74.3311 81.4021C74.6831 80.7925 74.7784 80.0681 74.5962 79.3881C74.4141 78.7082 73.9692 78.1285 73.3597 77.7766C72.7501 77.4247 72.0256 77.3293 71.3457 77.5115L66.7313 78.7479L68.1051 83.8751Z" fill="#F3F3F3"/>
<path d="M76.2186 91.593L69.5533 93.379C69.2813 93.4519 68.9916 93.4137 68.7477 93.2729C68.5039 93.1322 68.326 92.9003 68.2531 92.6283L66.3297 85.4502C66.2568 85.1783 66.295 84.8885 66.4358 84.6447C66.5765 84.4008 66.8084 84.2229 67.0804 84.15L73.7457 82.3641C74.9696 82.0361 76.2735 82.2078 77.3708 82.8413C78.468 83.4748 79.2687 84.5183 79.5966 85.7421C79.9246 86.9659 79.7529 88.2699 79.1194 89.3672C78.4859 90.4644 77.4425 91.2651 76.2186 91.593ZM70.0292 91.0533L75.6691 89.5421C76.349 89.36 76.9287 88.9151 77.2806 88.3056C77.6326 87.696 77.728 86.9715 77.5458 86.2916C77.3636 85.6117 76.9188 85.032 76.3092 84.6801C75.6996 84.3281 74.9752 84.2328 74.2953 84.4149L68.6554 85.9261L70.0292 91.0533ZM67.7574 78.4733C67.4855 78.5462 67.1957 78.508 66.9518 78.3672C66.708 78.2265 66.5301 77.9946 66.4572 77.7226L65.9077 75.6717C65.8348 75.3998 65.8729 75.11 66.0137 74.8662C66.1545 74.6223 66.3864 74.4444 66.6583 74.3715C66.9303 74.2987 67.2201 74.3368 67.4639 74.4776C67.7077 74.6184 67.8857 74.8502 67.9585 75.1222L68.5081 77.1731C68.581 77.4451 68.5428 77.7348 68.402 77.9787C68.2613 78.2225 68.0294 78.4004 67.7574 78.4733ZM71.8592 77.3742C71.5872 77.4471 71.2974 77.409 71.0536 77.2682C70.8098 77.1274 70.6318 76.8955 70.559 76.6236L70.0094 74.5727C69.9365 74.3007 69.9747 74.0109 70.1155 73.7671C70.2562 73.5233 70.4881 73.3453 70.7601 73.2725C71.032 73.1996 71.3218 73.2378 71.5657 73.3785C71.8095 73.5193 71.9874 73.7512 72.0603 74.0232L72.6098 76.074C72.6827 76.346 72.6446 76.6358 72.5038 76.8796C72.363 77.1234 72.1311 77.3014 71.8592 77.3742Z" fill="#F3F3F3"/>
<path d="M76.2548 93.7809C75.9829 93.8538 75.6931 93.8157 75.4493 93.6749C75.2054 93.5341 75.0275 93.3022 74.9546 93.0303L74.4051 90.9794C74.3322 90.7074 74.3704 90.4176 74.5111 90.1738C74.6519 89.93 74.8838 89.752 75.1558 89.6792C75.4277 89.6063 75.7175 89.6445 75.9613 89.7852C76.2052 89.926 76.3831 90.1579 76.456 90.4299L77.0055 92.4807C77.0784 92.7527 77.0402 93.0425 76.8995 93.2863C76.7587 93.5301 76.5268 93.7081 76.2548 93.7809ZM72.1531 94.88C71.8811 94.9529 71.5914 94.9147 71.3475 94.7739C71.1037 94.6332 70.9258 94.4013 70.8529 94.1293L70.3034 92.0784C70.2305 91.8065 70.2686 91.5167 70.4094 91.2729C70.5502 91.029 70.7821 90.8511 71.054 90.7782C71.326 90.7054 71.6158 90.7435 71.8596 90.8843C72.1034 91.0251 72.2814 91.2569 72.3542 91.5289L72.9038 93.5798C72.9766 93.8518 72.9385 94.1415 72.7977 94.3854C72.6569 94.6292 72.4251 94.8071 72.1531 94.88ZM65.7059 79.0225L63.6551 79.572C63.3831 79.6449 63.0933 79.6067 62.8495 79.466C62.6056 79.3252 62.4277 79.0933 62.3548 78.8213C62.282 78.5494 62.3201 78.2596 62.4609 78.0158C62.6017 77.7719 62.8336 77.594 63.1055 77.5211L65.1564 76.9716C65.4283 76.8987 65.7181 76.9369 65.962 77.0777C66.2058 77.2184 66.3837 77.4503 66.4566 77.7223C66.5295 77.9942 66.4913 78.284 66.3505 78.5279C66.2098 78.7717 65.9779 78.9496 65.7059 79.0225Z" fill="#F3F3F3"/>
<path d="M69.5536 93.3787L67.5027 93.9283C67.2307 94.0011 66.941 93.963 66.6971 93.8222C66.4533 93.6814 66.2754 93.4496 66.2025 93.1776C66.1296 92.9056 66.1678 92.6159 66.3086 92.372C66.4493 92.1282 66.6812 91.9503 66.9532 91.8774L69.004 91.3279C69.276 91.255 69.5658 91.2931 69.8096 91.4339C70.0534 91.5747 70.2314 91.8066 70.3042 92.0785C70.3771 92.3505 70.339 92.6403 70.1982 92.8841C70.0574 93.128 69.8255 93.3059 69.5536 93.3787Z" fill="#F3F3F3"/>
<path d="M97.9166 80.2835L44.5939 94.5713C42.8949 95.0265 41.8866 96.7729 42.3419 98.4719L52.2336 135.388C52.6888 137.087 54.4352 138.095 56.1342 137.64L109.457 123.352C111.156 122.897 112.164 121.15 111.709 119.451L101.817 82.5355C101.362 80.8365 99.6156 79.8283 97.9166 80.2835Z" fill="#1770D0"/>
<path d="M63.4566 113.697L57.8167 115.208C57.5448 115.281 57.255 115.242 57.0111 115.102C56.7673 114.961 56.5894 114.729 56.5165 114.457L54.5931 107.279C54.5203 107.007 54.5584 106.717 54.6992 106.473C54.84 106.23 55.0718 106.052 55.3438 105.979L60.9837 104.468C62.2075 104.14 63.5115 104.311 64.6088 104.945C65.706 105.578 66.5067 106.622 66.8346 107.846C67.1625 109.069 66.9909 110.373 66.3574 111.471C65.7239 112.568 64.6804 113.369 63.4566 113.697ZM58.2926 112.882L62.9071 111.646C63.587 111.463 64.1667 111.019 64.5186 110.409C64.8706 109.8 64.9659 109.075 64.7837 108.395C64.6016 107.715 64.1567 107.136 63.5472 106.784C62.9376 106.432 62.2131 106.336 61.5332 106.518L56.9188 107.755L58.2926 112.882Z" fill="white"/>
<path d="M66.4061 120.6L59.7408 122.386C59.4688 122.459 59.1791 122.421 58.9352 122.28C58.6914 122.139 58.5135 121.907 58.4406 121.635L56.5172 114.457C56.4443 114.185 56.4825 113.895 56.6233 113.652C56.764 113.408 56.9959 113.23 57.2679 113.157L63.9332 111.371C65.1571 111.043 66.461 111.215 67.5583 111.848C68.6555 112.482 69.4562 113.525 69.7841 114.749C70.1121 115.973 69.9404 117.277 69.3069 118.374C68.6734 119.471 67.63 120.272 66.4061 120.6ZM60.2167 120.06L65.8566 118.549C66.5365 118.367 67.1162 117.922 67.4681 117.312C67.8201 116.703 67.9155 115.978 67.7333 115.299C67.5511 114.619 67.1063 114.039 66.4967 113.687C65.8871 113.335 65.1627 113.24 64.4828 113.422L58.8429 114.933L60.2167 120.06ZM57.9449 107.48C57.673 107.553 57.3832 107.515 57.1393 107.374C56.8955 107.233 56.7176 107.001 56.6447 106.73L56.0952 104.679C56.0223 104.407 56.0604 104.117 56.2012 103.873C56.342 103.629 56.5739 103.451 56.8458 103.378C57.1178 103.306 57.4076 103.344 57.6514 103.484C57.8952 103.625 58.0732 103.857 58.146 104.129L58.6956 106.18C58.7685 106.452 58.7303 106.742 58.5895 106.986C58.4488 107.229 58.2169 107.407 57.9449 107.48ZM62.0467 106.381C61.7747 106.454 61.4849 106.416 61.2411 106.275C60.9973 106.134 60.8193 105.902 60.7465 105.63L60.1969 103.58C60.124 103.308 60.1622 103.018 60.303 102.774C60.4437 102.53 60.6756 102.352 60.9476 102.279C61.2195 102.207 61.5093 102.245 61.7532 102.385C61.997 102.526 62.1749 102.758 62.2478 103.03L62.7973 105.081C62.8702 105.353 62.8321 105.643 62.6913 105.887C62.5505 106.13 62.3186 106.308 62.0467 106.381Z" fill="white"/>
<path d="M66.4423 122.788C66.1704 122.861 65.8806 122.823 65.6368 122.682C65.3929 122.541 65.215 122.309 65.1421 122.037L64.5926 119.986C64.5197 119.714 64.5579 119.425 64.6986 119.181C64.8394 118.937 65.0713 118.759 65.3433 118.686C65.6152 118.613 65.905 118.651 66.1488 118.792C66.3927 118.933 66.5706 119.165 66.6435 119.437L67.193 121.488C67.2659 121.76 67.2277 122.049 67.087 122.293C66.9462 122.537 66.7143 122.715 66.4423 122.788ZM62.3406 123.887C62.0686 123.96 61.7789 123.922 61.535 123.781C61.2912 123.64 61.1133 123.408 61.0404 123.136L60.4909 121.085C60.418 120.813 60.4561 120.524 60.5969 120.28C60.7377 120.036 60.9696 119.858 61.2415 119.785C61.5135 119.712 61.8033 119.751 62.0471 119.891C62.2909 120.032 62.4689 120.264 62.5417 120.536L63.0913 122.587C63.1641 122.859 63.126 123.149 62.9852 123.392C62.8444 123.636 62.6126 123.814 62.3406 123.887ZM55.8934 108.029L53.8426 108.579C53.5706 108.652 53.2808 108.614 53.037 108.473C52.7931 108.332 52.6152 108.1 52.5423 107.828C52.4695 107.556 52.5076 107.267 52.6484 107.023C52.7892 106.779 53.0211 106.601 53.293 106.528L55.3439 105.979C55.6158 105.906 55.9056 105.944 56.1495 106.085C56.3933 106.225 56.5712 106.457 56.6441 106.729C56.717 107.001 56.6788 107.291 56.538 107.535C56.3973 107.779 56.1654 107.957 55.8934 108.029Z" fill="white"/>
<path d="M98.7072 111.945L108.962 109.197C109.505 109.051 109.969 108.695 110.251 108.208C110.532 107.72 110.609 107.14 110.463 106.596L107.166 94.2912C107.02 93.7473 106.664 93.2835 106.176 93.002C105.689 92.7204 105.109 92.6441 104.565 92.7899L94.3109 95.5375C92.1352 96.1205 90.2802 97.5439 89.154 99.4946C88.0278 101.445 87.7226 103.763 88.3056 105.939C88.8886 108.115 90.312 109.97 92.2626 111.096C94.2133 112.222 96.5315 112.528 98.7072 111.945Z" fill="#5C97D6"/>
<path d="M96.307 107.092C98.006 106.637 99.0142 104.891 98.559 103.192C98.1037 101.493 96.3573 100.485 94.6583 100.94C92.9593 101.395 91.9511 103.141 92.4063 104.84C92.8616 106.539 94.608 107.548 96.307 107.092Z" fill="#F3F3F3"/>
<path d="M49.0458 98.8738L46.9949 99.4234C46.7229 99.4962 46.4332 99.4581 46.1893 99.3173C45.9455 99.1765 45.7676 98.9447 45.6947 98.6727C45.6218 98.4007 45.66 98.1109 45.8007 97.8671C45.9415 97.6233 46.1734 97.4454 46.4454 97.3725L48.4962 96.823C48.7682 96.7501 49.058 96.7882 49.3018 96.929C49.5456 97.0698 49.7236 97.3017 49.7964 97.5736C49.8693 97.8456 49.8312 98.1354 49.6904 98.3792C49.5496 98.623 49.3177 98.801 49.0458 98.8738ZM57.2493 96.6757L55.1984 97.2252C54.9264 97.2981 54.6366 97.26 54.3928 97.1192C54.149 96.9784 53.9711 96.7465 53.8982 96.4746C53.8253 96.2026 53.8635 95.9128 54.0042 95.669C54.145 95.4252 54.3769 95.2472 54.6488 95.1744L56.6997 94.6248C56.9717 94.552 57.2615 94.5901 57.5053 94.7309C57.7491 94.8717 57.9271 95.1035 57.9999 95.3755C58.0728 95.6475 58.0346 95.9372 57.8939 96.1811C57.7531 96.4249 57.5212 96.6028 57.2493 96.6757ZM65.4527 94.4776L63.4019 95.0271C63.1299 95.1 62.8401 95.0618 62.5963 94.9211C62.3525 94.7803 62.1745 94.5484 62.1017 94.2765C62.0288 94.0045 62.0669 93.7147 62.2077 93.4709C62.3485 93.227 62.5804 93.0491 62.8523 92.9762L64.9032 92.4267C65.1752 92.3538 65.4649 92.392 65.7088 92.5328C65.9526 92.6736 66.1305 92.9054 66.2034 93.1774C66.2763 93.4494 66.2381 93.7391 66.0974 93.983C65.9566 94.2268 65.7247 94.4047 65.4527 94.4776ZM73.6562 92.2795L71.6054 92.829C71.3334 92.9019 71.0436 92.8637 70.7998 92.723C70.556 92.5822 70.378 92.3503 70.3052 92.0783C70.2323 91.8064 70.2704 91.5166 70.4112 91.2728C70.552 91.0289 70.7839 90.851 71.0558 90.7781L73.1067 90.2286C73.3787 90.1557 73.6684 90.1939 73.9123 90.3347C74.1561 90.4754 74.334 90.7073 74.4069 90.9793C74.4798 91.2512 74.4416 91.541 74.3009 91.7848C74.1601 92.0287 73.9282 92.2066 73.6562 92.2795ZM81.8597 90.0814L79.8089 90.6309C79.5369 90.7038 79.2471 90.6656 79.0033 90.5248C78.7594 90.3841 78.5815 90.1522 78.5086 89.8802C78.4358 89.6083 78.4739 89.3185 78.6147 89.0746C78.7555 88.8308 78.9874 88.6529 79.2593 88.58L81.3102 88.0305C81.5821 87.9576 81.8719 87.9958 82.1158 88.1365C82.3596 88.2773 82.5375 88.5092 82.6104 88.7812C82.6833 89.0531 82.6451 89.3429 82.5043 89.5867C82.3636 89.8306 82.1317 90.0085 81.8597 90.0814ZM90.0632 87.8832L88.0123 88.4328C87.7404 88.5056 87.4506 88.4675 87.2068 88.3267C86.9629 88.1859 86.785 87.9541 86.7121 87.6821C86.6393 87.4101 86.6774 87.1204 86.8182 86.8765C86.959 86.6327 87.1908 86.4548 87.4628 86.3819L89.5137 85.8324C89.7856 85.7595 90.0754 85.7976 90.3192 85.9384C90.5631 86.0792 90.741 86.3111 90.8139 86.583C90.8868 86.855 90.8486 87.1448 90.7078 87.3886C90.5671 87.6324 90.3352 87.8104 90.0632 87.8832ZM98.2667 85.6851L96.2158 86.2347C95.9439 86.3075 95.6541 86.2694 95.4103 86.1286C95.1664 85.9878 94.9885 85.7559 94.9156 85.484C94.8428 85.212 94.8809 84.9222 95.0217 84.6784C95.1625 84.4346 95.3943 84.2566 95.6663 84.1838L97.7172 83.6342C97.9891 83.5614 98.2789 83.5995 98.5227 83.7403C98.7666 83.8811 98.9445 84.113 99.0174 84.3849C99.0902 84.6569 99.0521 84.9467 98.9113 85.1905C98.7705 85.4343 98.5387 85.6123 98.2667 85.6851ZM58.3879 133.739L56.337 134.288C56.0651 134.361 55.7753 134.323 55.5315 134.182C55.2876 134.041 55.1097 133.81 55.0368 133.538C54.964 133.266 55.0021 132.976 55.1429 132.732C55.2837 132.488 55.5155 132.31 55.7875 132.237L57.8384 131.688C58.1103 131.615 58.4001 131.653 58.6439 131.794C58.8878 131.935 59.0657 132.167 59.1386 132.439C59.2114 132.711 59.1733 133 59.0325 133.244C58.8917 133.488 58.6599 133.666 58.3879 133.739ZM66.5914 131.541L64.5405 132.09C64.2686 132.163 63.9788 132.125 63.735 131.984C63.4911 131.843 63.3132 131.611 63.2403 131.34C63.1674 131.068 63.2056 130.778 63.3464 130.534C63.4871 130.29 63.719 130.112 63.991 130.039L66.0419 129.49C66.3138 129.417 66.6036 129.455 66.8474 129.596C67.0913 129.737 67.2692 129.969 67.3421 130.24C67.4149 130.512 67.3768 130.802 67.236 131.046C67.0952 131.29 66.8634 131.468 66.5914 131.541ZM74.7949 129.343L72.744 129.892C72.472 129.965 72.1823 129.927 71.9384 129.786C71.6946 129.645 71.5167 129.413 71.4438 129.141C71.3709 128.869 71.4091 128.58 71.5499 128.336C71.6906 128.092 71.9225 127.914 72.1945 127.841L74.2453 127.292C74.5173 127.219 74.8071 127.257 75.0509 127.398C75.2948 127.539 75.4727 127.77 75.5456 128.042C75.6184 128.314 75.5803 128.604 75.4395 128.848C75.2987 129.092 75.0668 129.27 74.7949 129.343ZM82.9984 127.144L80.9475 127.694C80.6755 127.767 80.3858 127.729 80.1419 127.588C79.8981 127.447 79.7202 127.215 79.6473 126.943C79.5744 126.671 79.6126 126.382 79.7533 126.138C79.8941 125.894 80.126 125.716 80.398 125.643L82.4488 125.094C82.7208 125.021 83.0106 125.059 83.2544 125.2C83.4982 125.34 83.6762 125.572 83.749 125.844C83.8219 126.116 83.7838 126.406 83.643 126.65C83.5022 126.894 83.2703 127.072 82.9984 127.144ZM91.2019 124.946L89.151 125.496C88.879 125.569 88.5893 125.531 88.3454 125.39C88.1016 125.249 87.9237 125.017 87.8508 124.745C87.7779 124.473 87.8161 124.183 87.9568 123.94C88.0976 123.696 88.3295 123.518 88.6015 123.445L90.6523 122.895C90.9243 122.823 91.2141 122.861 91.4579 123.001C91.7017 123.142 91.8797 123.374 91.9525 123.646C92.0254 123.918 91.9873 124.208 91.8465 124.452C91.7057 124.696 91.4738 124.873 91.2019 124.946ZM99.4054 122.748L97.3545 123.298C97.0825 123.371 96.7927 123.332 96.5489 123.192C96.3051 123.051 96.1271 122.819 96.0543 122.547C95.9814 122.275 96.0195 121.985 96.1603 121.741C96.3011 121.498 96.533 121.32 96.8049 121.247L98.8558 120.697C99.1278 120.624 99.4175 120.663 99.6614 120.803C99.9052 120.944 100.083 121.176 100.156 121.448C100.229 121.72 100.191 122.01 100.05 122.254C99.9092 122.497 99.6773 122.675 99.4054 122.748ZM107.609 120.55L105.558 121.1C105.286 121.172 104.996 121.134 104.752 120.994C104.509 120.853 104.331 120.621 104.258 120.349C104.185 120.077 104.223 119.787 104.364 119.543C104.505 119.3 104.736 119.122 105.008 119.049L107.059 118.499C107.331 118.426 107.621 118.464 107.865 118.605C108.109 118.746 108.287 118.978 108.36 119.25C108.432 119.522 108.394 119.812 108.253 120.055C108.113 120.299 107.881 120.477 107.609 120.55Z" fill="#5C97D6"/>
</g>
<rect x="-0.990633" y="-0.571941" width="118.091" height="146.163" rx="8.89732" transform="matrix(0.965926 -0.258819 0.258822 0.965925 -0.385724 40.2699)" stroke="#3F3F46" stroke-width="1.61769"/>
<rect x="-0.765982" y="-1.01649" width="131.399" height="177.3" rx="9.89997" transform="matrix(0.990268 0.139173 -0.139175 0.990268 125.777 -0.903289)" fill="#18181B"/>
<path d="M132.737 10.7166L134.029 13.6479L134.079 13.6551L136.129 11.1934L137.054 11.3233L134.56 14.2777L136.143 17.805L135.218 17.6751L133.919 14.7944L133.869 14.7873L131.826 17.1983L130.902 17.0684L133.446 14.1211L131.812 10.5867L132.737 10.7166ZM136.807 19.7573L137.746 13.0731L138.468 13.1745L138.359 13.9467L138.448 13.9592C138.514 13.8825 138.606 13.7855 138.721 13.6684C138.839 13.5494 138.997 13.4511 139.195 13.3735C139.395 13.2941 139.654 13.2766 139.97 13.3211C140.38 13.3786 140.726 13.5317 141.01 13.7802C141.293 14.0288 141.496 14.3531 141.618 14.7533C141.741 15.1535 141.766 15.6089 141.694 16.1195C141.622 16.6343 141.472 17.0683 141.243 17.4213C141.016 17.7723 140.732 18.0294 140.393 18.1926C140.054 18.3536 139.682 18.4057 139.277 18.3488C138.964 18.3049 138.722 18.218 138.548 18.0883C138.375 17.9564 138.248 17.8169 138.165 17.6697C138.083 17.5204 138.02 17.3976 137.978 17.3013L137.915 17.2924L137.554 19.8623L136.807 19.7573ZM138.139 15.6069C138.087 15.974 138.095 16.3055 138.164 16.6012C138.232 16.8948 138.358 17.1353 138.543 17.3226C138.728 17.5078 138.97 17.6215 139.27 17.6636C139.582 17.7075 139.854 17.6618 140.086 17.5266C140.321 17.3895 140.51 17.1881 140.655 16.9223C140.803 16.6547 140.9 16.3479 140.949 16.0019C140.997 15.6601 140.988 15.3446 140.921 15.0555C140.856 14.7646 140.73 14.5241 140.541 14.3341C140.355 14.1423 140.104 14.0241 139.787 13.9796C139.484 13.9369 139.217 13.9781 138.989 14.103C138.761 14.2259 138.575 14.417 138.431 14.6765C138.287 14.9339 138.19 15.244 138.139 15.6069ZM143.908 19.0126C143.6 18.9693 143.329 18.872 143.094 18.7207C142.86 18.5672 142.684 18.3694 142.568 18.1271C142.451 17.8826 142.415 17.6022 142.46 17.2857C142.499 17.0072 142.586 16.7891 142.72 16.6315C142.854 16.4718 143.02 16.3553 143.217 16.2819C143.415 16.2086 143.628 16.1632 143.856 16.1458C144.087 16.1266 144.317 16.1181 144.547 16.1203C144.848 16.1238 145.091 16.129 145.278 16.1358C145.466 16.1408 145.606 16.1249 145.697 16.0883C145.791 16.0519 145.846 15.9736 145.863 15.8533L145.866 15.828C145.91 15.5157 145.859 15.2611 145.712 15.064C145.568 14.8673 145.324 14.7448 144.98 14.6964C144.623 14.6463 144.333 14.6851 144.108 14.8128C143.884 14.9404 143.718 15.0871 143.611 15.2528L142.937 14.8999C143.105 14.6223 143.306 14.4161 143.541 14.2812C143.777 14.1444 144.025 14.061 144.286 14.0309C144.548 13.9989 144.802 14.0002 145.047 14.0346C145.203 14.0565 145.38 14.1007 145.577 14.1672C145.777 14.2318 145.963 14.3344 146.137 14.475C146.313 14.616 146.448 14.8103 146.543 15.0581C146.637 15.3059 146.657 15.6228 146.603 16.0089L146.152 19.2118L145.406 19.1068L145.498 18.4485L145.46 18.4432C145.395 18.5416 145.294 18.6426 145.159 18.7463C145.024 18.8499 144.853 18.9302 144.645 18.987C144.436 19.0438 144.191 19.0524 143.908 19.0126ZM144.117 18.3577C144.412 18.3992 144.669 18.3761 144.888 18.2886C145.109 18.2013 145.284 18.0731 145.413 17.9041C145.544 17.7354 145.624 17.5497 145.653 17.3472L145.749 16.6635C145.712 16.6971 145.637 16.7221 145.525 16.7386C145.416 16.7533 145.29 16.7625 145.147 16.7661C145.007 16.768 144.87 16.7681 144.737 16.7666C144.606 16.7633 144.5 16.7613 144.418 16.7606C144.221 16.7586 144.034 16.7742 143.857 16.8075C143.682 16.8389 143.536 16.9033 143.417 17.0006C143.3 17.0961 143.228 17.2388 143.201 17.4287C143.165 17.6882 143.233 17.8979 143.407 18.0578C143.582 18.2159 143.819 18.3159 144.117 18.3577ZM148.674 16.584L148.263 19.5084L147.516 19.4034L148.199 14.5421L148.921 14.6435L148.814 15.4031L148.877 15.412C149.026 15.1812 149.227 15.0071 149.48 14.8899C149.733 14.7706 150.043 14.7368 150.411 14.7884C150.74 14.8347 151.018 14.9426 151.246 15.1124C151.474 15.28 151.638 15.5095 151.737 15.801C151.836 16.0903 151.857 16.4418 151.798 16.8553L151.364 19.9443L150.617 19.8393L151.044 16.801C151.098 16.4191 151.041 16.1077 150.872 15.8667C150.704 15.6236 150.447 15.4777 150.101 15.4291C149.863 15.3956 149.642 15.4173 149.44 15.4943C149.24 15.5716 149.072 15.7019 148.936 15.8851C148.801 16.0683 148.713 16.3013 148.674 16.584ZM154.551 20.4954C154.145 20.4384 153.802 20.2858 153.521 20.0376C153.24 19.7872 153.038 19.4619 152.916 19.0618C152.794 18.6595 152.769 18.2009 152.841 17.6861C152.913 17.1755 153.063 16.7447 153.291 16.3937C153.518 16.0428 153.803 15.7869 154.144 15.6261C154.485 15.4654 154.86 15.4137 155.27 15.4713C155.586 15.5158 155.829 15.6036 155.997 15.7349C156.169 15.8644 156.293 16.0024 156.372 16.149C156.452 16.2938 156.514 16.4122 156.557 16.5043L156.621 16.5132L156.957 14.1205L157.704 14.2255L156.793 20.7072L156.071 20.6058L156.176 19.8589L156.088 19.8464C156.02 19.9274 155.927 20.0282 155.806 20.149C155.686 20.2677 155.525 20.3666 155.322 20.4457C155.12 20.5227 154.863 20.5393 154.551 20.4954ZM154.746 19.8386C155.046 19.8808 155.31 19.8383 155.539 19.7112C155.768 19.582 155.955 19.3857 156.102 19.1223C156.249 18.8568 156.349 18.5405 156.4 18.1734C156.451 17.8105 156.443 17.4855 156.376 17.1985C156.309 16.9094 156.183 16.6743 155.997 16.4934C155.812 16.3103 155.568 16.1974 155.264 16.1547C154.947 16.1102 154.672 16.1544 154.438 16.2872C154.207 16.4182 154.019 16.6145 153.875 16.876C153.733 17.1358 153.638 17.4366 153.59 17.7784C153.541 18.1244 153.55 18.4462 153.615 18.7438C153.684 19.0395 153.81 19.2854 153.996 19.4815C154.184 19.6757 154.434 19.7948 154.746 19.8386ZM159.657 14.4999L160.949 17.4313L160.999 17.4384L163.049 14.9768L163.974 15.1066L161.48 18.0611L163.063 21.5884L162.138 21.4585L160.839 18.5778L160.789 18.5707L158.746 20.9817L157.821 20.8518L160.366 17.9045L158.732 14.3701L159.657 14.4999Z" fill="#E4E4E7"/>
<g opacity="0.6">
<path d="M142.416 33.6321C141.897 37.3237 138.484 39.8958 134.792 39.3769C131.1 38.8581 128.528 35.4449 129.047 31.7532C129.566 28.0616 132.979 25.4895 136.671 26.0083C140.362 26.5272 142.934 29.9404 142.416 33.6321Z" stroke="#3F3F46" stroke-width="0.899998"/>
<path d="M156.675 35.6361C156.157 39.3278 152.743 41.8999 149.052 41.381C145.36 40.8622 142.788 37.449 143.307 33.7573C143.826 30.0657 147.239 27.4936 150.931 28.0124C154.622 28.5312 157.194 31.9445 156.675 35.6361Z" stroke="#3F3F46" stroke-width="0.899998"/>
<path d="M170.935 37.6402C170.416 41.3319 167.003 43.9039 163.311 43.3851C159.62 42.8663 157.048 39.453 157.567 35.7614C158.085 32.0698 161.499 29.4977 165.19 30.0165C168.882 30.5353 171.454 33.9486 170.935 37.6402Z" stroke="#3F3F46" stroke-width="0.899998"/>
<path d="M185.195 39.6443C184.676 43.3359 181.263 45.908 177.571 45.3892C173.88 44.8704 171.308 41.4571 171.826 37.7655C172.345 34.0738 175.758 31.5017 179.45 32.0206C183.142 32.5394 185.714 35.9526 185.195 39.6443Z" stroke="#3F3F46" stroke-width="0.899998"/>
<path d="M199.455 41.6484C198.936 45.34 195.523 47.9121 191.831 47.3933C188.139 46.8744 185.567 43.4612 186.086 39.7696C186.605 36.0779 190.018 33.5058 193.71 34.0247C197.401 34.5435 199.974 37.9567 199.455 41.6484Z" stroke="#3F3F46" stroke-width="0.899998"/>
<path d="M213.714 43.6525C213.196 47.3441 209.782 49.9162 206.091 49.3974C202.399 48.8785 199.827 45.4653 200.346 41.7736C200.865 38.082 204.278 35.5099 207.97 36.0287C211.661 36.5476 214.233 39.9608 213.714 43.6525Z" stroke="#3F3F46" stroke-width="0.899998"/>
<path d="M227.974 45.6566C227.455 49.3482 224.042 51.9203 220.351 51.4015C216.659 50.8826 214.087 47.4694 214.606 43.7777C215.125 40.0861 218.538 37.514 222.229 38.0328C225.921 38.5517 228.493 41.9649 227.974 45.6566Z" stroke="#3F3F46" stroke-width="0.899998"/>
<path d="M242.234 47.6606C241.715 51.3523 238.302 53.9243 234.61 53.4055C230.919 52.8867 228.347 49.4734 228.865 45.7818C229.384 42.0901 232.798 39.5181 236.489 40.0369C240.181 40.5557 242.753 43.969 242.234 47.6606Z" stroke="#3F3F46" stroke-width="0.899998"/>
<path d="M140.412 47.8919C139.893 51.5836 136.48 54.1556 132.788 53.6368C129.096 53.118 126.524 49.7047 127.043 46.0131C127.562 42.3214 130.975 39.7494 134.667 40.2682C138.358 40.787 140.931 44.2003 140.412 47.8919Z" stroke="#3F3F46" stroke-width="0.899998"/>
<path d="M154.671 49.896C154.153 53.5876 150.739 56.1597 147.048 55.6409C143.356 55.1221 140.784 51.7088 141.303 48.0172C141.822 44.3255 145.235 41.7535 148.927 42.2723C152.618 42.7911 155.19 46.2044 154.671 49.896Z" stroke="#3F3F46" stroke-width="0.899998"/>
<path d="M168.931 51.9001C168.412 55.5917 164.999 58.1638 161.308 57.645C157.616 57.1261 155.044 53.7129 155.563 50.0212C156.082 46.3296 159.495 43.7575 163.186 44.2763C166.878 44.7952 169.45 48.2084 168.931 51.9001Z" stroke="#3F3F46" stroke-width="0.899998"/>
<path d="M183.191 53.9041C182.672 57.5958 179.259 60.1679 175.567 59.649C171.876 59.1302 169.304 55.717 169.822 52.0253C170.341 48.3337 173.755 45.7616 177.446 46.2804C181.138 46.7992 183.71 50.2125 183.191 53.9041Z" stroke="#3F3F46" stroke-width="0.899998"/>
<path d="M197.451 55.9082C196.932 59.5999 193.519 62.172 189.827 61.6531C186.135 61.1343 183.563 57.7211 184.082 54.0294C184.601 50.3378 188.014 47.7657 191.706 48.2845C195.398 48.8033 197.97 52.2166 197.451 55.9082Z" stroke="#3F3F46" stroke-width="0.899998"/>
<path d="M211.711 57.9123C211.192 61.604 207.778 64.176 204.087 63.6572C200.395 63.1384 197.823 59.7251 198.342 56.0335C198.861 52.3419 202.274 49.7698 205.966 50.2886C209.657 50.8074 212.229 54.2207 211.711 57.9123Z" stroke="#3F3F46" stroke-width="0.899998"/>
<path d="M225.97 59.9164C225.451 63.6081 222.038 66.1801 218.347 65.6613C214.655 65.1425 212.083 61.7292 212.602 58.0376C213.121 54.3459 216.534 51.7739 220.225 52.2927C223.917 52.8115 226.489 56.2248 225.97 59.9164Z" stroke="#3F3F46" stroke-width="0.899998"/>
<path d="M240.23 61.9205C239.711 65.6121 236.298 68.1842 232.606 67.6654C228.915 67.1465 226.343 63.7333 226.862 60.0416C227.38 56.35 230.794 53.7779 234.485 54.2968C238.177 54.8156 240.749 58.2288 240.23 61.9205Z" stroke="#3F3F46" stroke-width="0.899998"/>
<path d="M138.408 62.1518C137.889 65.8434 134.476 68.4155 130.784 67.8967C127.092 67.3778 124.52 63.9646 125.039 60.2729C125.558 56.5813 128.971 54.0092 132.663 54.528C136.355 55.0469 138.927 58.4601 138.408 62.1518Z" stroke="#3F3F46" stroke-width="0.899998"/>
<path d="M152.668 64.1559C152.149 67.8475 148.735 70.4196 145.044 69.9007C141.352 69.3819 138.78 65.9687 139.299 62.277C139.818 58.5854 143.231 56.0133 146.923 56.5321C150.614 57.051 153.186 60.4642 152.668 64.1559Z" stroke="#3F3F46" stroke-width="0.899998"/>
<path d="M166.927 66.1599C166.409 69.8516 162.995 72.4237 159.304 71.9048C155.612 71.386 153.04 67.9728 153.559 64.2811C154.078 60.5895 157.491 58.0174 161.182 58.5362C164.874 59.055 167.446 62.4683 166.927 66.1599Z" stroke="#3F3F46" stroke-width="0.899998"/>
<path d="M181.187 68.164C180.668 71.8556 177.255 74.4277 173.563 73.9089C169.872 73.3901 167.3 69.9768 167.819 66.2852C168.337 62.5935 171.751 60.0215 175.442 60.5403C179.134 61.0591 181.706 64.4724 181.187 68.164Z" stroke="#3F3F46" stroke-width="0.899998"/>
<path d="M195.447 70.1681C194.928 73.8597 191.515 76.4318 187.823 75.913C184.132 75.3942 181.559 71.9809 182.078 68.2893C182.597 64.5976 186.01 62.0255 189.702 62.5444C193.394 63.0632 195.966 66.4764 195.447 70.1681Z" stroke="#3F3F46" stroke-width="0.899998"/>
<path d="M209.707 72.1722C209.188 75.8638 205.775 78.4359 202.083 77.9171C198.391 77.3983 195.819 73.985 196.338 70.2934C196.857 66.6017 200.27 64.0296 203.962 64.5485C207.653 65.0673 210.225 68.4805 209.707 72.1722Z" stroke="#3F3F46" stroke-width="0.899998"/>
<path d="M223.966 74.1763C223.448 77.8679 220.034 80.44 216.343 79.9212C212.651 79.4023 210.079 75.9891 210.598 72.2974C211.117 68.6058 214.53 66.0337 218.222 66.5525C221.913 67.0714 224.485 70.4846 223.966 74.1763Z" stroke="#3F3F46" stroke-width="0.899998"/>
<path d="M238.226 76.1803C237.707 79.872 234.294 82.444 230.602 81.9252C226.911 81.4064 224.339 77.9931 224.858 74.3015C225.376 70.6099 228.79 68.0378 232.481 68.5566C236.173 69.0754 238.745 72.4887 238.226 76.1803Z" stroke="#3F3F46" stroke-width="0.899998"/>
<path d="M136.404 76.4116C135.885 80.1033 132.472 82.6753 128.78 82.1565C125.089 81.6377 122.517 78.2244 123.035 74.5328C123.554 70.8412 126.967 68.2691 130.659 68.7879C134.351 69.3067 136.923 72.72 136.404 76.4116Z" stroke="#3F3F46" stroke-width="0.899998"/>
<path d="M150.664 78.4157C150.145 82.1074 146.732 84.6794 143.04 84.1606C139.348 83.6418 136.776 80.2285 137.295 76.5369C137.814 72.8452 141.227 70.2732 144.919 70.792C148.61 71.3108 151.183 74.7241 150.664 78.4157Z" stroke="#3F3F46" stroke-width="0.899998"/>
<path d="M164.923 80.4198C164.405 84.1114 160.991 86.6835 157.3 86.1647C153.608 85.6458 151.036 82.2326 151.555 78.5409C152.074 74.8493 155.487 72.2772 159.179 72.796C162.87 73.3149 165.442 76.7281 164.923 80.4198Z" stroke="#3F3F46" stroke-width="0.899998"/>
<path d="M179.183 82.4239C178.664 86.1155 175.251 88.6876 171.559 88.1688C167.868 87.6499 165.296 84.2367 165.815 80.545C166.333 76.8534 169.747 74.2813 173.438 74.8001C177.13 75.319 179.702 78.7322 179.183 82.4239Z" stroke="#3F3F46" stroke-width="0.899998"/>
<path d="M193.443 84.4279C192.924 88.1196 189.511 90.6917 185.819 90.1728C182.128 89.654 179.556 86.2408 180.074 82.5491C180.593 78.8575 184.007 76.2854 187.698 76.8042C191.39 77.3231 193.962 80.7363 193.443 84.4279Z" stroke="#3F3F46" stroke-width="0.899998"/>
<path d="M207.703 86.432C207.184 90.1237 203.771 92.6958 200.079 92.1769C196.387 91.6581 193.815 88.2449 194.334 84.5532C194.853 80.8616 198.266 78.2895 201.958 78.8083C205.65 79.3271 208.222 82.7404 207.703 86.432Z" stroke="#3F3F46" stroke-width="0.899998"/>
<path d="M221.963 88.4361C221.444 92.1278 218.03 94.6998 214.339 94.181C210.647 93.6622 208.075 90.2489 208.594 86.5573C209.113 82.8657 212.526 80.2936 216.218 80.8124C219.909 81.3312 222.481 84.7445 221.963 88.4361Z" stroke="#3F3F46" stroke-width="0.899998"/>
<path d="M236.222 90.4402C235.703 94.1318 232.29 96.7039 228.599 96.1851C224.907 95.6663 222.335 92.253 222.854 88.5614C223.373 84.8697 226.786 82.2976 230.477 82.8165C234.169 83.3353 236.741 86.7485 236.222 90.4402Z" stroke="#3F3F46" stroke-width="0.899998"/>
<path d="M134.4 90.6715C133.881 94.3631 130.468 96.9352 126.776 96.4164C123.085 95.8976 120.513 92.4843 121.031 88.7927C121.55 85.101 124.964 82.5289 128.655 83.0478C132.347 83.5666 134.919 86.9798 134.4 90.6715Z" stroke="#3F3F46" stroke-width="0.899998"/>
<path d="M148.66 92.6756C148.141 96.3672 144.728 98.9393 141.036 98.4205C137.344 97.9016 134.772 94.4884 135.291 90.7967C135.81 87.1051 139.223 84.533 142.915 85.0518C146.607 85.5707 149.179 88.9839 148.66 92.6756Z" stroke="#3F3F46" stroke-width="0.899998"/>
<path d="M162.92 94.6797C162.401 98.3713 158.987 100.943 155.296 100.425C151.604 99.9057 149.032 96.4925 149.551 92.8008C150.07 89.1092 153.483 86.5371 157.175 87.0559C160.866 87.5748 163.438 90.988 162.92 94.6797Z" stroke="#3F3F46" stroke-width="0.899998"/>
<path d="M177.179 96.6837C176.66 100.375 173.247 102.947 169.556 102.429C165.864 101.91 163.292 98.4965 163.811 94.8049C164.33 91.1132 167.743 88.5412 171.434 89.06C175.126 89.5788 177.698 92.9921 177.179 96.6837Z" stroke="#3F3F46" stroke-width="0.899998"/>
<path d="M191.439 98.6878C190.92 102.379 187.507 104.952 183.815 104.433C180.124 103.914 177.552 100.501 178.071 96.809C178.589 93.1173 182.003 90.5453 185.694 91.0641C189.386 91.5829 191.958 94.9962 191.439 98.6878Z" stroke="#3F3F46" stroke-width="0.899998"/>
<path d="M205.699 100.692C205.18 104.384 201.767 106.956 198.075 106.437C194.384 105.918 191.811 102.505 192.33 98.8131C192.849 95.1214 196.262 92.5494 199.954 93.0682C203.646 93.587 206.218 97.0003 205.699 100.692Z" stroke="#3F3F46" stroke-width="0.899998"/>
<path d="M219.959 102.696C219.44 106.388 216.027 108.96 212.335 108.441C208.643 107.922 206.071 104.509 206.59 100.817C207.109 97.1255 210.522 94.5534 214.214 95.0723C217.905 95.5911 220.477 99.0043 219.959 102.696Z" stroke="#3F3F46" stroke-width="0.899998"/>
<path d="M234.218 104.7C233.7 108.392 230.286 110.964 226.595 110.445C222.903 109.926 220.331 106.513 220.85 102.821C221.369 99.1296 224.782 96.5575 228.474 97.0763C232.165 97.5951 234.737 101.008 234.218 104.7Z" stroke="#3F3F46" stroke-width="0.899998"/>
<path d="M132.394 104.931C131.875 108.623 128.462 111.195 124.77 110.676C121.079 110.157 118.507 106.744 119.026 103.052C119.544 99.3608 122.958 96.7888 126.649 97.3076C130.341 97.8264 132.913 101.24 132.394 104.931Z" stroke="#3F3F46" stroke-width="0.899998"/>
<path d="M146.654 106.935C146.135 110.627 142.722 113.199 139.03 112.68C135.339 112.161 132.767 108.748 133.285 105.057C133.804 101.365 137.217 98.7929 140.909 99.3117C144.601 99.8305 147.173 103.244 146.654 106.935Z" stroke="#3F3F46" stroke-width="0.899998"/>
<path d="M160.914 108.939C160.395 112.631 156.982 115.203 153.29 114.684C149.598 114.166 147.026 110.752 147.545 107.061C148.064 103.369 151.477 100.797 155.169 101.316C158.86 101.835 161.433 105.248 160.914 108.939Z" stroke="#3F3F46" stroke-width="0.899998"/>
<path d="M175.173 110.944C174.655 114.635 171.241 117.207 167.55 116.688C163.858 116.17 161.286 112.756 161.805 109.065C162.324 105.373 165.737 102.801 169.429 103.32C173.12 103.839 175.692 107.252 175.173 110.944Z" stroke="#3F3F46" stroke-width="0.899998"/>
<path d="M189.433 112.948C188.914 116.639 185.501 119.211 181.809 118.693C178.118 118.174 175.546 114.76 176.065 111.069C176.583 107.377 179.997 104.805 183.688 105.324C187.38 105.843 189.952 109.256 189.433 112.948Z" stroke="#3F3F46" stroke-width="0.899998"/>
<path d="M203.693 114.952C203.174 118.643 199.761 121.215 196.069 120.697C192.378 120.178 189.806 116.765 190.324 113.073C190.843 109.381 194.257 106.809 197.948 107.328C201.64 107.847 204.212 111.26 203.693 114.952Z" stroke="#3F3F46" stroke-width="0.899998"/>
<path d="M217.953 116.956C217.434 120.647 214.021 123.22 210.329 122.701C206.637 122.182 204.065 118.769 204.584 115.077C205.103 111.385 208.516 108.813 212.208 109.332C215.9 109.851 218.472 113.264 217.953 116.956Z" stroke="#3F3F46" stroke-width="0.899998"/>
<path d="M232.213 118.96C231.694 122.652 228.28 125.224 224.589 124.705C220.897 124.186 218.325 120.773 218.844 117.081C219.363 113.389 222.776 110.817 226.468 111.336C230.159 111.855 232.731 115.268 232.213 118.96Z" stroke="#3F3F46" stroke-width="0.899998"/>
<path d="M130.39 119.191C129.871 122.883 126.458 125.455 122.767 124.936C119.075 124.417 116.503 121.004 117.022 117.312C117.541 113.621 120.954 111.049 124.645 111.567C128.337 112.086 130.909 115.5 130.39 119.191Z" stroke="#3F3F46" stroke-width="0.899998"/>
<path d="M144.65 121.195C144.131 124.887 140.718 127.459 137.026 126.94C133.335 126.421 130.763 123.008 131.281 119.316C131.8 115.625 135.214 113.053 138.905 113.572C142.597 114.09 145.169 117.504 144.65 121.195Z" stroke="#3F3F46" stroke-width="0.899998"/>
<path d="M158.91 123.199C158.391 126.891 154.978 129.463 151.286 128.944C147.594 128.425 145.022 125.012 145.541 121.321C146.06 117.629 149.473 115.057 153.165 115.576C156.857 116.094 159.429 119.508 158.91 123.199Z" stroke="#3F3F46" stroke-width="0.899998"/>
<path d="M173.17 125.203C172.651 128.895 169.237 131.467 165.546 130.948C161.854 130.429 159.282 127.016 159.801 123.325C160.32 119.633 163.733 117.061 167.425 117.58C171.116 118.099 173.688 121.512 173.17 125.203Z" stroke="#3F3F46" stroke-width="0.899998"/>
</g>
<g clip-path="url(#clip2_1401_4616)">
<path d="M200.706 96.2313L199.834 102.361C200.216 99.6436 198.817 96.6667 195.52 94.1007C193.893 92.8202 191.939 91.7683 189.821 90.9454C183.465 88.4856 175.54 88.1505 169.804 90.4866C166.017 92.0339 163.88 94.4606 163.491 97.1436L164.375 91.0153C164.761 88.3427 166.887 85.916 170.685 84.3687C176.423 82.0328 184.349 82.3589 190.705 84.8171C192.823 85.6401 194.764 86.7007 196.404 87.9725C199.688 90.5473 201.099 93.5152 200.706 96.2313Z" fill="#F2BC36"/>
<path d="M200.708 96.2316L199.831 102.355C199.447 105.034 197.311 107.464 193.514 109.01L194.391 102.886C198.191 101.338 200.324 98.9107 200.708 96.2316Z" fill="#F9C73A"/>
<path d="M163.496 97.143L164.375 91.0186C163.987 93.7306 165.391 96.6993 168.678 99.2682C175.217 104.377 186.752 105.998 194.391 102.887L193.514 109.011C185.873 112.122 174.339 110.502 167.8 105.393C164.512 102.824 163.108 99.855 163.496 97.143Z" fill="#F9C73A"/>
<path d="M196.171 89.6057C202.711 94.7144 201.809 101.401 194.161 104.515C186.522 107.628 174.988 106.008 168.448 100.899C161.916 95.7939 162.817 89.1078 170.457 85.9963C178.104 82.8799 189.639 84.5025 196.171 89.6057Z" fill="#F9C73A"/>
<path d="M206.086 97.0026L205.207 103.125C204.711 106.595 201.943 109.741 197.018 111.746C187.1 115.787 172.185 113.686 163.704 107.061C159.439 103.729 157.613 99.8841 158.117 96.3715L158.997 90.2456C158.492 93.7583 160.317 97.6028 164.583 100.937C173.062 107.561 187.979 109.661 197.896 105.622C202.822 103.616 205.588 100.472 206.086 97.0026Z" fill="#F2BC36"/>
<path d="M200.497 86.3079C208.978 92.9309 207.811 101.583 197.894 105.623C187.977 109.662 173.061 107.561 164.582 100.937C156.103 94.3128 157.269 85.6682 167.184 81.6291C177.102 77.5904 192.02 79.6839 200.499 86.3067L200.497 86.3079ZM168.679 99.2669C175.218 104.376 186.754 105.997 194.393 102.885C202.041 99.7688 202.942 93.0827 196.403 87.9755C189.871 82.8708 178.336 81.2497 170.688 84.3646C163.049 87.476 162.147 94.1637 168.679 99.2669Z" fill="#FED44C"/>
<path d="M191.998 90.6436L191.817 91.9054L190.744 92.3438L190.924 91.0805L191.998 90.6436ZM183.137 92.4291L183.319 91.1675C183.36 90.8726 183.614 90.6349 184.074 90.4476C184.547 90.2545 185.094 90.2154 185.712 90.3252C186.368 90.4468 186.991 90.7071 187.538 91.0887L187.358 92.3505C186.81 91.9694 186.188 91.7096 185.532 91.5885C184.914 91.4772 184.366 91.5163 183.893 91.7094C183.433 91.8966 183.18 92.1359 183.137 92.4291ZM188.629 92.0161L188.448 93.2794L184.494 94.8887L184.674 93.6269L188.629 92.0161Z" fill="#F2BC36"/>
<path d="M189.982 94.5211L189.802 95.7844C189.67 94.8971 189.215 94.062 188.445 93.279L188.628 92.016C189.395 92.8002 189.85 93.6353 189.982 94.5211Z" fill="#F2BC36"/>
<path d="M193.09 94.6495L192.908 95.9126L189.802 95.7845L189.983 94.5212L193.09 94.6495ZM179.656 91.743L179.838 90.48C179.828 90.55 179.823 90.6208 179.824 90.6917C179.836 91.4324 180.33 92.4134 181.308 93.6257L181.128 94.8875C180.15 93.6767 179.654 92.6954 179.644 91.9535C179.643 91.8826 179.648 91.8118 179.658 91.7418L179.656 91.743ZM182.766 96.2018L182.584 97.4649L182.59 97.42C182.613 97.0979 182.388 96.5991 181.919 95.9362L182.101 94.6747C182.57 95.3375 182.793 95.8346 182.771 96.1582L182.764 96.2031L182.766 96.2018Z" fill="#F2BC36"/>
<path d="M182.102 94.6746L181.922 95.9379L178.132 97.4818L178.312 96.2185L182.102 94.6746ZM174.926 96.2267L174.744 97.4882C173.296 96.1228 172.589 94.6599 172.613 93.0953L172.796 91.8322C172.771 93.3983 173.478 94.8612 174.926 96.2267ZM174.544 97.7532L174.363 99.015L173.209 98.1138L173.389 96.852L174.544 97.7532ZM176.058 97.1354L175.878 98.3987L174.363 99.015L174.544 97.7532L176.058 97.1354Z" fill="#F2BC36"/>
<path d="M186.214 96.8817L186.034 98.1434C185.937 98.82 185.328 99.3833 184.214 99.8375C182.98 100.34 181.608 100.456 180.097 100.19C178.573 99.9181 177.131 99.3057 175.878 98.3987L176.06 97.1357C177.313 98.0432 178.755 98.6561 180.279 98.9287C181.79 99.1929 183.162 99.0773 184.394 98.5757C185.51 98.1218 186.118 97.5567 186.214 96.8817Z" fill="#F2BC36"/>
<path d="M186.226 96.6729C186.233 97.4419 185.62 98.0749 184.393 98.5757C183.16 99.0774 181.786 99.1927 180.277 98.9287C178.754 98.6561 177.312 98.0432 176.058 97.1357L174.542 97.7532L173.388 96.852L174.925 96.2252C173.477 94.8613 172.769 93.3983 172.794 91.8337L175.941 92.1112C175.925 93.318 176.35 94.3764 177.22 95.2911L181.308 93.6257C180.331 92.4136 179.835 91.4339 179.825 90.6919C179.809 89.9476 180.411 89.3298 181.628 88.8337C182.84 88.3398 184.192 88.2168 185.689 88.4699C187.169 88.7128 188.573 89.2948 189.791 90.1702L190.844 89.7425L191.998 90.6437L190.923 91.0805C192.131 92.1556 192.853 93.3474 193.09 94.6495L189.983 94.5212C189.851 93.6354 189.395 92.8003 188.628 92.016L184.673 93.6268L184.728 93.6697C185.721 94.901 186.231 95.904 186.226 96.6729ZM180.27 97.0466C180.929 97.1774 181.502 97.1434 181.994 96.9424C182.485 96.7441 182.746 96.4801 182.77 96.1582C182.793 95.8346 182.57 95.3375 182.101 94.6747L178.311 96.2186C178.904 96.6186 179.569 96.8998 180.27 97.0466ZM183.896 92.571L187.537 91.0886C186.989 90.707 186.367 90.4468 185.711 90.3251C185.093 90.2153 184.545 90.2544 184.072 90.446C183.604 90.6382 183.35 90.8819 183.315 91.1824C183.284 91.4804 183.474 91.9437 183.896 92.571Z" fill="#FED44C"/>
<path d="M204.009 87.968L203.135 94.0962C203.517 91.3801 202.118 88.4031 198.822 85.8374C197.194 84.5566 195.241 83.5049 193.122 82.6818C186.768 80.2222 178.842 79.8855 173.105 82.2231C169.318 83.7704 167.181 86.1971 166.793 88.8802L167.676 82.7518C168.062 80.0791 170.188 77.6525 173.986 76.1051C179.724 73.7692 187.65 74.0938 194.006 76.5536C196.124 77.3765 198.067 78.4374 199.705 79.709C202.989 82.2837 204.401 85.2519 204.009 87.968Z" fill="#F2BC36"/>
<path d="M204.011 87.9667L203.132 94.091C202.748 96.7701 200.612 99.1985 196.814 100.746L197.692 94.6213C201.491 93.0742 203.625 90.6455 204.011 87.9667Z" fill="#F9C73A"/>
<path d="M166.797 88.8792L167.676 82.7533C167.287 85.4668 168.692 88.4354 171.98 91.0046C178.517 96.1131 190.052 97.7343 197.692 94.6213L196.814 100.747C189.175 103.859 177.64 102.238 171.101 97.129C167.812 94.5598 166.408 91.5912 166.797 88.8792Z" fill="#F9C73A"/>
<path d="M199.473 81.3421C206.012 86.4508 205.111 93.1369 197.463 96.2518C189.823 99.3648 178.29 97.7423 171.751 92.6336C165.219 87.532 166.119 80.8441 173.76 77.7314C181.408 74.6164 192.941 76.2374 199.473 81.3421Z" fill="#F9C73A"/>
<path d="M209.385 88.7374L208.508 94.862C208.009 98.3312 205.242 101.477 200.317 103.483C190.4 107.523 175.483 105.422 167.003 98.7977C162.738 95.4652 160.912 91.6189 161.416 88.1063L162.295 81.9819C161.791 85.4946 163.616 89.3392 167.882 92.6733C176.361 99.2975 191.278 101.397 201.196 97.3584C206.121 95.3526 208.888 92.2068 209.385 88.7374Z" fill="#F2BC36"/>
<path d="M203.799 78.0429C212.278 84.6672 211.111 93.3192 201.195 97.3581C191.278 101.397 176.361 99.2975 167.882 92.6733C159.403 86.0476 160.569 77.4045 170.486 73.3656C180.402 69.3267 195.32 71.4187 203.799 78.0429ZM171.98 91.0046C178.517 96.1132 190.052 97.7343 197.692 94.6213C205.34 91.5064 206.241 84.8203 199.702 79.7116C193.17 74.6084 181.636 72.9875 173.989 76.1024C166.348 79.2136 165.448 85.9 171.98 91.0046Z" fill="#FED44C"/>
<path d="M195.299 82.38L195.117 83.6415L194.043 84.08L194.225 82.8169L195.299 82.38ZM186.438 84.1655L186.618 82.9037C186.66 82.6087 186.913 82.371 187.373 82.1837C187.846 81.9906 188.393 81.9515 189.012 82.0613C189.668 82.1828 190.291 82.4432 190.839 82.825L190.657 84.0866C190.11 83.7051 189.487 83.4448 188.831 83.3231C188.213 83.2133 187.665 83.2524 187.192 83.4455C186.732 83.6328 186.479 83.872 186.438 84.1655ZM191.928 83.7523L191.748 85.0141L187.793 86.6263L187.975 85.3633L191.928 83.7523Z" fill="#F2BC36"/>
<path d="M193.284 86.2575L193.103 87.5208C192.971 86.6335 192.516 85.7985 191.748 85.0142L191.929 83.7524C192.697 84.5352 193.152 85.3717 193.284 86.2575ZM196.391 86.3858L196.211 87.6476L193.103 87.5208L193.284 86.2575L196.391 86.3858ZM182.957 83.4794L183.139 82.2163C183.129 82.2865 183.125 82.3574 183.126 82.4282C183.137 83.1687 183.632 84.1499 184.609 85.362L184.428 86.6238C183.452 85.4132 182.956 84.432 182.946 83.69C182.944 83.6191 182.948 83.5482 182.957 83.4779L182.957 83.4794ZM186.067 87.9381L185.885 89.2012L185.891 89.1563C185.914 88.8327 185.69 88.3357 185.221 87.6728L185.402 86.411C185.871 87.0724 186.094 87.5709 186.071 87.8945L186.065 87.9394L186.067 87.9381Z" fill="#F2BC36"/>
<path d="M185.402 86.411L185.221 87.6728L181.431 89.2167L181.612 87.9549L185.402 86.411ZM178.226 87.9615L178.045 89.2248C176.596 87.8591 175.89 86.3964 175.914 84.8303L176.095 83.5685C176.07 85.1346 176.778 86.5961 178.226 87.9615ZM177.845 89.4897L177.663 90.7513L176.508 89.8501L176.69 88.587L177.845 89.4897Z" fill="#F2BC36"/>
<path d="M179.36 88.872L179.179 90.1353L177.663 90.7513L177.845 89.4897L179.36 88.872Z" fill="#F2BC36"/>
<path d="M189.515 88.6168L189.333 89.8799C189.236 90.5565 188.629 91.12 187.513 91.5739C186.28 92.0771 184.907 92.1925 183.397 91.9269C181.874 91.6548 180.432 91.0424 179.178 90.1354L179.359 88.8721C180.612 89.7796 182.054 90.3925 183.578 90.6651C185.089 90.9294 186.461 90.8138 187.693 90.3121C188.809 89.8582 189.418 89.2934 189.515 88.6168Z" fill="#F2BC36"/>
<path d="M189.529 88.4095C189.536 89.1784 188.923 89.8114 187.694 90.312C186.463 90.8139 185.089 90.9293 183.578 90.665C182.055 90.3924 180.613 89.7795 179.36 88.872L177.845 89.4898L176.689 88.5868L178.228 87.9632C176.778 86.5961 176.071 85.1347 176.097 83.5687L179.243 83.8475C179.226 85.0544 179.651 86.1127 180.521 87.0259L184.609 85.362C183.633 84.1499 183.137 83.1702 183.126 82.4282C183.112 81.6827 183.712 81.0661 184.93 80.57C186.141 80.0761 187.493 79.9531 188.992 80.2065C190.471 80.4495 191.875 81.0314 193.092 81.9065L194.145 81.4773L195.299 82.3801L194.225 82.817C195.432 83.892 196.155 85.0822 196.391 86.3858L193.284 86.2575C193.152 85.3717 192.697 84.5352 191.929 83.7524L187.975 85.3634L188.031 85.4062C189.024 86.6376 189.533 87.6405 189.529 88.4095ZM183.571 88.7829C184.23 88.9138 184.803 88.8797 185.297 88.6789C185.786 88.4804 186.049 88.2166 186.072 87.8945C186.096 87.5712 185.871 87.0724 185.402 86.411L181.612 87.9549C182.205 88.3549 182.871 88.6361 183.571 88.7829ZM187.199 84.3075L190.839 82.8251C190.292 82.4433 189.669 82.1829 189.012 82.0614C188.394 81.9516 187.847 81.9892 187.374 82.1823C186.906 82.373 186.653 82.6185 186.617 82.9188C186.587 83.2169 186.775 83.6801 187.199 84.3075Z" fill="#FED44C"/>
<path d="M211.347 78.5005L210.475 84.6304C210.856 81.9143 209.458 78.9358 206.16 76.3699C204.534 75.0908 202.579 74.0389 200.461 73.216C194.105 70.7562 186.181 70.4197 180.445 72.7558C176.657 74.3046 174.52 76.7313 174.131 79.4142L175.015 73.286C175.402 70.6133 177.528 68.1852 181.324 66.6391C187.063 64.3034 194.988 64.6278 201.344 67.0861C203.462 67.9105 205.404 68.9714 207.044 70.2431C210.328 72.8179 211.739 75.7859 211.347 78.5005Z" fill="#F2BC36"/>
<path d="M211.349 78.5007L210.471 84.6252C210.085 87.3041 207.952 89.7327 204.152 91.2799L205.031 85.1555C208.831 83.6084 210.964 81.1798 211.349 78.5007Z" fill="#F9C73A"/>
<path d="M174.135 79.4118L175.014 73.2875C174.624 76.0008 176.029 78.9696 179.316 81.5371C185.855 86.6458 197.39 88.2684 205.03 85.1555L204.151 91.2798C196.511 94.3928 184.978 92.7719 178.438 87.6632C175.15 85.094 173.746 82.1254 174.135 79.4118Z" fill="#F9C73A"/>
<path d="M206.812 71.8747C213.351 76.9835 212.45 83.6711 204.802 86.7845C197.162 89.8975 185.629 88.2765 179.088 83.1676C172.556 78.0644 173.458 71.3783 181.097 68.2653C188.745 65.1504 200.28 66.7716 206.812 71.8747Z" fill="#F9C73A"/>
<path d="M216.723 79.2714L215.844 85.3958C215.347 88.8652 212.58 92.0094 207.655 94.0167C197.737 98.0554 182.82 95.9559 174.341 89.3302C170.076 85.9977 168.25 82.1529 168.754 78.6403L169.632 72.5157C169.129 76.0271 170.954 79.8732 175.22 83.2058C183.699 89.83 198.616 91.931 208.532 87.8922C213.459 85.8851 216.225 82.7406 216.723 79.2714Z" fill="#F2BC36"/>
<path d="M211.136 68.5768C219.615 75.201 218.449 83.8533 208.533 87.8922C198.616 91.931 183.699 89.83 175.22 83.2058C166.741 76.5816 167.907 67.9386 177.822 63.8995C187.739 59.8591 202.655 61.9524 211.136 68.5768ZM179.318 81.5372C185.857 86.6459 197.392 88.2686 205.031 85.1556C212.679 82.0407 213.581 75.3546 207.041 70.2458C200.509 65.1412 188.974 63.52 181.327 66.6349C173.687 69.7479 172.786 76.434 179.318 81.5372Z" fill="#FED44C"/>
<path d="M202.637 72.9126L202.456 74.1758L201.382 74.6128L201.563 73.351L202.637 72.9126ZM193.777 74.6998L193.958 73.4365C193.999 73.143 194.252 72.9038 194.712 72.718C195.185 72.5249 195.733 72.4843 196.351 72.5956C197.007 72.7168 197.629 72.9766 198.177 73.3576L197.996 74.6209C197.448 74.2391 196.825 73.9787 196.169 73.8572C195.552 73.7476 195.003 73.7865 194.53 73.9781C194.072 74.1671 193.82 74.405 193.777 74.6998ZM199.268 74.2866L199.086 75.5482L195.132 77.1592L195.313 75.8974L199.268 74.2866Z" fill="#F2BC36"/>
<path d="M200.622 76.7917L200.44 78.0533C200.309 77.1677 199.854 76.3327 199.085 75.5482L199.267 74.2866C200.035 75.0694 200.49 75.9044 200.622 76.7917ZM203.729 76.92L203.547 78.1816L200.44 78.0533L200.622 76.7917L203.729 76.92ZM190.295 74.0121L190.476 72.7503C190.466 72.8206 190.462 72.8915 190.464 72.9624C190.475 73.7029 190.971 74.6826 191.945 75.8945L191.766 77.158C190.788 75.9457 190.293 74.966 190.282 74.224C190.281 74.1532 190.285 74.0822 190.295 74.0121ZM193.403 78.4721L193.223 79.7339L193.229 79.689C193.251 79.3669 193.027 78.8697 192.558 78.2068L192.74 76.9452C193.209 77.6066 193.432 78.1051 193.408 78.4285L193.403 78.4721Z" fill="#F2BC36"/>
<path d="M192.741 76.9452L192.559 78.2068L188.769 79.7507L188.951 78.4876L192.741 76.9452ZM185.564 78.4955L185.383 79.7573C183.935 78.3933 183.228 76.9304 183.252 75.3643L183.434 74.1027C183.41 75.6674 184.116 77.1301 185.565 78.4942L185.564 78.4955ZM185.183 80.0222L185.002 81.2855L183.846 80.3826L184.028 79.121L185.183 80.0222Z" fill="#F2BC36"/>
<path d="M186.697 79.4062L186.516 80.6678L185.001 81.2855L185.182 80.0222L186.697 79.4062Z" fill="#F2BC36"/>
<path d="M196.853 79.1508L196.672 80.4126C196.574 81.0889 195.967 81.654 194.852 82.1081C193.618 82.6096 192.246 82.7251 190.735 82.4609C189.212 82.1883 187.77 81.5754 186.516 80.6679L186.698 79.4063C187.952 80.3138 189.394 80.9267 190.917 81.1993C192.428 81.4636 193.8 81.348 195.033 80.8463C196.148 80.3924 196.756 79.8273 196.853 79.1508Z" fill="#F2BC36"/>
<path d="M196.866 78.942C196.872 79.7124 196.26 80.3454 195.032 80.8447C193.8 81.3479 192.426 81.4633 190.917 81.1977C189.393 80.9256 187.951 80.3132 186.698 79.4062L185.182 80.0223L184.028 79.121L185.565 78.4957C184.115 77.1301 183.409 75.6674 183.434 74.1027L186.581 74.3817C186.564 75.5871 186.99 76.6454 187.86 77.5601L191.947 75.8947C190.971 74.6841 190.475 73.7029 190.465 72.9609C190.449 72.2166 191.05 71.5988 192.268 71.1042C193.478 70.6101 194.831 70.4858 196.329 70.7405C197.809 70.9834 199.213 71.5653 200.43 72.4407L201.483 72.0115L202.636 72.9125L201.562 73.351C202.77 74.4262 203.493 75.6164 203.73 76.92L200.622 76.7917C200.49 75.9044 200.035 75.0694 199.267 74.2866L195.312 75.8974L195.367 75.9387C196.361 77.1715 196.87 78.173 196.866 78.942ZM190.908 79.3169C191.569 79.4464 192.141 79.4139 192.635 79.2131C193.125 79.0131 193.386 78.7506 193.408 78.427C193.432 78.1051 193.209 77.6066 192.74 76.9437L188.951 78.4876C189.544 78.8881 190.207 79.1696 190.908 79.3169ZM194.535 74.8415L198.176 73.3576C197.629 72.9766 197.006 72.7168 196.35 72.5956C195.732 72.4843 195.185 72.5234 194.712 72.7165C194.244 72.9072 193.99 73.1509 193.955 73.4514C193.924 73.7509 194.114 74.2142 194.535 74.8415ZM175.77 108.519L169.197 111.203C167.731 111.802 166.069 111.909 164.293 111.494C163.16 111.234 161.985 110.756 160.776 110.044C160.127 109.664 159.472 109.22 158.817 108.7C151.306 102.846 146.301 90.4417 147.64 81.0779L147.688 80.7335C148.048 78.5335 148.73 76.7193 149.659 75.2924C150.074 74.6714 150.528 74.1197 151.035 73.6505C151.695 73.027 152.463 72.5295 153.302 72.1828L159.873 69.5136C159.047 69.8494 158.288 70.3336 157.606 70.9783C157.102 71.4358 156.647 71.9887 156.246 72.6101C155.303 74.0351 154.619 75.8628 154.275 78.0512C154.259 78.162 154.23 78.2724 154.213 78.3937C152.87 87.7708 157.878 100.163 165.386 106.032C166.043 106.538 166.709 106.984 167.359 107.364C168.448 108.023 169.629 108.516 170.863 108.825C172.639 109.238 174.303 109.119 175.768 108.522L175.77 108.519Z" fill="#FED44C"/>
<path d="M175.773 108.526L169.197 111.205C172.072 110.035 174.185 106.985 174.851 102.328L181.429 99.6492C180.762 104.306 178.649 107.356 175.773 108.526ZM153.302 72.1872L159.878 69.508C162.793 68.3206 166.492 69.0634 170.268 72.0142L163.693 74.6935C159.915 71.7424 156.216 71.0011 153.302 72.1872Z" fill="#F9C73A"/>
<path d="M163.691 74.6918L170.268 72.0127C177.766 77.8715 182.774 90.268 181.428 99.6492L174.852 102.328C176.197 92.9471 171.189 80.5491 163.691 74.6918Z" fill="#F9C73A"/>
<path d="M165.28 73.7975C172.778 79.6548 177.786 92.0513 176.44 101.432C175.097 110.806 167.9 113.667 160.402 107.808C152.896 101.944 147.888 89.5488 149.232 80.1751C150.578 70.7939 157.775 67.9332 165.28 73.7975Z" fill="#F2BC36"/>
<path d="M164.414 69.6675C174.144 77.2708 180.618 93.3042 178.872 105.469C177.127 117.636 167.825 121.333 158.093 113.728C148.361 106.125 141.88 90.0966 143.626 77.9302C145.369 65.7649 154.681 62.0625 164.414 69.6675ZM158.814 108.704C166.312 114.561 173.509 111.701 174.852 102.328C176.198 92.9471 171.19 80.5506 163.692 74.6933C156.187 68.8289 148.991 71.6896 147.645 81.0708C146.3 90.4445 151.309 102.84 158.814 108.704Z" fill="#F9C73A"/>
<path d="M160.854 100.469L161.997 100.004L161.741 101.791L160.598 102.257L160.854 100.469Z" fill="#E2AB30"/>
<path d="M156.855 91.9128L157.997 91.4473C158.937 93.5184 159.981 95.1356 161.121 96.2836L159.979 96.7492C158.838 95.6009 157.795 93.984 156.857 91.913L156.855 91.9128ZM161.238 97.8178L162.38 97.3523C163.028 97.7671 163.563 97.9278 163.991 97.8353L162.85 98.3008C162.421 98.3933 161.887 98.2327 161.238 97.8178Z" fill="#FED44C"/>
<path d="M164.147 97.7871L163.005 98.2526C162.954 98.2732 162.901 98.2893 162.847 98.3007L163.989 97.8351C164.043 97.8238 164.096 97.8077 164.147 97.7871Z" fill="black"/>
<path d="M161.877 93.3501L163.02 92.8847L162.379 97.3522L161.237 97.8178L161.877 93.3501Z" fill="#E2AB30"/>
<path d="M162.312 90.3238L163.454 89.8583L163.516 89.9067L162.374 90.3722L162.312 90.3238ZM160.137 84.1946L161.279 83.7291C160.946 83.8657 160.74 84.1832 160.667 84.6936C160.588 85.2429 160.657 85.7854 160.874 86.3152C161.095 86.8487 161.553 87.5481 162.248 88.4215L161.106 88.8871C160.411 88.0137 159.953 87.3142 159.732 86.7808C159.517 86.2685 159.446 85.7074 159.525 85.1576C159.597 84.6486 159.803 84.331 160.137 84.1946Z" fill="#FED44C"/>
<path d="M162.373 90.3706L163.515 89.9051C164.97 91.5448 166.001 93.0211 166.608 94.3401L165.466 94.8057C164.857 93.4864 163.828 92.0104 162.373 90.3706Z" fill="#FED44C"/>
<path d="M165.682 100.986L164.54 101.452C165.363 101.117 165.871 100.288 166.063 98.9556C166.276 97.5432 166.068 96.0995 165.466 94.8042L166.608 94.3386C167.211 95.654 167.414 97.0398 167.205 98.4901C167.013 99.822 166.504 100.651 165.682 100.986Z" fill="#FED44C"/>
<path d="M162.98 85.6645L164.122 85.199L163.453 89.8582L162.311 90.3237L162.98 85.6645Z" fill="#E2AB30"/>
<path d="M158.589 81.0515L159.732 80.5862C159.789 80.5636 159.845 80.5425 159.906 80.5251C160.835 80.2435 161.949 80.5572 163.244 81.4767L162.102 81.9423C160.807 81.0228 159.694 80.7075 158.764 80.9891C158.705 81.0073 158.646 81.0282 158.589 81.0515ZM162.28 80.7015L163.422 80.2359L164.693 81.2284L163.549 81.6937L162.28 80.7015Z" fill="#FED44C"/>
<path d="M163.55 81.6939L164.693 81.2285L164.51 82.4961L163.368 82.9616L163.55 81.6939Z" fill="#E2AB30"/>
<path d="M163.367 82.9617L164.509 82.4961C165.944 83.7667 167.231 85.4607 168.369 87.578L167.227 88.0435C166.089 85.9262 164.802 84.2307 163.367 82.9617Z" fill="#FED44C"/>
<path d="M167.227 88.0434L168.369 87.5778L166.754 88.8579L165.612 89.3234L167.227 88.0434Z" fill="#E2AB30"/>
<path d="M165.468 94.8058C166.071 96.1182 166.271 97.5053 166.065 98.9557C165.857 100.4 165.275 101.253 164.328 101.526C163.374 101.796 162.217 101.443 160.857 100.47L160.6 102.257L159.33 101.265L159.591 99.4507C157.813 97.8052 156.317 95.6344 155.1 92.9365L156.855 91.9128C157.795 93.9839 158.838 95.6009 159.977 96.7489L160.669 91.9358C159.239 90.3225 158.228 88.8795 157.638 87.6132C157.049 86.3498 156.849 84.94 157.062 83.5625C157.266 82.1345 157.834 81.2768 158.764 80.9892C159.694 80.7076 160.806 81.0227 162.102 81.9424L162.28 80.7001L163.55 81.6938L163.368 82.9616C164.804 84.2306 166.091 85.9262 167.229 88.0435L165.614 89.322C164.85 87.8588 163.975 86.6426 162.981 85.6647L162.312 90.3238L162.374 90.3722C163.83 92.0105 164.859 93.4866 165.468 94.8043L165.468 94.8058ZM162.849 98.3008C163.273 98.2107 163.526 97.8767 163.609 97.299C163.692 96.7152 163.61 96.1198 163.372 95.5801C163.125 95.011 162.631 94.2697 161.878 93.3501L161.238 97.8178C161.886 98.2326 162.421 98.3933 162.849 98.3008ZM161.107 88.8871L161.722 84.596C161.118 84.1982 160.622 84.0537 160.23 84.1634C159.841 84.2768 159.603 84.6036 159.525 85.1576C159.446 85.7069 159.515 86.2509 159.732 86.7807C159.953 87.3142 160.411 88.0136 161.107 88.8871Z" fill="#F9C73A"/>
<path d="M185.454 102.791C184.579 108.839 181.849 112.792 178.13 114.305L171.544 116.987C175.278 115.463 178.008 111.51 178.868 105.473C180.617 93.3011 174.147 77.2728 164.407 69.6698C159.516 65.8401 154.724 64.878 150.953 66.4093L157.524 63.7386C161.299 62.1941 166.089 63.1559 170.992 66.9888C180.722 74.5888 187.19 90.6184 185.454 102.791Z" fill="#FED44C"/>
<path d="M170.861 109.652L171.044 110.874L170.464 109.784L168.845 111.972L169.638 109.369L168.419 109.552L169.508 108.972L167.32 107.351L169.923 108.148L169.74 106.927L170.32 108.016L171.941 105.828L171.146 108.431L172.366 108.248L171.276 108.828L173.466 110.449L170.861 109.652ZM206.157 75.2427L206.495 77.5057L205.42 75.4858L202.419 79.5438L203.891 74.7167L201.63 75.0554L203.65 73.9804L199.592 70.9793L204.419 72.4517L204.08 70.1901L205.155 72.2101L208.156 68.152L206.684 72.9792L208.945 72.6405L206.925 73.7155L210.983 76.7166L206.157 75.2427Z" fill="white"/>
</g>
<rect x="-0.765982" y="-1.01649" width="131.399" height="177.3" rx="9.89997" transform="matrix(0.990268 0.139173 -0.139175 0.990268 125.777 -0.903289)" stroke="#3F3F46" stroke-width="1.8"/>
</g>
<defs>
<clipPath id="clip0_1401_4616">
<rect width="254" height="118" fill="white"/>
</clipPath>
<clipPath id="clip1_1401_4616">
<rect width="67.943" height="67.9433" fill="white" transform="matrix(0.965926 -0.258819 0.258822 0.965925 33.4219 73.3858)"/>
</clipPath>
<clipPath id="clip2_1401_4616">
<rect width="75.5996" height="75.6" fill="white" transform="matrix(0.990268 0.139173 -0.139175 0.990268 146.455 46.9237)"/>
</clipPath>
</defs>
</svg>
