<svg width="26" height="26" viewBox="0 0 26 26" fill="none" xmlns="http://www.w3.org/2000/svg">
<g clip-path="url(#clip0_1305_1614)">
<path d="M13 26C20.1797 26 26 20.1797 26 13C26 5.8203 20.1797 0 13 0C5.8203 0 0 5.8203 0 13C0 20.1797 5.8203 26 13 26Z" fill="url(#paint0_linear_1305_1614)"/>
<path d="M17.9823 6.03304C17.5794 5.96662 17.1667 6.00443 16.782 6.14299C16.3973 6.28156 16.0531 6.51642 15.781 6.82595C15.2617 7.41843 15.1001 8.18978 15.2248 8.96272C15.3378 9.6598 15.4876 10.3673 15.5213 11.0388C15.5685 12.0502 15.4173 13.0611 15.0765 14.0124C14.7682 14.8732 14.3289 15.5407 13.3875 15.6884C13.3177 15.6996 13.0635 15.7076 12.9914 15.7116C12.9192 15.7156 12.6909 15.7004 12.6203 15.6892C11.6789 15.5415 11.2357 14.874 10.9282 14.0076C10.5874 13.0563 10.4362 12.0454 10.4834 11.034C10.5171 10.3649 10.667 9.6566 10.7799 8.95792C10.9047 8.18498 10.7431 7.41364 10.2237 6.82116C9.95075 6.51186 9.60564 6.27753 9.22024 6.13979C8.83483 6.00205 8.42157 5.96534 8.01854 6.03304C6.81122 6.23347 6.00713 7.32421 6.00007 8.46844C5.9967 8.90932 6.11435 9.3424 6.33975 9.71888C6.71552 10.3497 7.33212 10.8096 7.87027 11.2871C8.22643 11.6065 8.84224 12.5128 9.14428 13.495C9.32706 14.0898 9.47611 14.6927 9.6236 15.3012C9.8307 16.1492 10.1155 18.0224 10.3029 18.8728C10.6772 20.5752 11.8225 20.9609 12.9702 21H13.011C14.1587 20.9609 15.3229 20.5744 15.6971 18.872C15.8837 18.0216 16.1677 16.1476 16.3764 15.3004C16.5247 14.6951 16.6729 14.089 16.8557 13.4942C17.1577 12.512 17.7736 11.6025 18.1297 11.2863C18.6679 10.8072 19.2837 10.3489 19.6602 9.71808C19.8857 9.3416 20.0033 8.90852 19.9999 8.46764C19.9937 7.32101 19.1927 6.22947 17.9823 6.03304Z" fill="white"/>
</g>
<defs>
<linearGradient id="paint0_linear_1305_1614" x1="4" y1="4.5" x2="23" y2="22" gradientUnits="userSpaceOnUse">
<stop stop-color="#0DA670"/>
<stop offset="1" stop-color="#2B4DAC"/>
</linearGradient>
<clipPath id="clip0_1305_1614">
<rect width="26" height="26" fill="white"/>
</clipPath>
</defs>
</svg>
