<svg width="20" height="20" viewBox="0 0 20 20" fill="none" xmlns="http://www.w3.org/2000/svg">
<g clip-path="url(#clip0_1396_4356)">
<path d="M10 20C15.5228 20 20 15.5228 20 10C20 4.47715 15.5228 0 10 0C4.47715 0 0 4.47715 0 10C0 15.5228 4.47715 20 10 20Z" fill="#FEDA2C"/>
<path d="M10.0017 17.707C14.2592 17.707 17.7105 14.2557 17.7105 9.99825C17.7105 5.74081 14.2592 2.28947 10.0017 2.28947C5.7443 2.28947 2.29297 5.74081 2.29297 9.99825C2.29297 14.2557 5.7443 17.707 10.0017 17.707Z" fill="#FCAA17"/>
<path d="M10.0015 4.07456L11.7546 7.62684L15.6746 8.19649L12.8381 10.9616L13.5078 14.8658L10.0015 13.0225L6.49514 14.8658L7.16479 10.9616L4.32812 8.19649L8.2483 7.62684L10.0015 4.07456Z" fill="#FEDA2C"/>
</g>
<defs>
<clipPath id="clip0_1396_4356">
<rect width="20" height="20" fill="white"/>
</clipPath>
</defs>
</svg>
