<svg width="32" height="32" viewBox="0 0 32 32" fill="none" xmlns="http://www.w3.org/2000/svg">
<path d="M31.5214 19.8694C29.3836 28.4454 20.6947 33.6586 12.131 31.5207C3.55473 29.383 -1.65852 20.6945 0.479358 12.1309C2.61711 3.55486 11.2934 -1.65839 19.8696 0.479481C28.4334 2.60473 33.6592 11.2932 31.5214 19.8694Z" fill="#F7931A"/>
<path d="M23.6187 14.0064C23.9312 11.8814 22.3187 10.7314 20.0937 9.96887L20.8187 7.08137L19.0687 6.64387L18.3687 9.45637C17.9062 9.34387 17.4312 9.23137 16.9562 9.13137L17.6562 6.30637L15.9062 5.86887L15.1937 8.74387C14.8062 8.65637 14.4312 8.56887 14.0687 8.48137V8.46887L11.6437 7.86887L11.1812 9.74387C11.1812 9.74387 12.4812 10.0439 12.4562 10.0564C13.1687 10.2314 13.2937 10.7064 13.2687 11.0814L12.4437 14.3689C12.4937 14.3814 12.5562 14.3939 12.6312 14.4314C12.5687 14.4189 12.5062 14.4064 12.4437 14.3814L11.2937 18.9814C11.2062 19.1939 10.9812 19.5189 10.4937 19.3939C10.5062 19.4189 9.21875 19.0814 9.21875 19.0814L8.34375 21.0939L10.6312 21.6689C11.0562 21.7814 11.4687 21.8814 11.8812 21.9939L11.1562 24.9064L12.9062 25.3439L13.6312 22.4564C14.1062 22.5814 14.5812 22.7064 15.0312 22.8189L14.3187 25.6939L16.0687 26.1314L16.7937 23.2189C19.7937 23.7814 22.0437 23.5564 22.9812 20.8439C23.7437 18.6689 22.9437 17.4064 21.3687 16.5814C22.5312 16.3189 23.3937 15.5564 23.6187 14.0064ZM19.6062 19.6314C19.0687 21.8064 15.3937 20.6314 14.2062 20.3314L15.1687 16.4689C16.3562 16.7689 20.1812 17.3564 19.6062 19.6314ZM20.1562 13.9689C19.6562 15.9564 16.6062 14.9439 15.6187 14.6939L16.4937 11.1939C17.4812 11.4439 20.6687 11.9064 20.1562 13.9689Z" fill="white"/>
</svg>
