<svg width="42" height="43" viewBox="0 0 42 43" fill="none" xmlns="http://www.w3.org/2000/svg">
<g clip-path="url(#clip0_1392_3247)">
<path d="M12.1263 25.0448L19.9999 11.4079L21.4622 11.433L23.8523 11.5251L31.8363 14.2888L37.8184 11.4079C34.5078 4.93281 27.7716 0.5 19.9999 0.5C12.9404 0.5 6.73557 4.15789 3.17627 9.68148V9.69492L3.78143 19.932L12.1263 25.0448Z" fill="#DB4437"/>
<path d="M12.1263 25.0447L3.17633 9.69485L3.17219 9.68774C1.16492 12.8053 0 16.5165 0 20.4999C0 31.228 8.44687 39.9823 19.0526 40.477L26.1998 35.737L27.8722 25.0474L12.1263 25.0447Z" fill="#0F9D58"/>
<path d="M37.8186 11.408H20.0002L27.8738 25.0448L27.8723 25.0475L19.0527 40.4772L19.0597 40.4774C19.3715 40.4919 19.6848 40.5001 20.0002 40.5001C31.0459 40.5001 40.0002 31.5458 40.0002 20.5001C40.0002 17.226 39.2133 14.1358 37.8186 11.408Z" fill="#FFCD40"/>
<path d="M19.9998 29.5922C25.0213 29.5922 29.0919 25.5215 29.0919 20.5001C29.0919 15.4786 25.0213 11.408 19.9998 11.408C14.9784 11.408 10.9077 15.4786 10.9077 20.5001C10.9077 25.5215 14.9784 29.5922 19.9998 29.5922Z" fill="#F1F1F1"/>
<path d="M20.0002 27.7737C24.0174 27.7737 27.2739 24.5171 27.2739 20.5C27.2739 16.4829 24.0174 13.2263 20.0002 13.2263C15.9831 13.2263 12.7266 16.4829 12.7266 20.5C12.7266 24.5171 15.9831 27.7737 20.0002 27.7737Z" fill="#4285F4"/>
</g>
<path d="M41.5 33.5C41.5 38.1944 37.6944 42 33 42C28.3056 42 24.5 38.1944 24.5 33.5C24.5 28.8056 28.3056 25 33 25C37.6944 25 41.5 28.8056 41.5 33.5Z" fill="url(#paint0_linear_1392_3247)" stroke="white"/>
<path d="M35.8025 29.5811C35.5759 29.5437 35.3438 29.565 35.1274 29.6429C34.911 29.7209 34.7174 29.853 34.5643 30.0271C34.2722 30.3604 34.1813 30.7943 34.2514 31.229C34.315 31.6211 34.3993 32.0191 34.4182 32.3968C34.4448 32.9657 34.3597 33.5344 34.168 34.0695C33.9946 34.5537 33.7475 34.9291 33.218 35.0122C33.1787 35.0185 33.0357 35.023 32.9951 35.0253C32.9546 35.0275 32.8261 35.019 32.7864 35.0127C32.2569 34.9296 32.0076 34.5541 31.8346 34.0668C31.6429 33.5317 31.5579 32.9631 31.5844 32.3941C31.6034 32.0177 31.6877 31.6193 31.7512 31.2263C31.8214 30.7916 31.7305 30.3577 31.4383 30.0244C31.2848 29.8504 31.0907 29.7186 30.8739 29.6411C30.6571 29.5637 30.4246 29.543 30.1979 29.5811C29.5188 29.6938 29.0665 30.3074 29.0625 30.951C29.0606 31.199 29.1268 31.4426 29.2536 31.6544C29.465 32.0092 29.8118 32.2679 30.1145 32.5365C30.3149 32.7162 30.6613 33.226 30.8312 33.7784C30.934 34.113 31.0178 34.4521 31.1008 34.7944C31.2173 35.2714 31.3774 36.3251 31.4829 36.8035C31.6934 37.761 32.3377 37.978 32.9832 38H33.0062C33.6518 37.978 34.3066 37.7606 34.5171 36.803C34.6221 36.3247 34.7818 35.2705 34.8992 34.794C34.9826 34.4535 35.066 34.1126 35.1688 33.778C35.3387 33.2255 35.6851 32.7139 35.8855 32.5361C36.1882 32.2666 36.5346 32.0088 36.7464 31.6539C36.8732 31.4421 36.9394 31.1985 36.9375 30.9505C36.9339 30.3056 36.4834 29.6916 35.8025 29.5811Z" fill="white"/>
<defs>
<linearGradient id="paint0_linear_1392_3247" x1="26.7692" y1="27.6154" x2="39.9231" y2="39.7308" gradientUnits="userSpaceOnUse">
<stop stop-color="#0DA670"/>
<stop offset="1" stop-color="#2B4DAC"/>
</linearGradient>
<clipPath id="clip0_1392_3247">
<rect width="40" height="40" fill="white" transform="translate(0 0.5)"/>
</clipPath>
</defs>
</svg>
