<svg width="30" height="30" viewBox="0 0 30 30" fill="none" xmlns="http://www.w3.org/2000/svg">
<path d="M8.90625 13.125C11.2362 13.125 13.125 11.2362 13.125 8.90625C13.125 6.5763 11.2362 4.6875 8.90625 4.6875C6.5763 4.6875 4.6875 6.5763 4.6875 8.90625C4.6875 11.2362 6.5763 13.125 8.90625 13.125Z" stroke="#E2E46F" stroke-width="1.5" stroke-linecap="round" stroke-linejoin="round"/>
<path d="M21.0938 13.125C23.4237 13.125 25.3125 11.2362 25.3125 8.90625C25.3125 6.5763 23.4237 4.6875 21.0938 4.6875C18.7638 4.6875 16.875 6.5763 16.875 8.90625C16.875 11.2362 18.7638 13.125 21.0938 13.125Z" stroke="#E2E46F" stroke-width="1.5" stroke-linecap="round" stroke-linejoin="round"/>
<path d="M8.90625 25.3125C11.2362 25.3125 13.125 23.4237 13.125 21.0938C13.125 18.7638 11.2362 16.875 8.90625 16.875C6.5763 16.875 4.6875 18.7638 4.6875 21.0938C4.6875 23.4237 6.5763 25.3125 8.90625 25.3125Z" stroke="#E2E46F" stroke-width="1.5" stroke-linecap="round" stroke-linejoin="round"/>
<path d="M21.0938 25.3125C23.4237 25.3125 25.3125 23.4237 25.3125 21.0938C25.3125 18.7638 23.4237 16.875 21.0938 16.875C18.7638 16.875 16.875 18.7638 16.875 21.0938C16.875 23.4237 18.7638 25.3125 21.0938 25.3125Z" stroke="#E2E46F" stroke-width="1.5" stroke-linecap="round" stroke-linejoin="round"/>
</svg>
