<svg width="30" height="30" viewBox="0 0 30 30" fill="none" xmlns="http://www.w3.org/2000/svg">
<path d="M17.8162 12.3147C17.9517 12.7061 18.3788 12.9137 18.7703 12.7782C19.1617 12.6428 19.3692 12.2156 19.2338 11.8242L17.8162 12.3147ZM16.5 10.5417L16.5329 9.79239C16.522 9.7919 16.511 9.79166 16.5 9.79166V10.5417ZM13.5 15.125V15.875V15.125ZM16.5 19.7083V20.4583V19.7083ZM13.5 19.7083L13.467 20.4576C13.478 20.4581 13.489 20.4583 13.5 20.4583V19.7083ZM12.1838 17.9353C12.0483 17.5439 11.6212 17.3363 11.2297 17.4718C10.8383 17.6072 10.6308 18.0344 10.7662 18.4258L12.1838 17.9353ZM15.75 8.25C15.75 7.83578 15.4142 7.5 15 7.5C14.5858 7.5 14.25 7.83578 14.25 8.25H15.75ZM14.25 10.5417C14.25 10.9559 14.5858 11.2917 15 11.2917C15.4142 11.2917 15.75 10.9559 15.75 10.5417H14.25ZM15.75 19.7083C15.75 19.2941 15.4142 18.9583 15 18.9583C14.5858 18.9583 14.25 19.2941 14.25 19.7083H15.75ZM14.25 22C14.25 22.4142 14.5858 22.75 15 22.75C15.4142 22.75 15.75 22.4142 15.75 22H14.25ZM19.2338 11.8242C19.0363 11.2535 18.6749 10.7539 18.1939 10.391L17.2905 11.5884C17.5313 11.7701 17.7151 12.0225 17.8162 12.3147L19.2338 11.8242ZM18.1939 10.391C17.7127 10.028 17.1343 9.81883 16.5329 9.79239L16.467 11.2909C16.7631 11.304 17.0499 11.4069 17.2905 11.5884L18.1939 10.391ZM16.5 9.79166H13.5V11.2917H16.5V9.79166ZM13.5 9.79166C12.6999 9.79166 11.9353 10.1155 11.3738 10.6874L12.4442 11.7383C12.7266 11.4507 13.1067 11.2917 13.5 11.2917V9.79166ZM11.3738 10.6874C10.8128 11.2589 10.5 12.031 10.5 12.8333H12C12 12.4201 12.1613 12.0264 12.4442 11.7383L11.3738 10.6874ZM10.5 12.8333C10.5 13.6356 10.8128 14.4078 11.3738 14.9792L12.4442 13.9283C12.1613 13.6402 12 13.2466 12 12.8333H10.5ZM11.3738 14.9792C11.9353 15.5511 12.6999 15.875 13.5 15.875V14.375C13.1067 14.375 12.7266 14.216 12.4442 13.9283L11.3738 14.9792ZM13.5 15.875H16.5V14.375H13.5V15.875ZM16.5 15.875C16.8933 15.875 17.2734 16.034 17.5558 16.3217L18.6262 15.2708C18.0647 14.6989 17.3001 14.375 16.5 14.375V15.875ZM17.5558 16.3217C17.8387 16.6098 18 17.0034 18 17.4167H19.5C19.5 16.6144 19.1872 15.8422 18.6262 15.2708L17.5558 16.3217ZM18 17.4167C18 17.8299 17.8387 18.2236 17.5558 18.5117L18.6262 19.5626C19.1872 18.9911 19.5 18.219 19.5 17.4167H18ZM17.5558 18.5117C17.2734 18.7993 16.8933 18.9583 16.5 18.9583V20.4583C17.3001 20.4583 18.0647 20.1345 18.6262 19.5626L17.5558 18.5117ZM16.5 18.9583H13.5V20.4583H16.5V18.9583ZM13.5329 18.9591C13.2369 18.946 12.9501 18.8431 12.7095 18.6616L11.8061 19.859C12.2873 20.222 12.8657 20.4312 13.467 20.4576L13.5329 18.9591ZM12.7095 18.6616C12.4687 18.4799 12.2849 18.2275 12.1838 17.9353L10.7662 18.4258C10.9637 18.9965 11.3251 19.4961 11.8061 19.859L12.7095 18.6616ZM14.25 8.25V10.5417H15.75V8.25H14.25ZM14.25 19.7083V22H15.75V19.7083H14.25ZM26.25 15C26.25 21.2132 21.2132 26.25 15 26.25V27.75C22.0416 27.75 27.75 22.0416 27.75 15H26.25ZM15 26.25C8.7868 26.25 3.75 21.2132 3.75 15H2.25C2.25 22.0416 7.95837 27.75 15 27.75V26.25ZM3.75 15C3.75 8.7868 8.7868 3.75 15 3.75V2.25C7.95837 2.25 2.25 7.95837 2.25 15H3.75ZM15 3.75C21.2132 3.75 26.25 8.7868 26.25 15H27.75C27.75 7.95837 22.0416 2.25 15 2.25V3.75Z" fill="#E2E46F"/>
</svg>
