<svg width="32" height="32" viewBox="0 0 32 32" fill="none" xmlns="http://www.w3.org/2000/svg">
<g clip-path="url(#clip0_1335_7551)">
<path d="M16 32.0001C24.8366 32.0001 32 24.8367 32 16.0001C32 7.16355 24.8366 0.000106812 16 0.000106812C7.16344 0.000106812 0 7.16355 0 16.0001C0 24.8367 7.16344 32.0001 16 32.0001Z" fill="#627EEA"/>
<path d="M16.138 6.00011L16.0039 6.45584V19.6803L16.138 19.8141L22.2766 16.1856L16.138 6.00011Z" fill="#C0CCF7"/>
<path d="M16.1386 6.00011L10 16.1856L16.1386 19.8142V13.3954V6.00011Z" fill="white"/>
<path d="M16.1381 20.9764L16.0625 21.0685V25.7794L16.1381 26.0001L22.2803 17.3497L16.1381 20.9764Z" fill="#C0CCF7"/>
<path d="M16.1386 26V20.9763L10 17.3496L16.1386 26Z" fill="white"/>
<path d="M16.1372 19.8141L22.2757 16.1856L16.1372 13.3954V19.8141Z" fill="#8198EE"/>
<path d="M10 16.1856L16.1385 19.8141V13.3954L10 16.1856Z" fill="#C0CCF7"/>
</g>
<defs>
<clipPath id="clip0_1335_7551">
<rect width="32" height="32" fill="white"/>
</clipPath>
</defs>
</svg>
