<svg width="30" height="30" viewBox="0 0 30 30" fill="none" xmlns="http://www.w3.org/2000/svg">
<path d="M11.25 19.6875C15.9099 19.6875 19.6875 15.9099 19.6875 11.25C19.6875 6.5901 15.9099 2.8125 11.25 2.8125C6.5901 2.8125 2.8125 6.5901 2.8125 11.25C2.8125 15.9099 6.5901 19.6875 11.25 19.6875Z" stroke="#E2E46F" stroke-width="1.5" stroke-linecap="round" stroke-linejoin="round"/>
<path d="M18.75 27.1875C23.4099 27.1875 27.1875 23.4099 27.1875 18.75C27.1875 14.0901 23.4099 10.3125 18.75 10.3125C14.0901 10.3125 10.3125 14.0901 10.3125 18.75C10.3125 23.4099 14.0901 27.1875 18.75 27.1875Z" stroke="#E2E46F" stroke-width="1.5" stroke-linecap="round" stroke-linejoin="round"/>
<path d="M14.3555 11.543L18.457 15.6445" stroke="#E2E46F" stroke-width="1.5" stroke-linecap="round" stroke-linejoin="round"/>
<path d="M11.543 14.3555L15.6445 18.457" stroke="#E2E46F" stroke-width="1.5" stroke-linecap="round" stroke-linejoin="round"/>
</svg>
