<svg width="76" height="20" viewBox="0 0 76 20" fill="none" xmlns="http://www.w3.org/2000/svg">
<g clip-path="url(#clip0_1296_775)">
<path d="M3.44926 1.12877L6.28135 5.91521H6.39107L9.23687 1.12877H12.5901L8.30427 8.15071L12.6861 15.1727H9.27116L6.39107 10.3794H6.28135L3.40125 15.1727H0L4.39557 8.15071L0.0822884 1.12877H3.44926Z" fill="white"/>
<path d="M14.4142 19.1225V4.63974H17.2943V6.40894H17.4246C17.5526 6.1255 17.7377 5.83749 17.98 5.54491C18.2269 5.24776 18.5469 5.0009 18.94 4.80432C19.3378 4.60317 19.8315 4.50259 20.4212 4.50259C21.1893 4.50259 21.8979 4.70374 22.547 5.10604C23.1962 5.50377 23.7151 6.10493 24.1036 6.90953C24.4922 7.70956 24.6865 8.71302 24.6865 9.91991C24.6865 11.0948 24.4968 12.0868 24.1174 12.896C23.7425 13.7006 23.2305 14.3109 22.5813 14.7269C21.9367 15.1384 21.2144 15.3441 20.4144 15.3441C19.8475 15.3441 19.3652 15.2504 18.9675 15.0629C18.5743 14.8755 18.252 14.6401 18.0006 14.3566C17.7492 14.0686 17.5571 13.7783 17.4246 13.4857H17.3354V19.1225H14.4142ZM17.2737 9.9062C17.2737 10.5325 17.3606 11.0788 17.5343 11.5451C17.708 12.0114 17.9594 12.3749 18.2886 12.6354C18.6178 12.8914 19.0178 13.0194 19.4886 13.0194C19.9641 13.0194 20.3664 12.8892 20.6955 12.6286C21.0247 12.3634 21.2738 11.9977 21.443 11.5314C21.6167 11.0605 21.7036 10.5188 21.7036 9.9062C21.7036 9.29818 21.619 8.7633 21.4498 8.30158C21.2807 7.83985 21.0315 7.47869 20.7024 7.21811C20.3732 6.95753 19.9687 6.82724 19.4886 6.82724C19.0132 6.82724 18.6109 6.95296 18.2817 7.2044C17.9572 7.45583 17.708 7.81242 17.5343 8.27415C17.3606 8.73587 17.2737 9.27989 17.2737 9.9062Z" fill="white"/>
<path d="M29.6375 15.3715C28.9655 15.3715 28.3666 15.2549 27.8409 15.0218C27.3152 14.7841 26.8992 14.4343 26.5929 13.9726C26.2911 13.5063 26.1403 12.9257 26.1403 12.2308C26.1403 11.6457 26.2477 11.1542 26.4626 10.7565C26.6774 10.3588 26.97 10.0388 27.3403 9.79648C27.7106 9.55419 28.1312 9.37132 28.6021 9.24789C29.0775 9.12446 29.5758 9.0376 30.097 8.98731C30.7096 8.92331 31.2033 8.86388 31.5782 8.80902C31.953 8.74959 32.2251 8.66273 32.3942 8.54844C32.5634 8.43415 32.6479 8.265 32.6479 8.04099V7.99985C32.6479 7.56555 32.5108 7.22954 32.2365 6.99182C31.9668 6.7541 31.5827 6.63524 31.0844 6.63524C30.5587 6.63524 30.1404 6.75181 29.8295 6.98496C29.5187 7.21354 29.313 7.50155 29.2124 7.84899L26.5106 7.62955C26.6477 6.98953 26.9174 6.43637 27.3197 5.97007C27.722 5.4992 28.2409 5.13804 28.8764 4.88661C29.5164 4.6306 30.257 4.50259 31.0982 4.50259C31.6833 4.50259 32.2433 4.57117 32.7782 4.70831C33.3177 4.84546 33.7954 5.05804 34.2114 5.34605C34.632 5.63406 34.9634 6.00436 35.2057 6.45694C35.448 6.90496 35.5692 7.44212 35.5692 8.06842V15.1727H32.7988V13.712H32.7165C32.5474 14.0412 32.3211 14.3315 32.0376 14.5829C31.7542 14.8298 31.4136 15.0241 31.0159 15.1658C30.6181 15.3029 30.1587 15.3715 29.6375 15.3715ZM30.4741 13.3555C30.9039 13.3555 31.2833 13.2709 31.6125 13.1017C31.9416 12.928 32.1999 12.6949 32.3873 12.4023C32.5748 12.1097 32.6685 11.7783 32.6685 11.408V10.2902C32.5771 10.3496 32.4513 10.4045 32.2913 10.4548C32.1359 10.5005 31.9599 10.5439 31.7633 10.5851C31.5667 10.6217 31.3702 10.6559 31.1736 10.6879C30.977 10.7154 30.7987 10.7405 30.6387 10.7634C30.2958 10.8137 29.9964 10.8937 29.7404 11.0034C29.4844 11.1131 29.2855 11.2617 29.1438 11.4491C29.0021 11.632 28.9312 11.8605 28.9312 12.1348C28.9312 12.5326 29.0752 12.8366 29.3632 13.0469C29.6558 13.2526 30.0261 13.3555 30.4741 13.3555Z" fill="white"/>
<path d="M40.7568 9.08331V15.1727H37.8355V4.63974H40.6196V6.49809H40.743C40.9762 5.8855 41.3671 5.40091 41.9157 5.04432C42.4642 4.68317 43.1294 4.50259 43.9111 4.50259C44.6426 4.50259 45.2803 4.6626 45.8244 4.98261C46.3684 5.30262 46.7912 5.75978 47.093 6.35408C47.3947 6.94382 47.5456 7.64784 47.5456 8.46615V15.1727H44.6243V8.98731C44.6289 8.34272 44.4643 7.83985 44.1306 7.47869C43.7969 7.11296 43.3374 6.9301 42.7523 6.9301C42.3591 6.9301 42.0117 7.01468 41.7099 7.18382C41.4128 7.35297 41.1796 7.59984 41.0105 7.92442C40.8459 8.24443 40.7613 8.63073 40.7568 9.08331Z" fill="white"/>
<path d="M53.7292 15.3441C52.9292 15.3441 52.2046 15.1384 51.5554 14.7269C50.9108 14.3109 50.3988 13.7006 50.0193 12.896C49.6445 12.0868 49.457 11.0948 49.457 9.91991C49.457 8.71302 49.6513 7.70956 50.0399 6.90953C50.4285 6.10493 50.9451 5.50377 51.5897 5.10604C52.2389 4.70374 52.9497 4.50259 53.7223 4.50259C54.3121 4.50259 54.8035 4.60317 55.1967 4.80432C55.5944 5.0009 55.9144 5.24776 56.1567 5.54491C56.4036 5.83749 56.591 6.1255 56.719 6.40894H56.8081V1.12877H59.7225V15.1727H56.8424V13.4857H56.719C56.5819 13.7783 56.3876 14.0686 56.1361 14.3566C55.8893 14.6401 55.567 14.8755 55.1692 15.0629C54.7761 15.2504 54.2961 15.3441 53.7292 15.3441ZM54.6549 13.0194C55.1258 13.0194 55.5235 12.8914 55.8481 12.6354C56.1773 12.3749 56.4287 12.0114 56.6024 11.5451C56.7807 11.0788 56.8699 10.5325 56.8699 9.9062C56.8699 9.27989 56.783 8.73587 56.6093 8.27415C56.4356 7.81242 56.1841 7.45583 55.855 7.2044C55.5258 6.95296 55.1258 6.82724 54.6549 6.82724C54.1749 6.82724 53.7703 6.95753 53.4412 7.21811C53.112 7.47869 52.8629 7.83985 52.6937 8.30158C52.5246 8.7633 52.44 9.29818 52.44 9.9062C52.44 10.5188 52.5246 11.0605 52.6937 11.5314C52.8674 11.9977 53.1166 12.3634 53.4412 12.6286C53.7703 12.8892 54.1749 13.0194 54.6549 13.0194Z" fill="white"/>
<path d="M69.6453 7.94262C69.6453 8.12161 69.7904 8.2667 69.9694 8.2667C70.1484 8.2667 70.2935 8.12161 70.2935 7.94262C70.2935 7.76366 70.1484 7.61853 69.9694 7.61853C69.7904 7.61853 69.6453 7.76366 69.6453 7.94262Z" fill="#E2E46F"/>
<path d="M68.6204 6.20972C68.6204 6.38871 68.7655 6.5338 68.9445 6.5338C69.1235 6.5338 69.2686 6.38871 69.2686 6.20972C69.2686 6.03077 69.1235 5.88564 68.9445 5.88564C68.7655 5.88564 68.6204 6.03077 68.6204 6.20972Z" fill="#E2E46F"/>
<path d="M67.5965 4.4775C67.5965 4.65649 67.7416 4.80158 67.9205 4.80158C68.0995 4.80158 68.2446 4.65649 68.2446 4.4775C68.2446 4.2985 68.0995 4.15341 67.9205 4.15341C67.7416 4.15341 67.5965 4.2985 67.5965 4.4775Z" fill="#E2E46F"/>
<path d="M66.5716 2.74529C66.5716 2.92428 66.7167 3.06937 66.8956 3.06937C67.0746 3.06937 67.2197 2.92428 67.2197 2.74529C67.2197 2.5663 67.0746 2.4212 66.8956 2.4212C66.7167 2.4212 66.5716 2.5663 66.5716 2.74529Z" fill="#E2E46F"/>
<path d="M65.552 1.01374C65.552 1.19273 65.6972 1.33782 65.8761 1.33782C66.0551 1.33782 66.2002 1.19273 66.2002 1.01374C66.2002 0.834746 66.0551 0.689651 65.8761 0.689651C65.6972 0.689651 65.552 0.834746 65.552 1.01374Z" fill="#E2E46F"/>
<path d="M67.3013 7.94209C67.3013 8.30003 67.5915 8.59026 67.9495 8.59026C68.3075 8.59026 68.5977 8.30003 68.5977 7.94209C68.5977 7.5841 68.3075 7.29391 67.9495 7.29391C67.5915 7.29391 67.3013 7.5841 67.3013 7.94209Z" fill="#E2E46F"/>
<path d="M66.2774 6.21053C66.2774 6.56848 66.5676 6.8587 66.9256 6.8587C67.2835 6.8587 67.5737 6.56848 67.5737 6.21053C67.5737 5.85255 67.2835 5.56236 66.9256 5.56236C66.5676 5.56236 66.2774 5.85255 66.2774 6.21053Z" fill="#E2E46F"/>
<path d="M65.2525 4.47831C65.2525 4.83629 65.5427 5.12648 65.9007 5.12648C66.2586 5.12648 66.5488 4.83629 66.5488 4.47831C66.5488 4.12036 66.2586 3.83014 65.9007 3.83014C65.5427 3.83014 65.2525 4.12036 65.2525 4.47831Z" fill="#E2E46F"/>
<path d="M64.233 2.74542C64.233 3.10336 64.5231 3.39358 64.8811 3.39358C65.2391 3.39358 65.5293 3.10336 65.5293 2.74542C65.5293 2.38743 65.2391 2.09724 64.8811 2.09724C64.5231 2.09724 64.233 2.38743 64.233 2.74542Z" fill="#E2E46F"/>
<path d="M63.5325 1.01374C63.5325 1.19273 63.6776 1.33782 63.8566 1.33782C64.0356 1.33782 64.1807 1.19273 64.1807 1.01374C64.1807 0.834746 64.0356 0.689651 63.8566 0.689651C63.6776 0.689651 63.5325 0.834746 63.5325 1.01374Z" fill="#E2E46F"/>
<path d="M65.2832 7.94209C65.2832 8.30003 65.5734 8.59026 65.9314 8.59026C66.2894 8.59026 66.5796 8.30003 66.5796 7.94209C66.5796 7.5841 66.2894 7.29391 65.9314 7.29391C65.5734 7.29391 65.2832 7.5841 65.2832 7.94209Z" fill="#E2E46F"/>
<path d="M64.2583 6.21053C64.2583 6.56848 64.5485 6.8587 64.9065 6.8587C65.2645 6.8587 65.5547 6.56848 65.5547 6.21053C65.5547 5.85255 65.2645 5.56236 64.9065 5.56236C64.5485 5.56236 64.2583 5.85255 64.2583 6.21053Z" fill="#E2E46F"/>
<path d="M63.2388 4.47831C63.2388 4.83629 63.529 5.12648 63.887 5.12648C64.2449 5.12648 64.5352 4.83629 64.5352 4.47831C64.5352 4.12036 64.2449 3.83014 63.887 3.83014C63.529 3.83014 63.2388 4.12036 63.2388 4.47831Z" fill="#E2E46F"/>
<path d="M62.2139 2.74542C62.2139 3.10336 62.5041 3.39358 62.8621 3.39358C63.22 3.39358 63.5103 3.10336 63.5103 2.74542C63.5103 2.38743 63.22 2.09724 62.8621 2.09724C62.5041 2.09724 62.2139 2.38743 62.2139 2.74542Z" fill="#E2E46F"/>
<path d="M61.5135 1.01374C61.5135 1.19273 61.6585 1.33782 61.8375 1.33782C62.0165 1.33782 62.1616 1.19273 62.1616 1.01374C62.1616 0.834746 62.0165 0.689651 61.8375 0.689651C61.6585 0.689651 61.5135 0.834746 61.5135 1.01374Z" fill="#E2E46F"/>
<path d="M69.6453 7.91635C69.6453 8.09535 69.7904 8.24044 69.9694 8.24044C70.1484 8.24044 70.2935 8.09535 70.2935 7.91635C70.2935 7.73736 70.1484 7.59227 69.9694 7.59227C69.7904 7.59227 69.6453 7.73736 69.6453 7.91635Z" fill="#E2E46F"/>
<path d="M68.6204 9.6486C68.6204 9.82756 68.7655 9.97265 68.9445 9.97265C69.1235 9.97265 69.2686 9.82756 69.2686 9.6486C69.2686 9.46961 69.1235 9.32448 68.9445 9.32448C68.7655 9.32448 68.6204 9.46961 68.6204 9.6486Z" fill="#E2E46F"/>
<path d="M67.5965 11.3808C67.5965 11.5598 67.7416 11.7049 67.9205 11.7049C68.0995 11.7049 68.2446 11.5598 68.2446 11.3808C68.2446 11.2018 68.0995 11.0567 67.9205 11.0567C67.7416 11.0567 67.5965 11.2018 67.5965 11.3808Z" fill="#E2E46F"/>
<path d="M66.5716 13.1123C66.5716 13.2913 66.7167 13.4364 66.8956 13.4364C67.0746 13.4364 67.2197 13.2913 67.2197 13.1123C67.2197 12.9333 67.0746 12.7883 66.8956 12.7883C66.7167 12.7883 66.5716 12.9333 66.5716 13.1123Z" fill="#E2E46F"/>
<path d="M65.552 14.8486C65.552 15.0276 65.6972 15.1727 65.8761 15.1727C66.0551 15.1727 66.2002 15.0276 66.2002 14.8486C66.2002 14.6696 66.0551 14.5245 65.8761 14.5245C65.6972 14.5245 65.552 14.6696 65.552 14.8486Z" fill="#E2E46F"/>
<path d="M67.3013 7.91581C67.3013 8.27379 67.5915 8.56398 67.9495 8.56398C68.3075 8.56398 68.5977 8.27379 68.5977 7.91581C68.5977 7.55783 68.3075 7.26764 67.9495 7.26764C67.5915 7.26764 67.3013 7.55783 67.3013 7.91581Z" fill="#E2E46F"/>
<path d="M66.2774 9.64803C66.2774 10.006 66.5676 10.2962 66.9256 10.2962C67.2835 10.2962 67.5737 10.006 67.5737 9.64803C67.5737 9.29005 67.2835 8.99986 66.9256 8.99986C66.5676 8.99986 66.2774 9.29005 66.2774 9.64803Z" fill="#E2E46F"/>
<path d="M65.2525 11.3803C65.2525 11.7382 65.5427 12.0284 65.9007 12.0284C66.2586 12.0284 66.5488 11.7382 66.5488 11.3803C66.5488 11.0223 66.2586 10.7321 65.9007 10.7321C65.5427 10.7321 65.2525 11.0223 65.2525 11.3803Z" fill="#E2E46F"/>
<path d="M64.233 13.1124C64.233 13.4704 64.5231 13.7606 64.8811 13.7606C65.2391 13.7606 65.5293 13.4704 65.5293 13.1124C65.5293 12.7545 65.2391 12.4643 64.8811 12.4643C64.5231 12.4643 64.233 12.7545 64.233 13.1124Z" fill="#E2E46F"/>
<path d="M63.5325 14.8486C63.5325 15.0276 63.6776 15.1727 63.8566 15.1727C64.0356 15.1727 64.1807 15.0276 64.1807 14.8486C64.1807 14.6696 64.0356 14.5245 63.8566 14.5245C63.6776 14.5245 63.5325 14.6696 63.5325 14.8486Z" fill="#E2E46F"/>
<path d="M65.2832 7.91581C65.2832 8.27379 65.5734 8.56398 65.9314 8.56398C66.2894 8.56398 66.5796 8.27379 66.5796 7.91581C66.5796 7.55783 66.2894 7.26764 65.9314 7.26764C65.5734 7.26764 65.2832 7.55783 65.2832 7.91581Z" fill="#E2E46F"/>
<path d="M64.2583 9.64803C64.2583 10.006 64.5485 10.2962 64.9065 10.2962C65.2645 10.2962 65.5547 10.006 65.5547 9.64803C65.5547 9.29005 65.2645 8.99986 64.9065 8.99986C64.5485 8.99986 64.2583 9.29005 64.2583 9.64803Z" fill="#E2E46F"/>
<path d="M63.2388 11.3803C63.2388 11.7382 63.529 12.0284 63.887 12.0284C64.2449 12.0284 64.5352 11.7382 64.5352 11.3803C64.5352 11.0223 64.2449 10.7321 63.887 10.7321C63.529 10.7321 63.2388 11.0223 63.2388 11.3803Z" fill="#E2E46F"/>
<path d="M62.2139 13.1124C62.2139 13.4704 62.5041 13.7606 62.8621 13.7606C63.22 13.7606 63.5103 13.4704 63.5103 13.1124C63.5103 12.7545 63.22 12.4643 62.8621 12.4643C62.5041 12.4643 62.2139 12.7545 62.2139 13.1124Z" fill="#E2E46F"/>
<path d="M61.5135 14.8486C61.5135 15.0276 61.6585 15.1727 61.8375 15.1727C62.0165 15.1727 62.1616 15.0276 62.1616 14.8486C62.1616 14.6696 62.0165 14.5245 61.8375 14.5245C61.6585 14.5245 61.5135 14.6696 61.5135 14.8486Z" fill="#E2E46F"/>
<path fill-rule="evenodd" clip-rule="evenodd" d="M68.9307 12.3327L70.4793 15.1719H75.3069L71.3492 7.9162L68.9307 12.3327Z" fill="#E2E46F"/>
<path fill-rule="evenodd" clip-rule="evenodd" d="M71.3492 7.94536L68.9307 3.52885L70.4793 0.689651H75.3069L71.3492 7.94536Z" fill="#E2E46F"/>
</g>
<defs>
<clipPath id="clip0_1296_775">
<rect width="75.1724" height="20" fill="white"/>
</clipPath>
</defs>
</svg>
