<svg width="42" height="42" viewBox="0 0 42 42" fill="none" xmlns="http://www.w3.org/2000/svg">
<path d="M29.1749 40H10.8248C9.0468 40 7.60547 38.5587 7.60547 36.7807V3.2193C7.60547 1.44133 9.0468 0 10.8248 0H29.1748C30.9528 0 32.3941 1.44133 32.3941 3.2193V36.7807C32.3942 38.5587 30.9529 40 29.1749 40Z" fill="#27272A"/>
<path d="M25.9117 3.05846C25.9117 3.65939 25.4246 4.1465 24.8236 4.1465H15.1763C14.5753 4.1465 14.0882 3.65939 14.0882 3.05846C14.0882 2.97391 14.0716 2.89018 14.0392 2.81206C14.0069 2.73394 13.9595 2.66297 13.8997 2.60318C13.8399 2.54339 13.7689 2.49597 13.6908 2.46362C13.6127 2.43126 13.5289 2.41462 13.4444 2.41463H11.2273C10.5606 2.41463 10.02 2.9551 10.02 3.62189V36.3785C10.02 37.0452 10.5605 37.5857 11.2273 37.5857H28.7726C29.4393 37.5857 29.9799 37.0453 29.9799 36.3785V3.62182C29.9799 2.9551 29.4394 2.41455 28.7726 2.41455H26.5555C26.3847 2.41457 26.221 2.48242 26.1002 2.60317C25.9795 2.72393 25.9117 2.8877 25.9117 3.05846Z" fill="#71717A"/>
<path d="M20.0001 2.67691C20.3334 2.67691 20.6037 2.40668 20.6037 2.07332C20.6037 1.73996 20.3334 1.46973 20.0001 1.46973C19.6667 1.46973 19.3965 1.73996 19.3965 2.07332C19.3965 2.40668 19.6667 2.67691 20.0001 2.67691Z" fill="#71717A"/>
<path d="M41.5 33C41.5 37.6944 37.6944 41.5 33 41.5C28.3056 41.5 24.5 37.6944 24.5 33C24.5 28.3056 28.3056 24.5 33 24.5C37.6944 24.5 41.5 28.3056 41.5 33Z" fill="url(#paint0_linear_1392_3267)" stroke="white"/>
<path d="M35.8025 29.0811C35.5759 29.0437 35.3438 29.065 35.1274 29.1429C34.911 29.2209 34.7174 29.353 34.5643 29.5271C34.2722 29.8604 34.1813 30.2943 34.2514 30.729C34.315 31.1211 34.3993 31.5191 34.4182 31.8968C34.4448 32.4657 34.3597 33.0344 34.168 33.5695C33.9946 34.0537 33.7475 34.4291 33.218 34.5122C33.1787 34.5185 33.0357 34.523 32.9951 34.5253C32.9546 34.5275 32.8261 34.519 32.7864 34.5127C32.2569 34.4296 32.0076 34.0541 31.8346 33.5668C31.6429 33.0317 31.5579 32.4631 31.5844 31.8941C31.6034 31.5177 31.6877 31.1193 31.7512 30.7263C31.8214 30.2916 31.7305 29.8577 31.4383 29.5244C31.2848 29.3504 31.0907 29.2186 30.8739 29.1411C30.6571 29.0637 30.4246 29.043 30.1979 29.0811C29.5188 29.1938 29.0665 29.8074 29.0625 30.451C29.0606 30.699 29.1268 30.9426 29.2536 31.1544C29.465 31.5092 29.8118 31.7679 30.1145 32.0365C30.3149 32.2162 30.6613 32.726 30.8312 33.2784C30.934 33.613 31.0178 33.9521 31.1008 34.2944C31.2173 34.7714 31.3774 35.8251 31.4829 36.3035C31.6934 37.261 32.3377 37.478 32.9832 37.5H33.0062C33.6518 37.478 34.3066 37.2606 34.5171 36.303C34.6221 35.8247 34.7818 34.7705 34.8992 34.294C34.9826 33.9535 35.066 33.6126 35.1688 33.278C35.3387 32.7255 35.6851 32.2139 35.8855 32.0361C36.1882 31.7666 36.5346 31.5088 36.7464 31.1539C36.8732 30.9421 36.9394 30.6985 36.9375 30.4505C36.9339 29.8056 36.4834 29.1916 35.8025 29.0811Z" fill="white"/>
<defs>
<linearGradient id="paint0_linear_1392_3267" x1="26.7692" y1="27.1154" x2="39.9231" y2="39.2308" gradientUnits="userSpaceOnUse">
<stop stop-color="#0DA670"/>
<stop offset="1" stop-color="#2B4DAC"/>
</linearGradient>
</defs>
</svg>
