<svg width="30" height="30" viewBox="0 0 30 30" fill="none" xmlns="http://www.w3.org/2000/svg">
<path d="M18.001 15.0029C18.001 15.3681 18.297 15.6641 18.6621 15.6641C19.0273 15.6641 19.3232 15.3681 19.3232 15.0029C19.3232 14.6379 19.0273 14.3418 18.6621 14.3418C18.297 14.3418 18.001 14.6379 18.001 15.0029Z" fill="#E2E46F"/>
<path d="M15.9097 11.4697C15.9097 11.8349 16.2057 12.1309 16.5708 12.1309C16.9359 12.1309 17.2319 11.8349 17.2319 11.4697C17.2319 11.1047 16.9359 10.8086 16.5708 10.8086C16.2057 10.8086 15.9097 11.1047 15.9097 11.4697Z" fill="#E2E46F"/>
<path d="M13.8213 7.93457C13.8213 8.29971 14.1174 8.59571 14.4824 8.59571C14.8476 8.59571 15.1436 8.29971 15.1436 7.93457C15.1436 7.56943 14.8476 7.27344 14.4824 7.27344C14.1174 7.27344 13.8213 7.56943 13.8213 7.93457Z" fill="#E2E46F"/>
<path d="M11.7305 4.39941C11.7305 4.76456 12.0265 5.06055 12.3916 5.06055C12.7567 5.06055 13.0527 4.76456 13.0527 4.39941C13.0527 4.03427 12.7567 3.73828 12.3916 3.73828C12.0265 3.73828 11.7305 4.03427 11.7305 4.39941Z" fill="#E2E46F"/>
<path d="M9.65039 0.868167C9.65039 1.23331 9.94645 1.5293 10.3115 1.5293C10.6767 1.5293 10.9727 1.23331 10.9727 0.868167C10.9727 0.503024 10.6767 0.207031 10.3115 0.207031C9.94645 0.207031 9.65039 0.503024 9.65039 0.868167Z" fill="#E2E46F"/>
<path d="M13.2192 15.002C13.2192 15.7322 13.8112 16.3242 14.5415 16.3242C15.2718 16.3242 15.8638 15.7322 15.8638 15.002C15.8638 14.2717 15.2718 13.6797 14.5415 13.6797C13.8112 13.6797 13.2192 14.2717 13.2192 15.002Z" fill="#E2E46F"/>
<path d="M11.1309 11.4688C11.1309 12.199 11.7228 12.791 12.4531 12.791C13.1834 12.791 13.7754 12.199 13.7754 11.4688C13.7754 10.7385 13.1834 10.1465 12.4531 10.1465C11.7228 10.1465 11.1309 10.7385 11.1309 11.4688Z" fill="#E2E46F"/>
<path d="M9.04003 7.93555C9.04003 8.66583 9.63201 9.25782 10.3623 9.25782C11.0926 9.25782 11.6846 8.66583 11.6846 7.93555C11.6846 7.20534 11.0926 6.61328 10.3623 6.61328C9.63201 6.61328 9.04003 7.20534 9.04003 7.93555Z" fill="#E2E46F"/>
<path d="M6.95995 4.40039C6.95995 5.1306 7.55194 5.72266 8.28222 5.72266C9.01251 5.72266 9.60449 5.1306 9.60449 4.40039C9.60449 3.67011 9.01251 3.07812 8.28222 3.07812C7.55194 3.07812 6.95995 3.67011 6.95995 4.40039Z" fill="#E2E46F"/>
<path d="M5.53125 0.868167C5.53125 1.23331 5.82723 1.5293 6.19238 1.5293C6.55752 1.5293 6.85352 1.23331 6.85352 0.868167C6.85352 0.503024 6.55752 0.207031 6.19238 0.207031C5.82723 0.207031 5.53125 0.503024 5.53125 0.868167Z" fill="#E2E46F"/>
<path d="M9.10302 15.002C9.10302 15.7322 9.695 16.3242 10.4253 16.3242C11.1555 16.3242 11.7476 15.7322 11.7476 15.002C11.7476 14.2717 11.1555 13.6797 10.4253 13.6797C9.695 13.6797 9.10302 14.2717 9.10302 15.002Z" fill="#E2E46F"/>
<path d="M7.01172 11.4688C7.01172 12.199 7.6037 12.791 8.33398 12.791C9.06419 12.791 9.65625 12.199 9.65625 11.4688C9.65625 10.7385 9.06419 10.1465 8.33398 10.1465C7.6037 10.1465 7.01172 10.7385 7.01172 11.4688Z" fill="#E2E46F"/>
<path d="M4.93163 7.93555C4.93163 8.66583 5.52361 9.25782 6.2539 9.25782C6.98411 9.25782 7.57617 8.66583 7.57617 7.93555C7.57617 7.20534 6.98411 6.61328 6.2539 6.61328C5.52361 6.61328 4.93163 7.20534 4.93163 7.93555Z" fill="#E2E46F"/>
<path d="M2.84081 4.40039C2.84081 5.1306 3.43279 5.72266 4.16308 5.72266C4.89329 5.72266 5.48535 5.1306 5.48535 4.40039C5.48535 3.67011 4.89329 3.07812 4.16308 3.07812C3.43279 3.07812 2.84081 3.67011 2.84081 4.40039Z" fill="#E2E46F"/>
<path d="M1.41212 0.868167C1.41212 1.23331 1.7081 1.5293 2.07324 1.5293C2.43838 1.5293 2.73437 1.23331 2.73437 0.868167C2.73437 0.503024 2.43838 0.207031 2.07324 0.207031C1.7081 0.207031 1.41212 0.503024 1.41212 0.868167Z" fill="#E2E46F"/>
<path d="M18.001 14.9502C18.001 15.3153 18.297 15.6113 18.6621 15.6113C19.0273 15.6113 19.3232 15.3153 19.3232 14.9502C19.3232 14.5851 19.0273 14.2891 18.6621 14.2891C18.297 14.2891 18.001 14.5851 18.001 14.9502Z" fill="#E2E46F"/>
<path d="M15.9097 18.4835C15.9097 18.8485 16.2057 19.1445 16.5708 19.1445C16.9359 19.1445 17.2319 18.8485 17.2319 18.4835C17.2319 18.1183 16.9359 17.8223 16.5708 17.8223C16.2057 17.8223 15.9097 18.1183 15.9097 18.4835Z" fill="#E2E46F"/>
<path d="M13.8213 22.0166C13.8213 22.3817 14.1174 22.6777 14.4824 22.6777C14.8476 22.6777 15.1436 22.3817 15.1436 22.0166C15.1436 21.6515 14.8476 21.3555 14.4824 21.3555C14.1174 21.3555 13.8213 21.6515 13.8213 22.0166Z" fill="#E2E46F"/>
<path d="M11.7305 25.5498C11.7305 25.915 12.0265 26.2109 12.3916 26.2109C12.7567 26.2109 13.0527 25.915 13.0527 25.5498C13.0527 25.1847 12.7567 24.8887 12.3916 24.8887C12.0265 24.8887 11.7305 25.1847 11.7305 25.5498Z" fill="#E2E46F"/>
<path d="M9.65039 29.0908C9.65039 29.456 9.94645 29.752 10.3115 29.752C10.6767 29.752 10.9727 29.456 10.9727 29.0908C10.9727 28.7257 10.6767 28.4297 10.3115 28.4297C9.94645 28.4297 9.65039 28.7257 9.65039 29.0908Z" fill="#E2E46F"/>
<path d="M13.2192 14.9473C13.2192 15.6776 13.8112 16.2695 14.5415 16.2695C15.2718 16.2695 15.8638 15.6776 15.8638 14.9473C15.8638 14.217 15.2718 13.625 14.5415 13.625C13.8112 13.625 13.2192 14.217 13.2192 14.9473Z" fill="#E2E46F"/>
<path d="M11.1309 18.4824C11.1309 19.2127 11.7228 19.8047 12.4531 19.8047C13.1834 19.8047 13.7754 19.2127 13.7754 18.4824C13.7754 17.7521 13.1834 17.1602 12.4531 17.1602C11.7228 17.1602 11.1309 17.7521 11.1309 18.4824Z" fill="#E2E46F"/>
<path d="M9.03954 22.0156C9.03954 22.7459 9.63152 23.3379 10.3618 23.3379C11.0921 23.3379 11.6841 22.7459 11.6841 22.0156C11.6841 21.2853 11.0921 20.6934 10.3618 20.6934C9.63152 20.6934 9.03954 21.2853 9.03954 22.0156Z" fill="#E2E46F"/>
<path d="M6.95996 25.5507C6.95996 26.281 7.55194 26.873 8.28223 26.873C9.01251 26.873 9.60449 26.281 9.60449 25.5507C9.60449 24.8205 9.01251 24.2285 8.28223 24.2285C7.55194 24.2285 6.95996 24.8205 6.95996 25.5507Z" fill="#E2E46F"/>
<path d="M5.53125 29.0908C5.53125 29.456 5.82723 29.752 6.19238 29.752C6.55752 29.752 6.85352 29.456 6.85352 29.0908C6.85352 28.7257 6.55752 28.4297 6.19238 28.4297C5.82723 28.4297 5.53125 28.7257 5.53125 29.0908Z" fill="#E2E46F"/>
<path d="M9.10302 14.9473C9.10302 15.6776 9.695 16.2695 10.4253 16.2695C11.1555 16.2695 11.7476 15.6776 11.7476 14.9473C11.7476 14.217 11.1555 13.625 10.4253 13.625C9.695 13.625 9.10302 14.217 9.10302 14.9473Z" fill="#E2E46F"/>
<path d="M7.01172 18.4824C7.01172 19.2127 7.6037 19.8047 8.33398 19.8047C9.06419 19.8047 9.65625 19.2127 9.65625 18.4824C9.65625 17.7521 9.06419 17.1602 8.33398 17.1602C7.6037 17.1602 7.01172 17.7521 7.01172 18.4824Z" fill="#E2E46F"/>
<path d="M4.93163 22.0156C4.93163 22.7459 5.52361 23.3379 6.2539 23.3379C6.98411 23.3379 7.57617 22.7459 7.57617 22.0156C7.57617 21.2853 6.98411 20.6934 6.2539 20.6934C5.52361 20.6934 4.93163 21.2853 4.93163 22.0156Z" fill="#E2E46F"/>
<path d="M2.84081 25.5507C2.84081 26.281 3.43279 26.873 4.16308 26.873C4.89329 26.873 5.48535 26.281 5.48535 25.5507C5.48535 24.8205 4.89329 24.2285 4.16308 24.2285C3.43279 24.2285 2.84081 24.8205 2.84081 25.5507Z" fill="#E2E46F"/>
<path d="M1.4126 29.0908C1.4126 29.456 1.70859 29.752 2.07373 29.752C2.43887 29.752 2.73486 29.456 2.73486 29.0908C2.73486 28.7257 2.43887 28.4297 2.07373 28.4297C1.70859 28.4297 1.4126 28.7257 1.4126 29.0908Z" fill="#E2E46F"/>
<path fill-rule="evenodd" clip-rule="evenodd" d="M16.5435 23.9589L19.7021 29.7499H29.5504L21.4773 14.9492L16.5435 23.9589Z" fill="#E2E46F"/>
<path fill-rule="evenodd" clip-rule="evenodd" d="M16.543 5.99924L21.4769 15.0089L29.5506 0.207031H19.7024L16.543 5.99924Z" fill="#E2E46F"/>
</svg>
