<svg width="32" height="32" viewBox="0 0 32 32" fill="none" xmlns="http://www.w3.org/2000/svg">
<g clip-path="url(#clip0_1335_7508)">
<path d="M16 32.0001C24.8366 32.0001 32 24.8367 32 16.0001C32 7.16355 24.8366 0.000110626 16 0.000110626C7.16344 0.000110626 0 7.16355 0 16.0001C0 24.8367 7.16344 32.0001 16 32.0001Z" fill="url(#paint0_linear_1335_7508)"/>
<path d="M20.9823 9.03315C20.5794 8.96673 20.1667 9.00454 19.782 9.1431C19.3973 9.28167 19.0531 9.51653 18.781 9.82606C18.2617 10.4185 18.1001 11.1899 18.2248 11.9628C18.3378 12.6599 18.4876 13.3674 18.5213 14.0389C18.5685 15.0503 18.4173 16.0612 18.0765 17.0125C17.7682 17.8733 17.3289 18.5408 16.3875 18.6885C16.3177 18.6997 16.0635 18.7077 15.9914 18.7117C15.9192 18.7157 15.6909 18.7005 15.6203 18.6893C14.6789 18.5416 14.2357 17.8741 13.9282 17.0077C13.5874 16.0564 13.4362 15.0456 13.4834 14.0341C13.5171 13.365 13.667 12.6567 13.7799 11.958C13.9047 11.1851 13.7431 10.4137 13.2237 9.82127C12.9507 9.51197 12.6056 9.27764 12.2202 9.1399C11.8348 9.00216 11.4216 8.96545 11.0185 9.03315C9.81122 9.23358 9.00713 10.3243 9.00007 11.4686C8.9967 11.9094 9.11435 12.3425 9.33975 12.719C9.71552 13.3498 10.3321 13.8097 10.8703 14.2872C11.2264 14.6066 11.8422 15.5129 12.1443 16.4951C12.3271 17.09 12.4761 17.6928 12.6236 18.3013C12.8307 19.1493 13.1155 21.0225 13.3029 21.8729C13.6772 23.5753 14.8225 23.961 15.9702 24.0001H16.011C17.1587 23.961 18.3229 23.5745 18.6971 21.8721C18.8837 21.0217 19.1677 19.1477 19.3764 18.3005C19.5247 17.6952 19.6729 17.0892 19.8557 16.4943C20.1577 15.5121 20.7736 14.6027 21.1297 14.2864C21.6679 13.8074 22.2837 13.349 22.6602 12.7182C22.8857 12.3417 23.0033 11.9086 22.9999 11.4678C22.9937 10.3211 22.1927 9.22958 20.9823 9.03315Z" fill="white"/>
</g>
<defs>
<linearGradient id="paint0_linear_1335_7508" x1="4.92308" y1="5.53857" x2="28.3077" y2="27.077" gradientUnits="userSpaceOnUse">
<stop stop-color="#0DA670"/>
<stop offset="1" stop-color="#2B4DAC"/>
</linearGradient>
<clipPath id="clip0_1335_7508">
<rect width="32" height="32" fill="white"/>
</clipPath>
</defs>
</svg>
