<svg width="28" height="28" viewBox="0 0 28 28" fill="none" xmlns="http://www.w3.org/2000/svg">
<g clip-path="url(#clip0_1531_709)">
<path d="M14 28C21.732 28 28 21.732 28 14C28 6.26801 21.732 0 14 0C6.26801 0 0 6.26801 0 14C0 21.732 6.26801 28 14 28Z" fill="#1770D0"/>
<g clip-path="url(#clip1_1531_709)">
<path d="M20.6668 10H16.0002C14.9393 10 13.9219 10.4214 13.1717 11.1716C12.4216 11.9217 12.0002 12.9391 12.0002 14C12.0002 15.0609 12.4216 16.0783 13.1717 16.8284C13.9219 17.5786 14.9393 18 16.0002 18H20.6668V19.3333C20.6668 19.5101 20.5966 19.6797 20.4716 19.8047C20.3465 19.9298 20.177 20 20.0002 20H8.00016C7.82335 20 7.65378 19.9298 7.52876 19.8047C7.40373 19.6797 7.3335 19.5101 7.3335 19.3333V8.66667C7.3335 8.48986 7.40373 8.32029 7.52876 8.19526C7.65378 8.07024 7.82335 8 8.00016 8H20.0002C20.177 8 20.3465 8.07024 20.4716 8.19526C20.5966 8.32029 20.6668 8.48986 20.6668 8.66667V10ZM16.0002 11.3333H21.3335V16.6667H16.0002C15.2929 16.6667 14.6146 16.3857 14.1145 15.8856C13.6144 15.3855 13.3335 14.7072 13.3335 14C13.3335 13.2928 13.6144 12.6145 14.1145 12.1144C14.6146 11.6143 15.2929 11.3333 16.0002 11.3333ZM16.0002 13.3333V14.6667H18.0002V13.3333H16.0002Z" fill="white"/>
</g>
</g>
<defs>
<clipPath id="clip0_1531_709">
<rect width="28" height="28" fill="white"/>
</clipPath>
<clipPath id="clip1_1531_709">
<rect width="16" height="16" fill="white" transform="translate(6 6)"/>
</clipPath>
</defs>
</svg>
