<svg width="32" height="32" viewBox="0 0 32 32" fill="none" xmlns="http://www.w3.org/2000/svg">
<circle cx="16" cy="16.0001" r="16" fill="url(#paint0_linear_1396_3749)"/>
<path d="M21.974 11.6677C20.5943 9.07106 19.0011 6.64794 18.0577 5.36118L16.727 6.33557C18.8544 9.23432 22.8298 15.8687 22.8298 18.8085C22.8298 22.5261 19.8016 25.5508 16.0797 25.5508C12.3578 25.5508 9.32957 22.5261 9.32957 18.8085C9.32957 16.8868 11.3926 12.8349 14.888 7.855C16.2663 10.0352 19.391 15.3378 19.7977 19.234L21.4386 19.0631C20.8736 13.6499 15.8133 6.23788 15.5984 5.92551L14.9343 4.96011L14.2483 5.91008C13.1416 7.44237 11.5419 9.76393 10.1983 12.1164C8.50334 15.0858 7.67969 17.275 7.67969 18.8098C7.67969 23.4362 11.4479 27.2001 16.0797 27.2001C20.7115 27.2001 24.4797 23.4362 24.4797 18.8098C24.4797 17.1991 23.6367 14.7966 21.974 11.669V11.6677Z" fill="white"/>
<defs>
<linearGradient id="paint0_linear_1396_3749" x1="16" y1="0.000106812" x2="16" y2="31.9983" gradientUnits="userSpaceOnUse">
<stop stop-color="#925FFF"/>
<stop offset="1" stop-color="#0C68F5"/>
</linearGradient>
</defs>
</svg>
