<svg width="40" height="17" viewBox="0 0 40 17" fill="none" xmlns="http://www.w3.org/2000/svg">
<path d="M7.55977 2.18817C8.03071 1.59916 8.35023 0.808279 8.26603 0C7.57665 0.0342825 6.73544 0.454786 6.24834 1.04432C5.81105 1.54913 5.424 2.37315 5.52488 3.14746C6.29867 3.21468 7.07184 2.76072 7.55977 2.18817ZM8.25723 3.29868C7.13336 3.23177 6.17791 3.93648 5.6412 3.93648C5.10417 3.93648 4.28233 3.33234 3.39347 3.3487C2.23646 3.36569 1.16304 4.01985 0.575883 5.06024C-0.631667 7.14152 0.25719 10.2289 1.43149 11.924C2.00176 12.7626 2.68907 13.6861 3.5946 13.6528C4.45022 13.6193 4.78558 13.0988 5.82566 13.0988C6.8649 13.0988 7.16702 13.6528 8.07277 13.636C9.01206 13.6193 9.59922 12.797 10.1695 11.9575C10.8236 11.0016 11.0915 10.0784 11.1084 10.0278C11.0915 10.011 9.2972 9.32266 9.28052 7.25866C9.26354 5.53046 10.6892 4.7084 10.7563 4.65744C9.95126 3.46667 8.69327 3.33244 8.25723 3.29868ZM18.0426 0.959805C20.4853 0.959805 22.1862 2.64348 22.1862 5.09493C22.1862 7.55509 20.4503 9.24757 17.9813 9.24757H15.2768V13.5484H13.3229V0.959805H18.0426ZM15.277 7.60739H17.519C19.2203 7.60739 20.1885 6.6915 20.1885 5.10363C20.1885 3.51597 19.2203 2.60868 17.5278 2.60868H15.277V7.60739ZM22.6968 10.94C22.6968 9.33477 23.9268 8.34897 26.1079 8.22686L28.6203 8.07865V7.37208C28.6203 6.35137 27.931 5.74071 26.7797 5.74071C25.689 5.74071 25.0085 6.26406 24.8429 7.08415H23.0632C23.1679 5.42647 24.5811 4.20514 26.8493 4.20514C29.0738 4.20514 30.4958 5.38287 30.4958 7.22355V13.5484H28.6899V12.0392H28.6465C28.1144 13.0599 26.954 13.7054 25.7502 13.7054C23.9531 13.7054 22.6968 12.5888 22.6968 10.94ZM28.6203 10.1114V9.38729L26.3608 9.5268C25.2353 9.60541 24.5986 10.1027 24.5986 10.8877C24.5986 11.6902 25.2615 12.2137 26.2735 12.2137C27.5908 12.2138 28.6203 11.3064 28.6203 10.1114ZM32.2008 16.9247V15.3979C32.3401 15.4327 32.6541 15.4327 32.8112 15.4327C33.6835 15.4327 34.1547 15.0664 34.4425 14.1242C34.4425 14.1067 34.6084 13.5658 34.6084 13.5571L31.2935 4.37076H33.3346L35.6554 11.8385H35.6901L38.011 4.37076H40L36.5625 14.0281C35.7777 16.2528 34.8704 16.9681 32.9686 16.9681C32.8112 16.9683 32.3401 16.9508 32.2008 16.9247Z" fill="#FAFAFA"/>
</svg>
