<svg width="28" height="30" viewBox="0 0 28 30" fill="none" xmlns="http://www.w3.org/2000/svg">
<path d="M12.2185 3.55061C12.1774 3.48502 12.1331 3.42148 12.0858 3.36019C11.8847 3.09575 11.6255 2.88104 11.3282 2.73264C11.031 2.58424 10.7036 2.50611 10.3714 2.50427C10.0233 2.50427 9.84438 2.54659 9.59433 2.64789C9.33788 2.74983 9.06412 2.89024 8.81728 3.15118C8.57236 3.40891 8.42619 3.67306 8.3236 3.94683C8.11716 4.4982 8.14152 5.22204 8.50248 5.80163C9.25646 7.01979 9.70204 8.40079 9.86553 9.82283C9.90977 10.2017 9.93734 10.5826 9.93734 10.9673C9.93734 12.7977 9.4379 14.5877 8.49415 16.1425C8.25107 16.5405 8.14437 17.0069 8.19025 17.4709C8.22107 17.8085 8.33048 18.1341 8.50972 18.4218C8.68897 18.7095 8.93306 18.9512 9.22248 19.1276C9.38019 19.2212 9.54625 19.293 9.71935 19.3469C10.1805 19.4896 10.6762 19.4737 11.1273 19.3019C11.5784 19.13 11.9589 18.812 12.2082 18.3987C13.5668 16.1579 14.284 13.5871 14.2817 10.9666C14.2835 8.35266 13.5701 5.78803 12.2185 3.55061ZM5.52569 25.6448C4.67106 25.6448 4.07031 26.2744 4.07031 27.011C4.07031 27.64 4.54732 28.335 5.44042 28.335C6.3566 28.335 6.86759 27.6349 6.86759 26.97C6.86759 26.2904 6.35019 25.6448 5.52569 25.6448ZM6.14374 27.8823C6.07665 27.9709 5.99004 28.0429 5.89063 28.0926C5.79123 28.1423 5.68171 28.1684 5.57057 28.1689C4.89032 28.1689 4.61464 27.2521 4.61464 26.6975C4.61464 26.4558 4.65439 26.2077 4.87366 26.0102C5.00893 25.8922 5.19422 25.8198 5.37951 25.8198C6.07514 25.8198 6.31236 26.7642 6.31236 27.2585C6.31236 27.4771 6.27774 27.7015 6.14374 27.8823Z" fill="#FAFAFA"/>
<path d="M9.5578 9.71897C8.31464 8.00393 6.58165 6.50175 4.62106 5.45157C4.3219 5.29202 3.98814 5.20836 3.6491 5.20794C2.88422 5.20794 2.18731 5.62468 1.82699 6.29723C1.56895 6.77999 1.513 7.34541 1.67143 7.86937C1.82986 8.39334 2.18971 8.83303 2.67201 9.09194C5.69752 10.7102 7.64914 13.7979 7.88059 17.3658V17.3632C7.83566 16.9006 7.94232 16.436 8.18449 16.0393C9.13073 14.4786 9.62996 12.6879 9.62768 10.8628C9.62768 10.4787 9.60075 10.0979 9.5578 9.71897ZM2.79126 27.0277L2.36939 27.2559L3.16504 27.2136V28.0612C2.95478 28.1538 2.72663 28.1987 2.49698 28.1926C1.3487 28.1926 0.633195 27.2598 0.633195 26.2705C0.633195 25.3486 1.25958 24.7164 2.0905 24.7164C2.7124 24.7164 3.04002 25.037 3.21889 25.212L3.08682 25.421L3.27083 25.38L3.70872 24.9645C3.59268 24.8844 3.40739 24.7478 3.01309 24.6375C2.75061 24.5648 2.47955 24.5278 2.20718 24.5273C0.863363 24.5273 0.0786133 25.4755 0.0786133 26.4968C0.0786133 27.3335 0.632554 28.4029 2.08537 28.4029C2.37516 28.4029 2.64828 28.3619 2.9541 28.3125L3.70808 28.1394V27.4957C3.70808 27.4432 3.71257 27.2906 3.71706 27.2431C3.72295 27.209 3.74208 27.1786 3.77027 27.1585L3.90683 27.0277H2.79126ZM12.0242 28.151L11.8223 27.9945C11.7601 27.9445 11.6755 27.8759 11.6755 27.7541C11.6755 27.6291 11.7607 27.5502 11.8332 27.4778C12.0685 27.2925 12.3044 27.0957 12.3044 26.6802C12.3044 26.2519 12.0351 26.0275 11.9069 25.9198H12.2544L12.6134 25.7211H11.4562C11.1523 25.7211 10.7715 25.7647 10.4509 26.0288C10.3405 26.1215 10.2513 26.2368 10.1891 26.3668C10.127 26.4968 10.0934 26.6387 10.0906 26.7828C10.0906 27.2213 10.4285 27.6643 11.0241 27.6643C11.0799 27.6643 11.1414 27.6579 11.2036 27.6522C11.176 27.7208 11.1472 27.7759 11.1472 27.8721C11.1472 28.0465 11.2376 28.1529 11.3158 28.2542C11.0632 28.2702 10.5919 28.2991 10.2432 28.5119C9.9117 28.7081 9.81105 28.9953 9.81105 29.196C9.81105 29.6128 10.2041 30 11.0189 30C11.9851 30 12.4955 29.4666 12.4955 28.9389C12.4955 28.5517 12.2711 28.3593 12.0242 28.151ZM11.2882 27.5066C10.8054 27.5066 10.5855 26.8828 10.5855 26.5058C10.5855 26.3616 10.615 26.209 10.7093 26.0891C10.7578 26.032 10.818 25.9859 10.8857 25.9539C10.9535 25.922 11.0274 25.9049 11.1023 25.9038C11.5697 25.9038 11.8107 26.5334 11.8107 26.9379C11.8107 27.038 11.7998 27.2188 11.6716 27.3495C11.5673 27.4471 11.4309 27.5029 11.2882 27.5066ZM11.294 29.7609C10.6932 29.7609 10.3054 29.4756 10.3054 29.0774C10.3054 28.678 10.665 28.544 10.7894 28.4985C11.0247 28.4209 11.3273 28.4087 11.3786 28.4087C11.4344 28.4087 11.4626 28.4087 11.5068 28.4138C11.9338 28.7184 12.1204 28.8697 12.1204 29.155C12.1204 29.5031 11.8332 29.7609 11.294 29.7609ZM8.51339 25.6448C7.66004 25.6448 7.05865 26.2744 7.05865 27.011C7.05865 27.64 7.53566 28.335 8.4294 28.335C9.34494 28.335 9.85721 27.6349 9.85721 26.97C9.85721 26.2904 9.33917 25.6448 8.51339 25.6448ZM9.13144 27.8823C9.06465 27.9709 8.97828 28.0429 8.87907 28.0926C8.77987 28.1423 8.67051 28.1684 8.55955 28.1689C7.87931 28.1689 7.60298 27.2521 7.60298 26.6975C7.60298 26.4558 7.64337 26.2077 7.86199 26.0102C8.00246 25.8888 8.18154 25.8213 8.36721 25.8198C9.06412 25.8198 9.30006 26.7642 9.30006 27.2585C9.30006 27.4771 9.26672 27.7015 9.13144 27.8823ZM23.0659 24.6375H23.3537V28.2632H23.0659V24.6375ZM22.6139 5.93755C22.2487 4.33791 21.7088 2.78323 21.004 1.3015C20.8171 0.91277 20.5245 0.584521 20.1598 0.354343C19.795 0.124165 19.3728 0.0013639 18.9415 3.40476e-07C18.6033 -0.000185118 18.2694 0.0753969 17.9644 0.221192C17.4191 0.482352 16.9993 0.9487 16.7968 1.51836C16.5942 2.08802 16.6254 2.71468 16.8834 3.26146C18.0304 5.66791 18.6218 8.30143 18.6138 10.9673C18.6216 13.617 18.0367 16.2349 16.902 18.6295C16.8853 18.666 16.6866 19.0917 16.6866 19.5822C16.6853 19.72 16.7 19.9265 16.7443 20.1105C16.857 20.6148 17.1384 21.0655 17.542 21.3882C17.9455 21.7109 18.4472 21.8862 18.9639 21.8851C19.7961 21.8851 20.5667 21.4255 20.9642 20.7016C21.4188 19.8476 21.8791 18.7256 22.2792 17.2818C22.8764 15.2297 23.1792 13.1032 23.1787 10.966C23.1769 9.27411 22.9874 7.58766 22.6139 5.93755ZM26.5806 26.9482C26.5806 26.2077 26.3184 25.6602 25.6599 25.6602C25.0354 25.6602 24.7296 26.1551 24.7296 26.97C24.7296 27.8785 25.0887 28.3196 25.6913 28.3196C26.1549 28.3196 26.5081 28.0388 26.5806 27.4252L26.2869 27.3842C26.2273 27.8612 26.0016 28.0452 25.6913 28.0452C25.2919 28.0452 25.0303 27.7413 25.0303 27.0424H26.5806V26.9482ZM26.2735 26.7802H25.0316C25.0534 26.2615 25.2688 25.9288 25.6631 25.9288C26.0677 25.9288 26.2568 26.2981 26.2735 26.77V26.7802ZM23.968 24.6375H24.2571V28.2632H23.968V24.6375ZM27.6641 28.0157C27.4602 28.0157 27.4121 27.9477 27.4121 27.706V25.9826H27.9212V25.7204H27.4128V24.7824L27.1178 24.8985V25.7198H26.7857V25.982H27.1178V27.7426C27.1178 28.1042 27.2384 28.2933 27.616 28.2933C27.7423 28.2933 27.8564 28.2734 27.9218 28.2471V27.958C27.842 27.9982 27.7535 28.018 27.6641 28.0157ZM22.4844 27.7631L22.4837 26.4641C22.4837 25.9006 22.1689 25.6589 21.6073 25.6589C21.1296 25.6589 20.802 25.9397 20.7443 26.3539L21.0277 26.3943C21.0764 26.1 21.2701 25.9217 21.597 25.9217C22.0163 25.9217 22.2003 26.0814 22.2003 26.4956V26.7687C22.0644 26.7058 21.8535 26.6597 21.597 26.6597C21.0649 26.6597 20.6918 26.9482 20.6918 27.4688C20.6918 28.0375 21.0617 28.3202 21.5297 28.3202C21.7964 28.3202 22.0811 28.1708 22.2016 27.9945C22.2016 28.067 22.2125 28.1939 22.2388 28.2625H22.5318C22.4956 28.0986 22.4797 27.9309 22.4844 27.7631ZM22.2016 27.6163C22.0958 27.8419 21.833 28.0522 21.5457 28.0522C21.2188 28.0522 20.9835 27.8631 20.9835 27.4701C20.9835 27.0969 21.2342 26.9181 21.5919 26.9181C21.8599 26.9181 22.0587 26.9764 22.2016 27.0431V27.6163Z" fill="#FAFAFA"/>
<path d="M13.6693 28.1112C13.484 28.0945 13.4449 28.0612 13.4449 27.8406V26.5449C13.4449 25.7467 13.4507 25.0607 13.4969 24.6286C13.5187 24.4311 13.5751 24.3958 13.7488 24.2958H12.9461L12.5249 24.4984H12.9615C12.957 24.7574 12.9352 25.1158 12.9295 25.4037C12.9139 25.9519 12.906 26.5004 12.9057 27.0488V27.9657C12.9057 28.0772 12.8833 28.0933 12.7551 28.2625H13.7488L13.9566 28.1401C13.8617 28.1285 13.7642 28.1247 13.6693 28.1112Z" fill="#FAFAFA"/>
<path d="M15.5456 28.0548C15.0115 28.0548 14.5294 27.6387 14.3845 26.9251L14.8153 26.8905L16.1367 26.3571C16.0822 26.1283 15.942 25.9291 15.745 25.8006C15.5706 25.6953 15.3703 25.6406 15.1667 25.6428C14.589 25.6428 13.8812 26.0698 13.8812 26.9405C13.8812 27.363 14.0537 27.8464 14.4544 28.1272C14.7397 28.333 15.0205 28.3452 15.2006 28.3452C15.3699 28.3452 15.5603 28.3234 15.7456 28.2388C15.8072 28.2112 15.8713 28.1721 15.9322 28.1394L16.2303 27.858C16.0399 27.9548 15.8309 28.0548 15.5456 28.0548ZM14.3678 26.6142C14.3678 26.0051 14.7884 25.8307 15.0128 25.8307C15.3167 25.8307 15.5687 26.0891 15.5687 26.3141C15.5687 26.3943 15.5122 26.4269 15.4058 26.4661L14.3838 26.9104C14.3768 26.8084 14.3659 26.7078 14.3678 26.6142ZM18.1518 8.94832C16.6644 6.56907 14.5082 4.44178 11.9854 2.87997L12.0168 2.90113C12.1918 3.02744 12.3393 3.15951 12.4938 3.36018C12.5316 3.40891 12.5842 3.47879 12.6278 3.5506C14.1447 6.06035 14.8547 8.97518 14.6621 11.9014C15.7443 13.9633 16.3355 16.3066 16.3355 18.7647C16.3355 18.9603 16.338 19.2744 16.3342 19.5033C16.3513 19.2014 16.4239 18.9051 16.5483 18.6295C17.6824 16.2347 18.2672 13.6169 18.2601 10.9673C18.2623 10.2928 18.2261 9.6187 18.1518 8.94832ZM20.0367 25.7191L19.5681 27.9997L19.0648 25.7179H18.6589L18.1595 27.9997L17.6812 25.7191H17.3664L17.9492 28.2625H18.3499L18.8647 25.9923L19.3687 28.2625H19.7687L20.347 25.7191H20.0367Z" fill="#FAFAFA"/>
</svg>
