<svg width="29" height="20" viewBox="0 0 29 20" fill="none" xmlns="http://www.w3.org/2000/svg">
<path d="M9.682 19.2933C14.7841 19.2933 18.9201 15.1573 18.9201 10.0552C18.9201 4.95308 14.7841 0.817017 9.682 0.817017C4.57991 0.817017 0.443848 4.95308 0.443848 10.0552C0.443848 15.1573 4.57991 19.2933 9.682 19.2933Z" fill="#FFCC66"/>
<path d="M19.7616 19.2933C24.8637 19.2933 28.9997 15.1573 28.9997 10.0552C28.9997 4.95308 24.8637 0.817017 19.7616 0.817017C14.6595 0.817017 10.5234 4.95308 10.5234 10.0552C10.5234 15.1573 14.6595 19.2933 19.7616 19.2933Z" fill="#ED7161"/>
<path d="M14.7219 2.32523C13.9647 2.82573 13.2849 3.43451 12.7042 4.13217H16.7378C16.1577 3.4346 15.4786 2.82581 14.7219 2.32523ZM14.7219 17.7832C15.4787 17.2822 16.1585 16.6735 16.7396 15.9763H12.7042C13.2888 16.6708 13.9596 17.2866 14.7219 17.7832ZM10.89 7.51699H18.5557C18.3873 6.93202 18.1608 6.36537 17.8795 5.8255H11.568C11.2876 6.36062 11.0586 6.92506 10.89 7.51699ZM10.5234 10.0551C10.5234 10.3429 10.5528 10.6214 10.5784 10.9018H18.8654C18.9388 10.1028 18.9388 9.99467 18.8654 9.21032H10.5766C10.5528 9.48887 10.5234 9.76743 10.5234 10.0551ZM11.5662 14.2848H17.8777C18.1562 13.7497 18.3853 13.1852 18.5539 12.5933H10.8881C11.0586 13.1852 11.2876 13.7497 11.5662 14.2848Z" fill="#FFCC66"/>
</svg>
