<svg width="40" height="14" viewBox="0 0 40 14" fill="none" xmlns="http://www.w3.org/2000/svg">
<path d="M16.3498 0.741241L14.3423 13.2338H17.5511L19.5574 0.741241H16.3498ZM26.0286 5.83001C24.9073 5.27628 24.2199 4.90255 24.2199 4.3362C24.2336 3.82126 24.8012 3.29371 26.0686 3.29371C27.1111 3.26753 27.8774 3.51252 28.4587 3.75628L28.7499 3.88625L29.1861 1.27249C28.5523 1.0275 27.5474 0.757555 26.3061 0.757555C23.1374 0.757555 20.9061 2.40505 20.8923 4.76134C20.8661 6.50014 22.4897 7.46503 23.7048 8.04386C24.9461 8.63762 25.3686 9.02259 25.3686 9.55014C25.3549 10.3601 24.3649 10.7338 23.4412 10.7338C22.1612 10.7338 21.4737 10.5414 20.43 10.09L20.0074 9.89754L19.5587 12.6139C20.3125 12.9489 21.6987 13.2438 23.1375 13.2589C26.505 13.2589 28.6962 11.6363 28.7238 9.12514C28.7348 7.74759 27.8786 6.69249 26.0286 5.83001ZM37.4123 0.779903H34.9298C34.1648 0.779903 33.5835 0.999944 33.2523 1.78496L28.4859 13.2338H31.8535L32.7809 10.7551H36.5485L37.0297 13.2438H39.9998L37.4123 0.779903ZM33.7148 8.25361C33.7798 8.25992 35.0074 4.20733 35.0074 4.20733L35.9849 8.25361H33.7148ZM11.6611 0.741241L8.51733 9.22879L8.17486 7.55497C7.59357 5.62368 5.77114 3.525 3.7373 2.48251L6.61607 13.2213H10.0111L15.0562 0.742612H11.6611V0.741241Z" fill="#2394BC"/>
<path d="M7.11753 2.35241C6.87254 1.39986 6.09122 0.757423 5.03009 0.743713H0.0512743L0 0.974859C3.88382 1.93234 7.14372 4.87856 8.20129 7.64984L7.11753 2.35241Z" fill="#EFC75E"/>
</svg>
